<svg xmlns="http://www.w3.org/2000/svg" xmlns:xlink="http://www.w3.org/1999/xlink" width="202" zoomAndPan="magnify" viewBox="0 0 151.5 82.499998" height="110" preserveAspectRatio="xMidYMid meet" version="1.0"><defs><g/><clipPath id="e061a6ec4f"><path d="M 20 19.3125 L 29 19.3125 L 29 36 L 20 36 Z M 20 19.3125 " clip-rule="nonzero"/></clipPath></defs><g fill="#393b24" fill-opacity="1"><g transform="translate(50.090989, 41.983947)"><g><path d="M 7.164062 -2.886719 C 6.785156 -2.253906 6.382812 -1.535156 5.238281 -1.449219 C 3.527344 -1.449219 2.734375 -3.050781 2.722656 -4.574219 C 2.699219 -5.871094 3.257812 -6.554688 3.867188 -6.664062 C 3.964844 -6.6875 4.050781 -6.6875 4.136719 -6.6875 C 4.75 -6.6875 5.128906 -6.261719 5.140625 -5.402344 C 5.152344 -4.59375 5.457031 -4.039062 6.328125 -4.039062 C 6.980469 -4.039062 7.558594 -4.476562 7.460938 -5.3125 C 7.394531 -5.914062 6.632812 -7.339844 4.214844 -7.339844 C 4.082031 -7.339844 3.941406 -7.339844 3.800781 -7.328125 C 1.785156 -7.210938 0.164062 -5.738281 0.164062 -3.582031 C 0.164062 -1.328125 1.925781 0.183594 4.03125 0.183594 C 5.824219 0.183594 7.382812 -0.925781 7.796875 -2.644531 L 7.796875 -2.65625 C 7.863281 -2.929688 7.6875 -3.09375 7.492188 -3.09375 C 7.371094 -3.09375 7.253906 -3.027344 7.164062 -2.886719 Z M 7.164062 -2.886719 "/></g></g></g><g fill="#393b24" fill-opacity="1"><g transform="translate(59.23214, 41.983947)"><g><path d="M 4.988281 -0.597656 C 4.933594 -0.589844 4.867188 -0.578125 4.8125 -0.578125 C 4.03125 -0.578125 3.375 -1.785156 3.003906 -3.203125 C 2.625 -4.648438 2.460938 -6.328125 3.355469 -6.589844 C 3.429688 -6.609375 3.507812 -6.621094 3.582031 -6.621094 C 4.433594 -6.621094 5.097656 -5.207031 5.414062 -3.953125 C 5.78125 -2.492188 5.859375 -0.796875 4.988281 -0.597656 Z M 4.160156 -7.371094 C 1.992188 -7.371094 0.164062 -5.847656 0.164062 -3.582031 C 0.164062 -1.316406 1.992188 0.207031 4.160156 0.207031 C 6.339844 0.207031 8.167969 -1.328125 8.167969 -3.582031 C 8.167969 -5.835938 6.339844 -7.371094 4.160156 -7.371094 Z M 4.160156 -7.371094 "/></g></g></g><g fill="#393b24" fill-opacity="1"><g transform="translate(68.732335, 41.983947)"><g><path d="M 7.632812 -2.167969 C 7.570312 -3.179688 6.492188 -3.777344 5.726562 -4.183594 C 5.074219 -4.519531 3.996094 -5.109375 3.746094 -5.269531 C 3.300781 -5.53125 2.953125 -5.804688 3.015625 -6.273438 C 3.082031 -6.730469 3.527344 -6.871094 3.929688 -6.871094 C 4.410156 -6.859375 4.78125 -6.644531 4.945312 -6.164062 C 5.109375 -5.695312 5.292969 -4.855469 6.054688 -4.726562 C 6.132812 -4.714844 6.207031 -4.703125 6.285156 -4.703125 C 6.925781 -4.703125 7.1875 -5.292969 7.046875 -5.78125 C 6.839844 -6.5 5.847656 -7.261719 4.160156 -7.371094 C 4.007812 -7.382812 3.855469 -7.382812 3.714844 -7.382812 C 1.828125 -7.382812 0.640625 -6.566406 0.46875 -5.53125 C 0.261719 -4.171875 1.515625 -3.472656 2.179688 -3.15625 C 2.625 -2.941406 3.398438 -2.546875 3.59375 -2.449219 C 3.984375 -2.253906 5.140625 -1.839844 5.042969 -1.046875 C 5 -0.6875 4.648438 -0.347656 4.007812 -0.347656 C 3.136719 -0.347656 2.582031 -0.761719 2.417969 -1.644531 C 2.277344 -2.394531 1.863281 -2.808594 1.242188 -2.808594 C 1.15625 -2.808594 1.066406 -2.796875 0.96875 -2.789062 C 0.328125 -2.691406 0.0429688 -2.125 0.207031 -1.523438 C 0.597656 -0.183594 2.851562 0.230469 4.0625 0.230469 C 6.183594 0.230469 7.722656 -0.589844 7.632812 -2.167969 Z M 7.632812 -2.167969 "/></g></g></g><g fill="#393b24" fill-opacity="1"><g transform="translate(77.710275, 41.983947)"><g><path d="M 0.21875 -0.382812 C 0.28125 -0.0546875 2.320312 0.0234375 3.058594 0.03125 L 3.070312 0.03125 C 3.105469 0.03125 6.5 0.03125 6.957031 -0.152344 C 7.339844 -0.328125 7.339844 -0.894531 7.339844 -1.242188 C 7.339844 -1.578125 7.371094 -2.308594 6.902344 -2.308594 C 6.339844 -2.308594 6.480469 -0.652344 5.335938 -0.652344 L 4.09375 -0.652344 C 3.703125 -0.6875 3.472656 -0.9375 3.472656 -1.71875 L 3.472656 -3.125 L 3.496094 -3.125 C 4.640625 -3.125 4.378906 -2.015625 4.945312 -2.015625 C 5.367188 -2.015625 5.292969 -2.515625 5.292969 -2.863281 L 5.292969 -4.082031 C 5.292969 -4.433594 5.367188 -4.945312 4.945312 -4.945312 C 4.378906 -4.945312 4.640625 -3.824219 3.496094 -3.824219 L 3.472656 -3.824219 L 3.472656 -5.457031 C 3.472656 -6.285156 3.734375 -6.511719 4.171875 -6.523438 L 5.007812 -6.523438 C 6.152344 -6.523438 6.011719 -4.867188 6.578125 -4.867188 C 7.058594 -4.867188 7.011719 -5.597656 7.011719 -5.933594 C 7.011719 -6.285156 7.023438 -6.851562 6.632812 -7.023438 C 6.21875 -7.199219 4.300781 -7.210938 3.320312 -7.210938 C 3.113281 -7.210938 2.953125 -7.210938 2.851562 -7.210938 L 2.84375 -7.199219 C 2.199219 -7.199219 0.28125 -7.121094 0.21875 -6.785156 C 0.152344 -6.359375 0.914062 -6.273438 0.914062 -5.457031 L 0.914062 -1.71875 C 0.914062 -0.902344 0.152344 -0.816406 0.21875 -0.382812 Z M 0.21875 -0.382812 "/></g></g></g><g fill="#393b24" fill-opacity="1"><g transform="translate(86.383573, 41.983947)"><g><path d="M 7.164062 -2.886719 C 6.785156 -2.253906 6.382812 -1.535156 5.238281 -1.449219 C 3.527344 -1.449219 2.734375 -3.050781 2.722656 -4.574219 C 2.699219 -5.871094 3.257812 -6.554688 3.867188 -6.664062 C 3.964844 -6.6875 4.050781 -6.6875 4.136719 -6.6875 C 4.75 -6.6875 5.128906 -6.261719 5.140625 -5.402344 C 5.152344 -4.59375 5.457031 -4.039062 6.328125 -4.039062 C 6.980469 -4.039062 7.558594 -4.476562 7.460938 -5.3125 C 7.394531 -5.914062 6.632812 -7.339844 4.214844 -7.339844 C 4.082031 -7.339844 3.941406 -7.339844 3.800781 -7.328125 C 1.785156 -7.210938 0.164062 -5.738281 0.164062 -3.582031 C 0.164062 -1.328125 1.925781 0.183594 4.03125 0.183594 C 5.824219 0.183594 7.382812 -0.925781 7.796875 -2.644531 L 7.796875 -2.65625 C 7.863281 -2.929688 7.6875 -3.09375 7.492188 -3.09375 C 7.371094 -3.09375 7.253906 -3.027344 7.164062 -2.886719 Z M 7.164062 -2.886719 "/></g></g></g><g fill="#393b24" fill-opacity="1"><g transform="translate(95.524723, 41.983947)"><g><path d="M 0.21875 -0.382812 C 0.28125 0 1.882812 0.03125 2.199219 0.03125 C 2.515625 0.03125 4.117188 0.0234375 4.160156 -0.382812 C 4.191406 -0.828125 3.472656 -0.871094 3.472656 -1.71875 L 3.472656 -3.320312 L 5.671875 -3.320312 L 5.671875 -1.71875 C 5.671875 -0.902344 4.902344 -0.816406 4.976562 -0.382812 C 5.042969 0 6.632812 0.03125 6.949219 0.03125 C 7.273438 0.03125 8.875 0.0234375 8.90625 -0.382812 C 8.953125 -0.828125 8.234375 -0.871094 8.234375 -1.71875 L 8.234375 -5.445312 C 8.234375 -6.285156 8.953125 -6.328125 8.90625 -6.773438 C 8.875 -7.1875 7.273438 -7.199219 6.949219 -7.199219 C 6.632812 -7.199219 5.042969 -7.15625 4.976562 -6.773438 C 4.902344 -6.347656 5.671875 -6.261719 5.671875 -5.445312 L 5.671875 -4.007812 L 3.472656 -4.007812 L 3.472656 -5.445312 C 3.472656 -6.285156 4.191406 -6.328125 4.160156 -6.773438 C 4.117188 -7.1875 2.515625 -7.199219 2.199219 -7.199219 C 1.882812 -7.199219 0.28125 -7.15625 0.21875 -6.773438 C 0.152344 -6.347656 0.914062 -6.261719 0.914062 -5.445312 L 0.914062 -1.71875 C 0.914062 -0.902344 0.152344 -0.816406 0.21875 -0.382812 Z M 0.21875 -0.382812 "/></g></g></g><g fill="#393b24" fill-opacity="1"><g transform="translate(105.830047, 41.983947)"><g><path d="M 2.472656 -2.582031 C 2.777344 -3.332031 3.222656 -4.421875 3.507812 -5.117188 L 3.636719 -4.8125 C 3.660156 -4.75 3.691406 -4.695312 3.714844 -4.628906 L 4.617188 -2.582031 Z M 7.523438 -1.785156 C 7.425781 -2.003906 5.933594 -5.566406 5.933594 -5.566406 C 5.585938 -6.414062 5.457031 -7.273438 4.074219 -7.382812 C 4.03125 -7.382812 3.964844 -7.394531 3.886719 -7.394531 C 3.484375 -7.394531 2.777344 -7.316406 2.667969 -6.949219 C 2.601562 -6.699219 2.753906 -6.542969 2.972656 -6.207031 L 1.199219 -1.808594 C 0.859375 -0.957031 0.109375 -0.871094 0.109375 -0.414062 C 0.109375 -0.0664062 0.847656 0.0234375 1.164062 0.03125 C 1.492188 0.03125 2.539062 0.03125 2.582031 -0.390625 C 2.636719 -0.847656 1.820312 -0.914062 2.15625 -1.808594 L 2.1875 -1.894531 L 4.921875 -1.894531 L 4.964844 -1.785156 C 5.3125 -0.9375 4.542969 -0.785156 4.648438 -0.402344 C 4.757812 0.0234375 6.328125 0.03125 6.75 0.03125 C 7.121094 0.03125 8.472656 0.03125 8.582031 -0.402344 C 8.710938 -0.9375 7.882812 -0.902344 7.523438 -1.785156 Z M 7.523438 -1.785156 "/></g></g></g><g fill="#393b24" fill-opacity="1"><g transform="translate(116.854829, 41.797461)"><g><path d="M 3.527344 -6.082031 C 3.21875 -6.117188 3.074219 -6.117188 2.746094 -6.117188 L 0.886719 -6.117188 L 0.886719 0 L 2.703125 0 C 3.03125 0 3.171875 0 3.484375 -0.0351562 C 4.902344 -0.210938 5.949219 -1.328125 5.949219 -3.128906 C 5.949219 -4.957031 4.945312 -5.902344 3.527344 -6.082031 Z M 3.402344 -0.664062 C 3.210938 -0.628906 2.976562 -0.621094 2.660156 -0.621094 L 1.648438 -0.621094 L 1.648438 -5.496094 L 2.703125 -5.496094 C 3.023438 -5.496094 3.253906 -5.488281 3.449219 -5.453125 C 4.484375 -5.285156 5.113281 -4.484375 5.113281 -3.128906 C 5.113281 -1.683594 4.441406 -0.832031 3.402344 -0.664062 Z M 3.402344 -0.664062 "/></g></g></g><g fill="#393b24" fill-opacity="1"><g transform="translate(123.937696, 41.797461)"><g><path d="M 4.957031 -0.621094 L 1.648438 -0.621094 L 1.648438 -2.746094 L 4.601562 -2.746094 L 4.601562 -3.367188 L 1.648438 -3.367188 L 1.648438 -5.496094 L 4.867188 -5.496094 L 4.867188 -6.117188 L 0.886719 -6.117188 L 0.886719 0 L 4.957031 0 Z M 4.957031 -0.621094 "/></g></g></g><g fill="#393b24" fill-opacity="1"><g transform="translate(129.939077, 41.797461)"><g><path d="M 4.957031 -0.621094 L 1.648438 -0.621094 L 1.648438 -6.117188 L 0.886719 -6.117188 L 0.886719 0 L 4.957031 0 Z M 4.957031 -0.621094 "/></g></g></g><g fill="#393b24" fill-opacity="1"><g transform="translate(50.090989, 54.009421)"><g><path d="M 12.183594 -2.128906 C 12.101562 -2.707031 11.671875 -6.140625 11.589844 -6.730469 C 11.46875 -7.769531 12.34375 -7.820312 12.222656 -8.375 C 12.117188 -8.886719 10.136719 -8.898438 9.746094 -8.898438 C 9.382812 -8.898438 8.402344 -8.859375 8.238281 -8.46875 L 8.226562 -8.46875 L 6.746094 -4.011719 L 5.101562 -8.507812 C 4.902344 -8.859375 3.890625 -8.886719 3.539062 -8.886719 C 3.148438 -8.886719 1.265625 -8.859375 1.117188 -8.386719 C 0.96875 -7.863281 1.964844 -7.753906 1.84375 -6.746094 L 1.253906 -2.085938 C 1.132812 -1.089844 0.242188 -1.023438 0.269531 -0.5 C 0.296875 -0.0273438 1.347656 0.0273438 1.738281 0.0273438 C 2.128906 0.0273438 3.230469 0.0273438 3.339844 -0.472656 C 3.460938 -1.023438 2.300781 -1.050781 2.4375 -2.085938 C 2.492188 -2.503906 2.734375 -4.496094 2.894531 -5.761719 L 4.65625 -0.914062 C 4.78125 -0.566406 5.117188 -0.335938 5.492188 -0.335938 L 6.058594 -0.335938 C 6.449219 -0.335938 6.785156 -0.578125 6.90625 -0.941406 L 8.535156 -5.9375 L 9.019531 -2.128906 C 9.140625 -1.117188 8.210938 -1.007812 8.375 -0.472656 C 8.507812 0 10.488281 0.0390625 10.878906 0.0390625 C 11.269531 0.0390625 13.246094 0.0273438 13.234375 -0.472656 C 13.207031 -1.023438 12.320312 -1.078125 12.183594 -2.128906 Z M 12.183594 -2.128906 "/></g></g></g><g fill="#393b24" fill-opacity="1"><g transform="translate(64.509825, 54.009421)"><g><path d="M 6.167969 -0.742188 C 6.097656 -0.726562 6.019531 -0.714844 5.949219 -0.714844 C 4.980469 -0.714844 4.171875 -2.207031 3.714844 -3.957031 C 3.246094 -5.75 3.042969 -7.820312 4.148438 -8.144531 C 4.242188 -8.171875 4.335938 -8.183594 4.429688 -8.183594 C 5.480469 -8.183594 6.300781 -6.433594 6.691406 -4.886719 C 7.148438 -3.082031 7.242188 -0.984375 6.167969 -0.742188 Z M 5.144531 -9.113281 C 2.464844 -9.113281 0.203125 -7.230469 0.203125 -4.429688 C 0.203125 -1.628906 2.464844 0.253906 5.144531 0.253906 C 7.835938 0.253906 10.097656 -1.640625 10.097656 -4.429688 C 10.097656 -7.214844 7.835938 -9.113281 5.144531 -9.113281 Z M 5.144531 -9.113281 "/></g></g></g><g fill="#393b24" fill-opacity="1"><g transform="translate(75.724492, 54.009421)"><g><path d="M 12.183594 -2.128906 C 12.101562 -2.707031 11.671875 -6.140625 11.589844 -6.730469 C 11.46875 -7.769531 12.34375 -7.820312 12.222656 -8.375 C 12.117188 -8.886719 10.136719 -8.898438 9.746094 -8.898438 C 9.382812 -8.898438 8.402344 -8.859375 8.238281 -8.46875 L 8.226562 -8.46875 L 6.746094 -4.011719 L 5.101562 -8.507812 C 4.902344 -8.859375 3.890625 -8.886719 3.539062 -8.886719 C 3.148438 -8.886719 1.265625 -8.859375 1.117188 -8.386719 C 0.96875 -7.863281 1.964844 -7.753906 1.84375 -6.746094 L 1.253906 -2.085938 C 1.132812 -1.089844 0.242188 -1.023438 0.269531 -0.5 C 0.296875 -0.0273438 1.347656 0.0273438 1.738281 0.0273438 C 2.128906 0.0273438 3.230469 0.0273438 3.339844 -0.472656 C 3.460938 -1.023438 2.300781 -1.050781 2.4375 -2.085938 C 2.492188 -2.503906 2.734375 -4.496094 2.894531 -5.761719 L 4.65625 -0.914062 C 4.78125 -0.566406 5.117188 -0.335938 5.492188 -0.335938 L 6.058594 -0.335938 C 6.449219 -0.335938 6.785156 -0.578125 6.90625 -0.941406 L 8.535156 -5.9375 L 9.019531 -2.128906 C 9.140625 -1.117188 8.210938 -1.007812 8.375 -0.472656 C 8.507812 0 10.488281 0.0390625 10.878906 0.0390625 C 11.269531 0.0390625 13.246094 0.0273438 13.234375 -0.472656 C 13.207031 -1.023438 12.320312 -1.078125 12.183594 -2.128906 Z M 12.183594 -2.128906 "/></g></g></g><g fill="#393b24" fill-opacity="1"><g transform="translate(90.14333, 54.009421)"><g><path d="M 0.269531 -0.472656 C 0.351562 -0.0664062 2.867188 0.0273438 3.78125 0.0390625 L 3.796875 0.0390625 C 3.835938 0.0390625 8.039062 0.0390625 8.601562 -0.1875 C 9.074219 -0.402344 9.074219 -1.105469 9.074219 -1.535156 C 9.074219 -1.953125 9.113281 -2.855469 8.535156 -2.855469 C 7.835938 -2.855469 8.011719 -0.808594 6.597656 -0.808594 L 5.0625 -0.808594 C 4.578125 -0.847656 4.292969 -1.15625 4.292969 -2.128906 L 4.292969 -3.863281 L 4.320312 -3.863281 C 5.734375 -3.863281 5.414062 -2.492188 6.113281 -2.492188 C 6.636719 -2.492188 6.542969 -3.109375 6.542969 -3.539062 L 6.542969 -5.046875 C 6.542969 -5.480469 6.636719 -6.113281 6.113281 -6.113281 C 5.414062 -6.113281 5.734375 -4.726562 4.320312 -4.726562 L 4.292969 -4.726562 L 4.292969 -6.746094 C 4.292969 -7.769531 4.617188 -8.050781 5.15625 -8.0625 L 6.191406 -8.0625 C 7.605469 -8.0625 7.429688 -6.019531 8.132812 -6.019531 C 8.722656 -6.019531 8.671875 -6.921875 8.671875 -7.335938 C 8.671875 -7.769531 8.683594 -8.46875 8.199219 -8.683594 C 7.6875 -8.898438 5.316406 -8.914062 4.105469 -8.914062 C 3.851562 -8.914062 3.648438 -8.914062 3.527344 -8.914062 L 3.515625 -8.898438 C 2.71875 -8.898438 0.351562 -8.804688 0.269531 -8.386719 C 0.1875 -7.863281 1.132812 -7.753906 1.132812 -6.746094 L 1.132812 -2.128906 C 1.132812 -1.117188 0.1875 -1.007812 0.269531 -0.472656 Z M 0.269531 -0.472656 "/></g></g></g><g fill="#393b24" fill-opacity="1"><g transform="translate(100.334813, 54.009421)"><g><path d="M 9.949219 -8.347656 C 9.894531 -8.859375 8.804688 -8.871094 8.414062 -8.871094 C 8.023438 -8.871094 6.945312 -8.816406 6.867188 -8.347656 C 6.773438 -7.820312 7.78125 -7.742188 7.78125 -6.730469 L 7.78125 -4.160156 C 6.773438 -5.398438 5.398438 -7 4.335938 -8.320312 C 4.050781 -8.683594 3.609375 -8.898438 3.148438 -8.898438 C 2.960938 -8.898438 2.761719 -8.898438 2.585938 -8.898438 C 2.222656 -8.898438 1.925781 -8.898438 1.925781 -8.898438 C 1.535156 -8.898438 0.351562 -8.871094 0.269531 -8.375 C 0.1875 -7.847656 1.199219 -7.742188 1.199219 -6.730469 L 1.199219 -2.128906 C 1.199219 -1.117188 0.1875 -1.007812 0.269531 -0.484375 C 0.351562 -0.0117188 1.425781 0.0390625 1.816406 0.0390625 C 2.222656 0.0390625 3.3125 0.0273438 3.351562 -0.484375 C 3.394531 -1.023438 2.449219 -1.078125 2.449219 -2.128906 C 2.449219 -2.53125 2.449219 -4.253906 2.449219 -5.492188 L 6.582031 -0.523438 C 6.878906 -0.175781 7.308594 0.0273438 7.753906 0.0273438 L 8.132812 0.0273438 C 8.238281 0.0390625 8.347656 0.0390625 8.414062 0.0390625 C 8.804688 0.0390625 9.316406 0.0273438 9.355469 -0.484375 C 9.410156 -1.023438 9.046875 -1.078125 9.046875 -2.128906 C 9.046875 -2.71875 9.046875 -6.140625 9.046875 -6.730469 C 9.046875 -7.78125 9.988281 -7.796875 9.949219 -8.347656 Z M 9.949219 -8.347656 "/></g></g></g><g fill="#393b24" fill-opacity="1"><g transform="translate(111.468698, 54.009421)"><g><path d="M 0.742188 -5.128906 C 1.640625 -5.167969 1.007812 -8.0625 2.4375 -8.0625 L 2.640625 -8.0625 C 3.191406 -8.0625 3.394531 -7.78125 3.394531 -6.730469 L 3.394531 -2.128906 C 3.394531 -1.117188 2.449219 -1.007812 2.53125 -0.472656 C 2.613281 -0.0117188 4.589844 0.0390625 4.980469 0.0390625 C 5.371094 0.0390625 7.351562 0.0273438 7.390625 -0.472656 C 7.445312 -1.023438 6.554688 -1.078125 6.554688 -2.128906 L 6.554688 -6.746094 C 6.554688 -7.699219 6.730469 -8.011719 7.1875 -8.0625 L 7.5 -8.0625 C 8.914062 -8.0625 8.28125 -5.167969 9.183594 -5.128906 C 9.773438 -5.101562 9.789062 -6.625 9.789062 -7.042969 C 9.789062 -7.472656 9.773438 -8.550781 9.289062 -8.75 C 9.007812 -8.871094 7.09375 -8.925781 5.144531 -8.925781 C 3.082031 -8.925781 0.96875 -8.859375 0.671875 -8.738281 C 0.1875 -8.535156 0.132812 -7.472656 0.132812 -7.042969 C 0.132812 -6.625 0.148438 -5.101562 0.742188 -5.128906 Z M 0.742188 -5.128906 "/></g></g></g><g fill="#393b24" fill-opacity="1"><g transform="translate(122.306402, 54.009421)"><g><path d="M 6.167969 -0.742188 C 6.097656 -0.726562 6.019531 -0.714844 5.949219 -0.714844 C 4.980469 -0.714844 4.171875 -2.207031 3.714844 -3.957031 C 3.246094 -5.75 3.042969 -7.820312 4.148438 -8.144531 C 4.242188 -8.171875 4.335938 -8.183594 4.429688 -8.183594 C 5.480469 -8.183594 6.300781 -6.433594 6.691406 -4.886719 C 7.148438 -3.082031 7.242188 -0.984375 6.167969 -0.742188 Z M 5.144531 -9.113281 C 2.464844 -9.113281 0.203125 -7.230469 0.203125 -4.429688 C 0.203125 -1.628906 2.464844 0.253906 5.144531 0.253906 C 7.835938 0.253906 10.097656 -1.640625 10.097656 -4.429688 C 10.097656 -7.214844 7.835938 -9.113281 5.144531 -9.113281 Z M 5.144531 -9.113281 "/></g></g></g><path fill="#d93022" d="M 15.625 30.683594 C 19.496094 29.105469 24.105469 30.710938 27.726562 34.40625 C 31.375 30.542969 36.105469 28.832031 40.058594 30.445312 C 45.792969 32.785156 47.730469 41.222656 44.386719 49.289062 C 41.078125 57.273438 33.832031 61.898438 28.125 59.722656 C 27.996094 59.785156 27.867188 59.84375 27.734375 59.898438 C 22 62.238281 14.640625 57.59375 11.296875 49.527344 C 7.953125 41.460938 9.890625 33.023438 15.625 30.683594 " fill-opacity="1" fill-rule="nonzero"/><path stroke-linecap="round" transform="matrix(-0.0207016, 0, 0, -0.020538, 71.853577, 83.917883)" fill="none" stroke-linejoin="round" d="M 2716.142336 2591.993088 C 2529.147713 2668.832454 2306.49014 2590.661712 2131.57186 2410.735868 C 1955.33273 2598.84016 1726.825679 2682.146206 1535.868506 2603.595071 C 1258.867389 2489.667396 1165.275732 2078.843059 1326.796818 1686.087385 C 1486.61967 1297.325836 1836.644922 1072.133236 2112.325188 1178.07266 C 2118.552053 1175.029517 2124.778917 1172.17657 2131.194474 1169.51382 C 2408.195591 1055.586145 2763.692936 1281.729727 2925.214023 1674.485401 C 3086.73511 2067.241075 2993.143452 2478.065413 2716.142336 2591.993088 Z M 2716.142336 2591.993088 " stroke="#24578f" stroke-width="30" stroke-opacity="1" stroke-miterlimit="10"/><g clip-path="url(#e061a6ec4f)"><path fill="#24578f" d="M 27.898438 35.246094 C 27.898438 35.246094 27.949219 34.953125 28.019531 34.429688 C 28.089844 33.910156 28.167969 33.167969 28.222656 32.269531 C 28.246094 31.820312 28.265625 31.332031 28.273438 30.816406 C 28.28125 30.300781 28.269531 29.753906 28.246094 29.1875 C 28.203125 28.058594 28.0625 26.851562 27.808594 25.652344 C 27.679688 25.050781 27.507812 24.457031 27.300781 23.878906 C 27.089844 23.304688 26.832031 22.746094 26.523438 22.226562 C 26.21875 21.710938 25.84375 21.242188 25.433594 20.847656 C 25.019531 20.453125 24.554688 20.140625 24.09375 19.914062 C 23.636719 19.695312 23.183594 19.5625 22.78125 19.484375 C 22.375 19.398438 22.015625 19.402344 21.730469 19.460938 C 21.441406 19.523438 21.230469 19.625 21.089844 19.71875 C 20.953125 19.816406 20.886719 19.882812 20.886719 19.882812 C 20.800781 19.972656 20.800781 20.113281 20.890625 20.199219 C 20.898438 20.203125 20.910156 20.214844 20.917969 20.21875 L 20.925781 20.226562 C 20.925781 20.226562 21.011719 20.28125 21.152344 20.351562 C 21.292969 20.414062 21.488281 20.496094 21.726562 20.554688 C 21.84375 20.589844 21.972656 20.605469 22.113281 20.632812 C 22.179688 20.640625 22.253906 20.652344 22.328125 20.660156 C 22.398438 20.671875 22.476562 20.683594 22.554688 20.695312 C 22.871094 20.75 23.214844 20.847656 23.5625 21.011719 C 23.910156 21.179688 24.265625 21.410156 24.597656 21.71875 C 24.925781 22.027344 25.234375 22.410156 25.511719 22.84375 C 25.785156 23.277344 26.027344 23.761719 26.234375 24.28125 C 26.441406 24.796875 26.609375 25.34375 26.757812 25.898438 C 27.054688 27.011719 27.230469 28.167969 27.351562 29.257812 C 27.472656 30.347656 27.53125 31.378906 27.554688 32.261719 C 27.582031 33.144531 27.582031 33.882812 27.574219 34.398438 C 27.566406 34.917969 27.550781 35.210938 27.550781 35.210938 C 27.546875 35.304688 27.621094 35.382812 27.71875 35.390625 C 27.808594 35.394531 27.882812 35.332031 27.898438 35.246094 " fill-opacity="1" fill-rule="nonzero"/></g><path fill="#77cb4a" d="M 37.128906 22.546875 C 36.386719 21.417969 31.152344 20.984375 29.214844 21.84375 C 27.308594 22.6875 26.648438 24.804688 27.394531 25.933594 C 28.132812 27.0625 30.46875 27.433594 31.902344 25.929688 C 33.683594 24.0625 37.871094 23.679688 37.128906 22.546875 " fill-opacity="1" fill-rule="nonzero"/><path stroke-linecap="round" transform="matrix(-0.0207016, 0, 0, -0.020538, 71.853577, 83.917883)" fill="none" stroke-linejoin="round" d="M 1677.38815 2988.172298 C 1713.239793 3043.139073 1966.088223 3064.250879 2059.679881 3022.407659 C 2151.761996 2981.325226 2183.651089 2878.238748 2147.610753 2823.271974 C 2111.947803 2768.305199 1999.109473 2750.236536 1929.859194 2823.46217 C 1843.815251 2914.376074 1641.536506 2933.015327 1677.38815 2988.172298 Z M 1677.38815 2988.172298 " stroke="#24578f" stroke-width="30" stroke-opacity="1" stroke-miterlimit="10"/><path stroke-linecap="round" transform="matrix(-0.0207016, 0, 0, -0.020538, 71.853577, 83.917883)" fill="none" stroke-linejoin="round" d="M 2263.656861 2401.986832 C 2263.656861 2401.986832 2516.882677 2628.510806 2713.689329 2498.606629 C 2713.689329 2498.606629 3053.525167 2333.516109 2860.30368 1725.267854 " stroke="#ffffff" stroke-width="30" stroke-opacity="1" stroke-miterlimit="10"/><path stroke-linecap="round" transform="matrix(-0.0207016, 0, 0, -0.020538, 71.853577, 83.917883)" fill="none" stroke-linejoin="round" d="M 2153.648924 1211.927629 C 2153.648924 1211.927629 2461.029591 1124.056868 2713.689329 1458.612428 " stroke="#ffffff" stroke-width="30" stroke-opacity="1" stroke-miterlimit="10"/><path stroke-linecap="round" transform="matrix(-0.0207016, 0, 0, -0.020538, 71.853577, 83.917883)" fill="none" stroke-linejoin="round" d="M 1646.819906 2575.2558 C 1646.819906 2575.2558 1950.238023 2565.365584 2091.94636 2358.62204 " stroke="#ffffff" stroke-width="30" stroke-opacity="1" stroke-miterlimit="10"/><path stroke-linecap="round" transform="matrix(-0.0207016, 0, 0, -0.020538, 71.853577, 83.917883)" fill="none" stroke-linejoin="round" d="M 2060.24596 2972.766385 C 2060.24596 2972.766385 2125.911074 2936.819256 2115.344274 2853.51321 " stroke="#ffffff" stroke-width="30" stroke-opacity="1" stroke-miterlimit="10"/><g fill="#393b24" fill-opacity="1"><g transform="translate(132.061461, 53.344293)"><g><path d="M 0.839844 -0.738281 C 0.554688 -0.738281 0.324219 -0.554688 0.324219 -0.324219 C 0.324219 -0.101562 0.554688 0.0859375 0.839844 0.0859375 C 1.121094 0.0859375 1.351562 -0.101562 1.351562 -0.324219 C 1.351562 -0.554688 1.121094 -0.738281 0.839844 -0.738281 Z M 0.839844 -0.738281 "/></g></g></g><g fill="#393b24" fill-opacity="1"><g transform="translate(133.935209, 53.344293)"><g><path d="M 2.035156 -0.777344 C 1.925781 -0.613281 1.769531 -0.503906 1.585938 -0.496094 C 1.167969 -0.496094 0.921875 -0.878906 0.902344 -1.261719 C 0.890625 -1.445312 0.9375 -1.746094 1.148438 -1.78125 C 1.164062 -1.785156 1.179688 -1.785156 1.191406 -1.785156 C 1.382812 -1.785156 1.304688 -1.550781 1.320312 -1.347656 C 1.34375 -1.113281 1.484375 -0.996094 1.714844 -0.996094 C 1.984375 -0.996094 2.148438 -1.15625 2.121094 -1.378906 C 2.105469 -1.53125 1.890625 -1.902344 1.207031 -1.902344 C 0.625 -1.902344 0.0585938 -1.574219 0.0585938 -0.929688 C 0.0585938 -0.355469 0.558594 0.0351562 1.152344 0.0351562 C 1.660156 0.0351562 2.101562 -0.253906 2.21875 -0.695312 C 2.238281 -0.769531 2.175781 -0.824219 2.113281 -0.824219 C 2.085938 -0.824219 2.054688 -0.808594 2.035156 -0.777344 Z M 2.035156 -0.777344 "/></g></g></g><g fill="#393b24" fill-opacity="1"><g transform="translate(136.475677, 53.344293)"><g><path d="M 1.417969 -0.207031 C 1.402344 -0.203125 1.390625 -0.203125 1.375 -0.203125 C 1.199219 -0.203125 1.050781 -0.488281 0.960938 -0.851562 C 0.867188 -1.238281 0.8125 -1.59375 1.003906 -1.640625 C 1.019531 -1.644531 1.035156 -1.644531 1.050781 -1.644531 C 1.246094 -1.644531 1.375 -1.3125 1.457031 -0.992188 C 1.554688 -0.617188 1.617188 -0.253906 1.417969 -0.207031 Z M 1.203125 -1.882812 C 0.578125 -1.882812 0.0585938 -1.5 0.0585938 -0.921875 C 0.0585938 -0.351562 0.578125 0.0351562 1.203125 0.0351562 C 1.824219 0.0351562 2.347656 -0.351562 2.347656 -0.921875 C 2.347656 -1.496094 1.824219 -1.882812 1.203125 -1.882812 Z M 1.203125 -1.882812 "/></g></g></g><g fill="#393b24" fill-opacity="1"><g transform="translate(139.142593, 53.344293)"><g><path d="M 3.660156 -0.597656 C 3.660156 -1.039062 3.660156 -1.101562 3.660156 -1.285156 C 3.660156 -1.644531 3.378906 -1.890625 2.964844 -1.890625 C 2.710938 -1.890625 2.5 -1.800781 2.382812 -1.554688 C 2.304688 -1.773438 2.082031 -1.894531 1.789062 -1.894531 C 1.523438 -1.894531 1.28125 -1.8125 1.148438 -1.558594 C 1.109375 -1.742188 1.082031 -1.929688 0.960938 -1.929688 C 0.929688 -1.929688 0.890625 -1.914062 0.839844 -1.882812 C 0.625 -1.726562 0.503906 -1.675781 0.183594 -1.570312 C 0.0273438 -1.519531 0.0546875 -1.378906 0.195312 -1.347656 C 0.285156 -1.332031 0.324219 -1.242188 0.324219 -0.988281 L 0.324219 -0.597656 C 0.324219 -0.308594 0.0585938 -0.28125 0.0820312 -0.128906 C 0.101562 0.00390625 0.648438 0.015625 0.757812 0.015625 C 0.871094 0.015625 1.402344 0.0117188 1.414062 -0.128906 C 1.429688 -0.289062 1.175781 -0.300781 1.175781 -0.597656 C 1.175781 -0.808594 1.175781 -0.964844 1.175781 -1.097656 C 1.183594 -1.308594 1.222656 -1.546875 1.378906 -1.546875 C 1.5625 -1.550781 1.550781 -1.242188 1.550781 -0.988281 L 1.550781 -0.597656 C 1.550781 -0.308594 1.589844 0.015625 1.984375 0.015625 C 2.097656 0.015625 2.644531 0.0117188 2.65625 -0.128906 C 2.667969 -0.289062 2.414062 -0.300781 2.414062 -0.597656 C 2.417969 -0.820312 2.417969 -0.960938 2.417969 -1.074219 C 2.421875 -1.292969 2.460938 -1.546875 2.621094 -1.546875 C 2.808594 -1.550781 2.792969 -1.242188 2.792969 -0.988281 L 2.792969 -0.597656 C 2.792969 -0.308594 2.832031 0.015625 3.226562 0.015625 C 3.335938 0.015625 3.886719 0.0117188 3.898438 -0.128906 C 3.914062 -0.289062 3.660156 -0.300781 3.660156 -0.597656 Z M 3.660156 -0.597656 "/></g></g></g></svg>