<svg xmlns="http://www.w3.org/2000/svg" xmlns:xlink="http://www.w3.org/1999/xlink" width="202" zoomAndPan="magnify" viewBox="0 0 151.5 82.499998" height="110" preserveAspectRatio="xMidYMid meet" version="1.0"><defs><g/><clipPath id="eb0067c241"><path d="M 14 17.257812 L 23 17.257812 L 23 35 L 14 35 Z M 14 17.257812 " clip-rule="nonzero"/></clipPath><clipPath id="6ecb07695a"><path d="M 146 52 L 150.796875 52 L 150.796875 56 L 146 56 Z M 146 52 " clip-rule="nonzero"/></clipPath></defs><g fill="#393b24" fill-opacity="1"><g transform="translate(43.258119, 41.923235)"><g><path d="M 7.796875 -3.140625 C 7.382812 -2.453125 6.945312 -1.671875 5.699219 -1.574219 C 3.839844 -1.574219 2.972656 -3.316406 2.960938 -4.976562 C 2.9375 -6.386719 3.542969 -7.132812 4.207031 -7.25 C 4.3125 -7.273438 4.40625 -7.273438 4.503906 -7.273438 C 5.167969 -7.273438 5.582031 -6.8125 5.59375 -5.878906 C 5.605469 -5 5.9375 -4.394531 6.882812 -4.394531 C 7.59375 -4.394531 8.222656 -4.871094 8.117188 -5.78125 C 8.046875 -6.433594 7.214844 -7.984375 4.585938 -7.984375 C 4.445312 -7.984375 4.289062 -7.984375 4.136719 -7.972656 C 1.941406 -7.84375 0.179688 -6.246094 0.179688 -3.898438 C 0.179688 -1.445312 2.097656 0.203125 4.382812 0.203125 C 6.339844 0.203125 8.035156 -1.007812 8.484375 -2.878906 L 8.484375 -2.890625 C 8.554688 -3.1875 8.367188 -3.363281 8.152344 -3.363281 C 8.023438 -3.363281 7.890625 -3.292969 7.796875 -3.140625 Z M 7.796875 -3.140625 "/></g></g></g><g fill="#393b24" fill-opacity="1"><g transform="translate(53.204322, 41.923235)"><g><path d="M 5.425781 -0.652344 C 5.367188 -0.640625 5.296875 -0.628906 5.238281 -0.628906 C 4.382812 -0.628906 3.671875 -1.941406 3.269531 -3.484375 C 2.855469 -5.058594 2.679688 -6.882812 3.648438 -7.167969 C 3.734375 -7.191406 3.816406 -7.203125 3.898438 -7.203125 C 4.824219 -7.203125 5.546875 -5.664062 5.890625 -4.300781 C 6.292969 -2.714844 6.375 -0.863281 5.425781 -0.652344 Z M 4.527344 -8.023438 C 2.167969 -8.023438 0.179688 -6.363281 0.179688 -3.898438 C 0.179688 -1.433594 2.167969 0.226562 4.527344 0.226562 C 6.894531 0.226562 8.886719 -1.445312 8.886719 -3.898438 C 8.886719 -6.351562 6.894531 -8.023438 4.527344 -8.023438 Z M 4.527344 -8.023438 "/></g></g></g><g fill="#393b24" fill-opacity="1"><g transform="translate(63.541189, 41.923235)"><g><path d="M 8.304688 -2.359375 C 8.234375 -3.460938 7.0625 -4.113281 6.234375 -4.550781 C 5.523438 -4.917969 4.347656 -5.558594 4.074219 -5.734375 C 3.589844 -6.019531 3.210938 -6.316406 3.28125 -6.824219 C 3.351562 -7.324219 3.839844 -7.476562 4.277344 -7.476562 C 4.800781 -7.464844 5.203125 -7.226562 5.378906 -6.707031 C 5.558594 -6.195312 5.757812 -5.285156 6.589844 -5.140625 C 6.671875 -5.128906 6.753906 -5.117188 6.835938 -5.117188 C 7.535156 -5.117188 7.820312 -5.757812 7.667969 -6.292969 C 7.441406 -7.074219 6.363281 -7.902344 4.527344 -8.023438 C 4.359375 -8.035156 4.195312 -8.035156 4.039062 -8.035156 C 1.992188 -8.035156 0.699219 -7.144531 0.507812 -6.019531 C 0.285156 -4.539062 1.648438 -3.78125 2.371094 -3.4375 C 2.855469 -3.199219 3.695312 -2.773438 3.910156 -2.667969 C 4.335938 -2.453125 5.59375 -2.003906 5.484375 -1.136719 C 5.4375 -0.746094 5.058594 -0.378906 4.359375 -0.378906 C 3.414062 -0.378906 2.808594 -0.828125 2.628906 -1.789062 C 2.476562 -2.605469 2.027344 -3.058594 1.351562 -3.058594 C 1.257812 -3.058594 1.160156 -3.046875 1.054688 -3.035156 C 0.355469 -2.925781 0.046875 -2.3125 0.226562 -1.660156 C 0.652344 -0.203125 3.105469 0.25 4.417969 0.25 C 6.730469 0.25 8.402344 -0.640625 8.304688 -2.359375 Z M 8.304688 -2.359375 "/></g></g></g><g fill="#393b24" fill-opacity="1"><g transform="translate(73.309807, 41.923235)"><g><path d="M 0.238281 -0.414062 C 0.308594 -0.0585938 2.523438 0.0234375 3.328125 0.0351562 L 3.339844 0.0351562 C 3.378906 0.0351562 7.074219 0.0351562 7.570312 -0.164062 C 7.984375 -0.355469 7.984375 -0.972656 7.984375 -1.351562 C 7.984375 -1.71875 8.023438 -2.511719 7.511719 -2.511719 C 6.894531 -2.511719 7.050781 -0.710938 5.804688 -0.710938 L 4.457031 -0.710938 C 4.027344 -0.746094 3.78125 -1.019531 3.78125 -1.871094 L 3.78125 -3.402344 L 3.804688 -3.402344 C 5.046875 -3.402344 4.761719 -2.191406 5.378906 -2.191406 C 5.839844 -2.191406 5.757812 -2.738281 5.757812 -3.117188 L 5.757812 -4.445312 C 5.757812 -4.824219 5.839844 -5.378906 5.378906 -5.378906 C 4.761719 -5.378906 5.046875 -4.160156 3.804688 -4.160156 L 3.78125 -4.160156 L 3.78125 -5.9375 C 3.78125 -6.835938 4.0625 -7.085938 4.539062 -7.097656 L 5.449219 -7.097656 C 6.695312 -7.097656 6.539062 -5.296875 7.15625 -5.296875 C 7.679688 -5.296875 7.628906 -6.089844 7.628906 -6.457031 C 7.628906 -6.835938 7.644531 -7.453125 7.214844 -7.644531 C 6.765625 -7.832031 4.679688 -7.84375 3.613281 -7.84375 C 3.390625 -7.84375 3.210938 -7.84375 3.105469 -7.84375 L 3.09375 -7.832031 C 2.394531 -7.832031 0.308594 -7.75 0.238281 -7.382812 C 0.164062 -6.917969 0.996094 -6.824219 0.996094 -5.9375 L 0.996094 -1.871094 C 0.996094 -0.984375 0.164062 -0.890625 0.238281 -0.414062 Z M 0.238281 -0.414062 "/></g></g></g><g fill="#393b24" fill-opacity="1"><g transform="translate(82.746953, 41.923235)"><g><path d="M 7.796875 -3.140625 C 7.382812 -2.453125 6.945312 -1.671875 5.699219 -1.574219 C 3.839844 -1.574219 2.972656 -3.316406 2.960938 -4.976562 C 2.9375 -6.386719 3.542969 -7.132812 4.207031 -7.25 C 4.3125 -7.273438 4.40625 -7.273438 4.503906 -7.273438 C 5.167969 -7.273438 5.582031 -6.8125 5.59375 -5.878906 C 5.605469 -5 5.9375 -4.394531 6.882812 -4.394531 C 7.59375 -4.394531 8.222656 -4.871094 8.117188 -5.78125 C 8.046875 -6.433594 7.214844 -7.984375 4.585938 -7.984375 C 4.445312 -7.984375 4.289062 -7.984375 4.136719 -7.972656 C 1.941406 -7.84375 0.179688 -6.246094 0.179688 -3.898438 C 0.179688 -1.445312 2.097656 0.203125 4.382812 0.203125 C 6.339844 0.203125 8.035156 -1.007812 8.484375 -2.878906 L 8.484375 -2.890625 C 8.554688 -3.1875 8.367188 -3.363281 8.152344 -3.363281 C 8.023438 -3.363281 7.890625 -3.292969 7.796875 -3.140625 Z M 7.796875 -3.140625 "/></g></g></g><g fill="#393b24" fill-opacity="1"><g transform="translate(92.693155, 41.923235)"><g><path d="M 0.238281 -0.414062 C 0.308594 0 2.050781 0.0351562 2.394531 0.0351562 C 2.738281 0.0351562 4.480469 0.0234375 4.527344 -0.414062 C 4.5625 -0.902344 3.78125 -0.949219 3.78125 -1.871094 L 3.78125 -3.613281 L 6.171875 -3.613281 L 6.171875 -1.871094 C 6.171875 -0.984375 5.332031 -0.890625 5.414062 -0.414062 C 5.484375 0 7.214844 0.0351562 7.558594 0.0351562 C 7.914062 0.0351562 9.65625 0.0234375 9.691406 -0.414062 C 9.738281 -0.902344 8.957031 -0.949219 8.957031 -1.871094 L 8.957031 -5.925781 C 8.957031 -6.835938 9.738281 -6.882812 9.691406 -7.371094 C 9.65625 -7.820312 7.914062 -7.832031 7.558594 -7.832031 C 7.214844 -7.832031 5.484375 -7.785156 5.414062 -7.371094 C 5.332031 -6.90625 6.171875 -6.8125 6.171875 -5.925781 L 6.171875 -4.359375 L 3.78125 -4.359375 L 3.78125 -5.925781 C 3.78125 -6.835938 4.5625 -6.882812 4.527344 -7.371094 C 4.480469 -7.820312 2.738281 -7.832031 2.394531 -7.832031 C 2.050781 -7.832031 0.308594 -7.785156 0.238281 -7.371094 C 0.164062 -6.90625 0.996094 -6.8125 0.996094 -5.925781 L 0.996094 -1.871094 C 0.996094 -0.984375 0.164062 -0.890625 0.238281 -0.414062 Z M 0.238281 -0.414062 "/></g></g></g><g fill="#393b24" fill-opacity="1"><g transform="translate(103.906058, 41.923235)"><g><path d="M 2.691406 -2.808594 C 3.023438 -3.625 3.507812 -4.8125 3.816406 -5.570312 L 3.957031 -5.238281 C 3.980469 -5.167969 4.015625 -5.105469 4.039062 -5.035156 L 5.023438 -2.808594 Z M 8.1875 -1.941406 C 8.082031 -2.179688 6.457031 -6.054688 6.457031 -6.054688 C 6.078125 -6.980469 5.9375 -7.914062 4.429688 -8.035156 C 4.382812 -8.035156 4.3125 -8.046875 4.230469 -8.046875 C 3.792969 -8.046875 3.023438 -7.960938 2.902344 -7.558594 C 2.832031 -7.289062 2.996094 -7.121094 3.234375 -6.753906 L 1.304688 -1.96875 C 0.9375 -1.042969 0.117188 -0.949219 0.117188 -0.449219 C 0.117188 -0.0703125 0.925781 0.0234375 1.269531 0.0351562 C 1.625 0.0351562 2.761719 0.0351562 2.808594 -0.425781 C 2.867188 -0.925781 1.980469 -0.996094 2.347656 -1.96875 L 2.382812 -2.0625 L 5.355469 -2.0625 L 5.402344 -1.941406 C 5.78125 -1.019531 4.941406 -0.851562 5.058594 -0.4375 C 5.179688 0.0234375 6.882812 0.0351562 7.347656 0.0351562 C 7.75 0.0351562 9.21875 0.0351562 9.335938 -0.4375 C 9.480469 -1.019531 8.578125 -0.984375 8.1875 -1.941406 Z M 8.1875 -1.941406 "/></g></g></g><g fill="#393b24" fill-opacity="1"><g transform="translate(115.901781, 41.720329)"><g><path d="M 3.839844 -6.617188 C 3.5 -6.65625 3.347656 -6.65625 2.988281 -6.65625 L 0.964844 -6.65625 L 0.964844 0 L 2.941406 0 C 3.296875 0 3.453125 0 3.789062 -0.0390625 C 5.332031 -0.230469 6.472656 -1.445312 6.472656 -3.40625 C 6.472656 -5.390625 5.382812 -6.421875 3.839844 -6.617188 Z M 3.703125 -0.722656 C 3.492188 -0.683594 3.242188 -0.675781 2.894531 -0.675781 L 1.792969 -0.675781 L 1.792969 -5.980469 L 2.941406 -5.980469 C 3.289062 -5.980469 3.539062 -5.96875 3.753906 -5.933594 C 4.878906 -5.75 5.566406 -4.878906 5.566406 -3.40625 C 5.566406 -1.832031 4.832031 -0.90625 3.703125 -0.722656 Z M 3.703125 -0.722656 "/></g></g></g><g fill="#393b24" fill-opacity="1"><g transform="translate(123.608428, 41.720329)"><g><path d="M 5.390625 -0.675781 L 1.792969 -0.675781 L 1.792969 -2.988281 L 5.007812 -2.988281 L 5.007812 -3.664062 L 1.792969 -3.664062 L 1.792969 -5.980469 L 5.296875 -5.980469 L 5.296875 -6.65625 L 0.964844 -6.65625 L 0.964844 0 L 5.390625 0 Z M 5.390625 -0.675781 "/></g></g></g><g fill="#393b24" fill-opacity="1"><g transform="translate(130.138344, 41.720329)"><g><path d="M 5.390625 -0.675781 L 1.792969 -0.675781 L 1.792969 -6.65625 L 0.964844 -6.65625 L 0.964844 0 L 5.390625 0 Z M 5.390625 -0.675781 "/></g></g></g><g fill="#393b24" fill-opacity="1"><g transform="translate(43.258119, 55.007777)"><g><path d="M 13.257812 -2.316406 C 13.167969 -2.945312 12.699219 -6.679688 12.613281 -7.324219 C 12.480469 -8.453125 13.433594 -8.511719 13.300781 -9.113281 C 13.183594 -9.667969 11.03125 -9.683594 10.605469 -9.683594 C 10.210938 -9.683594 9.140625 -9.640625 8.964844 -9.214844 L 8.949219 -9.214844 L 7.339844 -4.367188 L 5.550781 -9.257812 C 5.332031 -9.640625 4.234375 -9.667969 3.851562 -9.667969 C 3.429688 -9.667969 1.378906 -9.640625 1.214844 -9.125 C 1.054688 -8.554688 2.140625 -8.4375 2.007812 -7.339844 L 1.363281 -2.269531 C 1.230469 -1.1875 0.265625 -1.113281 0.292969 -0.542969 C 0.324219 -0.03125 1.464844 0.03125 1.890625 0.03125 C 2.316406 0.03125 3.515625 0.03125 3.632812 -0.511719 C 3.765625 -1.113281 2.503906 -1.144531 2.652344 -2.269531 C 2.710938 -2.726562 2.972656 -4.894531 3.148438 -6.269531 L 5.070312 -0.996094 C 5.199219 -0.617188 5.566406 -0.367188 5.976562 -0.367188 L 6.59375 -0.367188 C 7.015625 -0.367188 7.382812 -0.628906 7.515625 -1.027344 L 9.289062 -6.460938 L 9.816406 -2.316406 C 9.945312 -1.214844 8.9375 -1.097656 9.113281 -0.511719 C 9.257812 0 11.410156 0.0429688 11.835938 0.0429688 C 12.261719 0.0429688 14.414062 0.03125 14.398438 -0.511719 C 14.371094 -1.113281 13.402344 -1.171875 13.257812 -2.316406 Z M 13.257812 -2.316406 "/></g></g></g><g fill="#393b24" fill-opacity="1"><g transform="translate(58.946807, 55.007777)"><g><path d="M 6.710938 -0.804688 C 6.636719 -0.792969 6.546875 -0.777344 6.476562 -0.777344 C 5.421875 -0.777344 4.542969 -2.402344 4.042969 -4.308594 C 3.53125 -6.253906 3.3125 -8.511719 4.511719 -8.863281 C 4.613281 -8.890625 4.71875 -8.90625 4.820312 -8.90625 C 5.960938 -8.90625 6.855469 -7.003906 7.28125 -5.316406 C 7.777344 -3.355469 7.882812 -1.070312 6.710938 -0.804688 Z M 5.597656 -9.917969 C 2.679688 -9.917969 0.21875 -7.867188 0.21875 -4.820312 C 0.21875 -1.773438 2.679688 0.277344 5.597656 0.277344 C 8.527344 0.277344 10.988281 -1.789062 10.988281 -4.820312 C 10.988281 -7.851562 8.527344 -9.917969 5.597656 -9.917969 Z M 5.597656 -9.917969 "/></g></g></g><g fill="#393b24" fill-opacity="1"><g transform="translate(71.149138, 55.007777)"><g><path d="M 13.257812 -2.316406 C 13.167969 -2.945312 12.699219 -6.679688 12.613281 -7.324219 C 12.480469 -8.453125 13.433594 -8.511719 13.300781 -9.113281 C 13.183594 -9.667969 11.03125 -9.683594 10.605469 -9.683594 C 10.210938 -9.683594 9.140625 -9.640625 8.964844 -9.214844 L 8.949219 -9.214844 L 7.339844 -4.367188 L 5.550781 -9.257812 C 5.332031 -9.640625 4.234375 -9.667969 3.851562 -9.667969 C 3.429688 -9.667969 1.378906 -9.640625 1.214844 -9.125 C 1.054688 -8.554688 2.140625 -8.4375 2.007812 -7.339844 L 1.363281 -2.269531 C 1.230469 -1.1875 0.265625 -1.113281 0.292969 -0.542969 C 0.324219 -0.03125 1.464844 0.03125 1.890625 0.03125 C 2.316406 0.03125 3.515625 0.03125 3.632812 -0.511719 C 3.765625 -1.113281 2.503906 -1.144531 2.652344 -2.269531 C 2.710938 -2.726562 2.972656 -4.894531 3.148438 -6.269531 L 5.070312 -0.996094 C 5.199219 -0.617188 5.566406 -0.367188 5.976562 -0.367188 L 6.59375 -0.367188 C 7.015625 -0.367188 7.382812 -0.628906 7.515625 -1.027344 L 9.289062 -6.460938 L 9.816406 -2.316406 C 9.945312 -1.214844 8.9375 -1.097656 9.113281 -0.511719 C 9.257812 0 11.410156 0.0429688 11.835938 0.0429688 C 12.261719 0.0429688 14.414062 0.03125 14.398438 -0.511719 C 14.371094 -1.113281 13.402344 -1.171875 13.257812 -2.316406 Z M 13.257812 -2.316406 "/></g></g></g><g fill="#393b24" fill-opacity="1"><g transform="translate(86.837828, 55.007777)"><g><path d="M 0.292969 -0.511719 C 0.382812 -0.0742188 3.121094 0.03125 4.117188 0.0429688 L 4.132812 0.0429688 C 4.175781 0.0429688 8.746094 0.0429688 9.359375 -0.207031 C 9.875 -0.441406 9.875 -1.203125 9.875 -1.671875 C 9.875 -2.125 9.917969 -3.105469 9.289062 -3.105469 C 8.527344 -3.105469 8.714844 -0.878906 7.179688 -0.878906 L 5.507812 -0.878906 C 4.980469 -0.921875 4.671875 -1.261719 4.671875 -2.316406 L 4.671875 -4.203125 L 4.703125 -4.203125 C 6.242188 -4.203125 5.890625 -2.710938 6.652344 -2.710938 C 7.222656 -2.710938 7.121094 -3.382812 7.121094 -3.851562 L 7.121094 -5.492188 C 7.121094 -5.960938 7.222656 -6.652344 6.652344 -6.652344 C 5.890625 -6.652344 6.242188 -5.140625 4.703125 -5.140625 L 4.671875 -5.140625 L 4.671875 -7.339844 C 4.671875 -8.453125 5.023438 -8.761719 5.609375 -8.773438 L 6.738281 -8.773438 C 8.277344 -8.773438 8.085938 -6.546875 8.847656 -6.546875 C 9.492188 -6.546875 9.433594 -7.53125 9.433594 -7.984375 C 9.433594 -8.453125 9.449219 -9.214844 8.921875 -9.449219 C 8.363281 -9.683594 5.785156 -9.699219 4.46875 -9.699219 C 4.191406 -9.699219 3.96875 -9.699219 3.839844 -9.699219 L 3.824219 -9.683594 C 2.960938 -9.683594 0.382812 -9.582031 0.292969 -9.125 C 0.207031 -8.554688 1.230469 -8.4375 1.230469 -7.339844 L 1.230469 -2.316406 C 1.230469 -1.214844 0.207031 -1.097656 0.292969 -0.511719 Z M 0.292969 -0.511719 "/></g></g></g><g fill="#393b24" fill-opacity="1"><g transform="translate(97.926864, 55.007777)"><g><path d="M 10.824219 -9.082031 C 10.765625 -9.640625 9.582031 -9.652344 9.15625 -9.652344 C 8.730469 -9.652344 7.558594 -9.59375 7.472656 -9.082031 C 7.367188 -8.511719 8.46875 -8.421875 8.46875 -7.324219 L 8.46875 -4.527344 C 7.367188 -5.875 5.875 -7.617188 4.71875 -9.054688 C 4.410156 -9.449219 3.925781 -9.683594 3.429688 -9.683594 C 3.222656 -9.683594 3.003906 -9.683594 2.8125 -9.683594 C 2.417969 -9.683594 2.09375 -9.683594 2.09375 -9.683594 C 1.671875 -9.683594 0.382812 -9.652344 0.292969 -9.113281 C 0.207031 -8.539062 1.304688 -8.421875 1.304688 -7.324219 L 1.304688 -2.316406 C 1.304688 -1.214844 0.207031 -1.097656 0.292969 -0.527344 C 0.382812 -0.015625 1.554688 0.0429688 1.976562 0.0429688 C 2.417969 0.0429688 3.605469 0.03125 3.648438 -0.527344 C 3.691406 -1.113281 2.667969 -1.171875 2.667969 -2.316406 C 2.667969 -2.753906 2.667969 -4.628906 2.667969 -5.976562 L 7.164062 -0.570312 C 7.484375 -0.191406 7.953125 0.03125 8.4375 0.03125 L 8.847656 0.03125 C 8.964844 0.0429688 9.082031 0.0429688 9.15625 0.0429688 C 9.582031 0.0429688 10.136719 0.03125 10.179688 -0.527344 C 10.238281 -1.113281 9.84375 -1.171875 9.84375 -2.316406 C 9.84375 -2.960938 9.84375 -6.679688 9.84375 -7.324219 C 9.84375 -8.46875 10.871094 -8.480469 10.824219 -9.082031 Z M 10.824219 -9.082031 "/></g></g></g><g fill="#393b24" fill-opacity="1"><g transform="translate(110.0413, 55.007777)"><g><path d="M 0.804688 -5.582031 C 1.789062 -5.625 1.097656 -8.773438 2.652344 -8.773438 L 2.871094 -8.773438 C 3.472656 -8.773438 3.691406 -8.46875 3.691406 -7.324219 L 3.691406 -2.316406 C 3.691406 -1.214844 2.667969 -1.097656 2.753906 -0.511719 C 2.84375 -0.015625 4.996094 0.0429688 5.421875 0.0429688 C 5.84375 0.0429688 8 0.03125 8.042969 -0.511719 C 8.101562 -1.113281 7.132812 -1.171875 7.132812 -2.316406 L 7.132812 -7.339844 C 7.132812 -8.378906 7.324219 -8.714844 7.824219 -8.773438 L 8.160156 -8.773438 C 9.699219 -8.773438 9.007812 -5.625 9.992188 -5.582031 C 10.636719 -5.550781 10.648438 -7.207031 10.648438 -7.660156 C 10.648438 -8.128906 10.636719 -9.300781 10.109375 -9.523438 C 9.800781 -9.652344 7.71875 -9.710938 5.597656 -9.710938 C 3.355469 -9.710938 1.054688 -9.640625 0.734375 -9.507812 C 0.207031 -9.289062 0.148438 -8.128906 0.148438 -7.660156 C 0.148438 -7.207031 0.160156 -5.550781 0.804688 -5.582031 Z M 0.804688 -5.582031 "/></g></g></g><g fill="#393b24" fill-opacity="1"><g transform="translate(121.833469, 55.007777)"><g><path d="M 6.710938 -0.804688 C 6.636719 -0.792969 6.546875 -0.777344 6.476562 -0.777344 C 5.421875 -0.777344 4.542969 -2.402344 4.042969 -4.308594 C 3.53125 -6.253906 3.3125 -8.511719 4.511719 -8.863281 C 4.613281 -8.890625 4.71875 -8.90625 4.820312 -8.90625 C 5.960938 -8.90625 6.855469 -7.003906 7.28125 -5.316406 C 7.777344 -3.355469 7.882812 -1.070312 6.710938 -0.804688 Z M 5.597656 -9.917969 C 2.679688 -9.917969 0.21875 -7.867188 0.21875 -4.820312 C 0.21875 -1.773438 2.679688 0.277344 5.597656 0.277344 C 8.527344 0.277344 10.988281 -1.789062 10.988281 -4.820312 C 10.988281 -7.851562 8.527344 -9.917969 5.597656 -9.917969 Z M 5.597656 -9.917969 "/></g></g></g><path fill="#d93022" d="M 8.785156 29.628906 C 13 27.910156 18.015625 29.660156 21.953125 33.675781 C 25.925781 29.472656 31.070312 27.613281 35.375 29.367188 C 41.613281 31.914062 43.71875 41.09375 40.082031 49.871094 C 36.480469 58.558594 28.597656 63.59375 22.386719 61.222656 C 22.246094 61.289062 22.109375 61.355469 21.964844 61.414062 C 15.722656 63.960938 7.71875 58.910156 4.078125 50.128906 C 0.441406 41.351562 2.546875 32.175781 8.785156 29.628906 " fill-opacity="1" fill-rule="nonzero"/><path stroke-linecap="round" transform="matrix(-0.0225248, 0, 0, -0.0223467, 69.968229, 87.550243)" fill="none" stroke-linejoin="round" d="M 2716.253579 2591.937445 C 2529.133449 2668.85025 2306.46223 2590.539031 2131.654917 2410.84275 C 1955.286825 2598.929519 1726.892747 2682.135189 1535.783959 2603.649168 C 1258.832294 2489.678375 1165.35894 2078.894075 1326.812916 1686.114364 C 1486.706112 1297.355095 1836.667577 1072.035536 2112.405302 1178.140247 C 2118.648421 1175.168616 2124.718119 1172.196985 2131.134657 1169.574957 C 2408.259742 1055.604165 2763.597226 1281.62293 2925.224622 1674.577443 C 3086.678598 2067.357155 2993.205243 2477.966652 2716.253579 2591.937445 Z M 2716.253579 2591.937445 " stroke="#24578f" stroke-width="30" stroke-opacity="1" stroke-miterlimit="10"/><g clip-path="url(#eb0067c241)"><path fill="#24578f" d="M 22.140625 34.59375 C 22.140625 34.59375 22.199219 34.269531 22.273438 33.707031 C 22.351562 33.140625 22.4375 32.328125 22.492188 31.351562 C 22.523438 30.867188 22.542969 30.332031 22.550781 29.769531 C 22.558594 29.210938 22.546875 28.617188 22.519531 28 C 22.472656 26.773438 22.320312 25.457031 22.042969 24.152344 C 21.90625 23.5 21.71875 22.851562 21.492188 22.222656 C 21.261719 21.597656 20.980469 20.992188 20.648438 20.425781 C 20.316406 19.863281 19.90625 19.355469 19.457031 18.921875 C 19.007812 18.496094 18.503906 18.15625 18.003906 17.910156 C 17.503906 17.667969 17.011719 17.527344 16.574219 17.445312 C 16.132812 17.347656 15.742188 17.351562 15.429688 17.414062 C 15.117188 17.484375 14.886719 17.597656 14.734375 17.699219 C 14.585938 17.804688 14.511719 17.878906 14.511719 17.878906 C 14.417969 17.972656 14.417969 18.125 14.515625 18.21875 C 14.527344 18.226562 14.535156 18.234375 14.546875 18.242188 L 14.558594 18.25 C 14.558594 18.25 14.648438 18.3125 14.800781 18.386719 C 14.953125 18.453125 15.167969 18.542969 15.425781 18.605469 C 15.554688 18.644531 15.695312 18.660156 15.84375 18.691406 C 15.921875 18.703125 16 18.714844 16.078125 18.71875 C 16.160156 18.734375 16.242188 18.746094 16.328125 18.761719 C 16.671875 18.820312 17.042969 18.925781 17.425781 19.105469 C 17.804688 19.285156 18.1875 19.539062 18.546875 19.875 C 18.910156 20.210938 19.242188 20.625 19.542969 21.09375 C 19.84375 21.570312 20.105469 22.097656 20.332031 22.660156 C 20.554688 23.222656 20.738281 23.816406 20.902344 24.421875 C 21.222656 25.632812 21.414062 26.890625 21.550781 28.074219 C 21.675781 29.261719 21.742188 30.382812 21.769531 31.34375 C 21.800781 32.304688 21.796875 33.105469 21.789062 33.671875 C 21.78125 34.234375 21.765625 34.550781 21.765625 34.550781 C 21.761719 34.65625 21.839844 34.742188 21.945312 34.75 C 22.042969 34.753906 22.125 34.6875 22.140625 34.59375 " fill-opacity="1" fill-rule="nonzero"/></g><path fill="#77cb4a" d="M 32.1875 20.777344 C 31.378906 19.546875 25.683594 19.074219 23.574219 20.007812 C 21.5 20.925781 20.78125 23.230469 21.589844 24.460938 C 22.398438 25.6875 24.9375 26.09375 26.5 24.457031 C 28.4375 22.421875 32.992188 22.003906 32.1875 20.777344 " fill-opacity="1" fill-rule="nonzero"/><path stroke-linecap="round" transform="matrix(-0.0225248, 0, 0, -0.0223467, 69.968229, 87.550243)" fill="none" stroke-linejoin="round" d="M 1677.294641 2988.038391 C 1713.192571 3043.100968 1966.038862 3064.251989 2059.685637 3022.474352 C 2151.771632 2981.395922 2183.680903 2878.262842 2147.782973 2823.200266 C 2111.885043 2768.312491 1999.162073 2750.133101 1929.794092 2823.375068 C 1843.777795 2914.446821 1641.57013 2933.150617 1677.294641 2988.038391 Z M 1677.294641 2988.038391 " stroke="#24578f" stroke-width="30" stroke-opacity="1" stroke-miterlimit="10"/><path stroke-linecap="round" transform="matrix(-0.0225248, 0, 0, -0.0223467, 69.968229, 87.550243)" fill="none" stroke-linejoin="round" d="M 2263.627501 2401.927856 C 2263.627501 2401.927856 2516.820633 2628.64583 2713.652279 2498.593268 C 2713.652279 2498.593268 3053.555387 2333.580341 2860.365559 1725.269974 " stroke="#ffffff" stroke-width="30" stroke-opacity="1" stroke-miterlimit="10"/><path stroke-linecap="round" transform="matrix(-0.0225248, 0, 0, -0.0223467, 69.968229, 87.550243)" fill="none" stroke-linejoin="round" d="M 2153.679251 1211.877 C 2153.679251 1211.877 2460.979408 1124.126482 2713.652279 1458.522382 " stroke="#ffffff" stroke-width="30" stroke-opacity="1" stroke-miterlimit="10"/><path stroke-linecap="round" transform="matrix(-0.0225248, 0, 0, -0.0223467, 69.968229, 87.550243)" fill="none" stroke-linejoin="round" d="M 1646.946149 2575.331272 C 1646.946149 2575.331272 1950.257647 2565.367567 2091.941748 2358.577003 " stroke="#ffffff" stroke-width="30" stroke-opacity="1" stroke-miterlimit="10"/><path stroke-linecap="round" transform="matrix(-0.0225248, 0, 0, -0.0223467, 69.968229, 87.550243)" fill="none" stroke-linejoin="round" d="M 2060.379317 2972.830632 C 2060.379317 2972.830632 2125.932059 2936.821455 2115.353442 2853.615784 " stroke="#ffffff" stroke-width="30" stroke-opacity="1" stroke-miterlimit="10"/><g fill="#393b24" fill-opacity="1"><g transform="translate(132.565986, 54.3141)"><g><path d="M 1.015625 -0.894531 C 0.671875 -0.894531 0.394531 -0.671875 0.394531 -0.394531 C 0.394531 -0.121094 0.671875 0.101562 1.015625 0.101562 C 1.355469 0.101562 1.636719 -0.121094 1.636719 -0.394531 C 1.636719 -0.671875 1.355469 -0.894531 1.015625 -0.894531 Z M 1.015625 -0.894531 "/></g></g></g><g fill="#393b24" fill-opacity="1"><g transform="translate(134.761273, 54.3141)"><g><path d="M 0.046875 -1.992188 L 0.046875 -1.886719 C 0.046875 -1.835938 0.0898438 -1.792969 0.140625 -1.792969 L 0.359375 -1.792969 C 0.359375 -1.554688 0.355469 -0.789062 0.359375 -0.675781 C 0.367188 -0.203125 0.675781 0.0703125 1.191406 0.0703125 C 1.4375 0.0703125 1.703125 0.0078125 1.871094 -0.179688 C 1.929688 -0.253906 1.871094 -0.355469 1.78125 -0.355469 C 1.769531 -0.355469 1.761719 -0.355469 1.746094 -0.351562 C 1.726562 -0.34375 1.703125 -0.34375 1.679688 -0.34375 C 1.414062 -0.367188 1.453125 -0.726562 1.453125 -1.039062 L 1.453125 -1.792969 L 1.835938 -1.792969 C 1.886719 -1.792969 1.925781 -1.835938 1.925781 -1.886719 L 1.925781 -1.992188 C 1.925781 -2.042969 1.886719 -2.085938 1.835938 -2.085938 L 1.453125 -2.085938 L 1.453125 -2.871094 C 1.453125 -2.945312 1.394531 -2.988281 1.328125 -2.988281 C 1.292969 -2.988281 1.253906 -2.972656 1.226562 -2.9375 C 0.976562 -2.585938 0.574219 -2.113281 0.140625 -2.085938 C 0.0898438 -2.085938 0.046875 -2.042969 0.046875 -1.992188 Z M 0.046875 -1.992188 "/></g></g></g><g fill="#393b24" fill-opacity="1"><g transform="translate(136.979715, 54.3141)"><g><path d="M 1.714844 -0.25 C 1.695312 -0.246094 1.679688 -0.246094 1.664062 -0.246094 C 1.449219 -0.246094 1.269531 -0.589844 1.164062 -1.027344 C 1.046875 -1.496094 0.980469 -1.925781 1.214844 -1.980469 C 1.230469 -1.988281 1.25 -1.988281 1.269531 -1.988281 C 1.503906 -1.988281 1.664062 -1.589844 1.761719 -1.199219 C 1.878906 -0.746094 1.953125 -0.304688 1.714844 -0.25 Z M 1.453125 -2.273438 C 0.699219 -2.273438 0.0703125 -1.8125 0.0703125 -1.117188 C 0.0703125 -0.425781 0.699219 0.0429688 1.453125 0.0429688 C 2.203125 0.0429688 2.839844 -0.425781 2.839844 -1.117188 C 2.839844 -1.804688 2.203125 -2.273438 1.453125 -2.273438 Z M 1.453125 -2.273438 "/></g></g></g><g fill="#393b24" fill-opacity="1"><g transform="translate(140.133707, 54.3141)"><g><path d="M 1.621094 -0.582031 C 1.605469 -0.578125 1.597656 -0.578125 1.582031 -0.578125 C 1.421875 -0.578125 1.265625 -0.828125 1.179688 -1.164062 C 1.09375 -1.519531 1.121094 -1.835938 1.300781 -1.875 C 1.316406 -1.878906 1.328125 -1.878906 1.34375 -1.878906 C 1.503906 -1.878906 1.652344 -1.628906 1.738281 -1.300781 C 1.828125 -0.945312 1.796875 -0.628906 1.621094 -0.582031 Z M 2.789062 -0.722656 C 2.789062 -1.253906 2.785156 -2.414062 2.789062 -2.636719 C 2.796875 -2.890625 2.828125 -3.21875 2.652344 -3.21875 C 2.613281 -3.21875 2.566406 -3.199219 2.503906 -3.167969 C 2.160156 -2.96875 1.953125 -2.917969 1.570312 -2.792969 C 1.378906 -2.734375 1.40625 -2.554688 1.578125 -2.523438 C 1.691406 -2.5 1.742188 -2.390625 1.742188 -2.085938 L 1.742188 -1.875 C 1.636719 -2.070312 1.441406 -2.253906 1.113281 -2.273438 C 1.089844 -2.273438 1.070312 -2.277344 1.046875 -2.277344 C 0.558594 -2.277344 0.0195312 -1.878906 0.0742188 -1.113281 C 0.121094 -0.484375 0.484375 0.046875 1.15625 0.046875 C 1.515625 0.0234375 1.667969 -0.191406 1.761719 -0.398438 C 1.804688 -0.167969 1.925781 0.0195312 2.265625 0.0195312 C 2.398438 0.0195312 3.0625 0.015625 3.074219 -0.15625 C 3.089844 -0.347656 2.789062 -0.367188 2.789062 -0.722656 Z M 2.789062 -0.722656 "/></g></g></g><g fill="#393b24" fill-opacity="1"><g transform="translate(143.547054, 54.3141)"><g><path d="M 2.753906 -0.722656 C 2.722656 -1.066406 2.726562 -1.066406 2.710938 -1.289062 C 2.644531 -2.117188 2.09375 -2.328125 1.5 -2.328125 C 1.191406 -2.328125 0.679688 -2.289062 0.46875 -2.03125 C 0.296875 -1.824219 0.445312 -1.550781 0.675781 -1.550781 C 0.683594 -1.550781 0.691406 -1.550781 0.695312 -1.550781 C 1.105469 -1.574219 1.03125 -2.054688 1.363281 -2.0625 C 1.46875 -2.0625 1.542969 -2.023438 1.601562 -1.9375 C 1.691406 -1.765625 1.605469 -1.5625 1.230469 -1.46875 C 0.644531 -1.324219 0.0976562 -1.207031 0.0703125 -0.671875 C 0.046875 -0.226562 0.46875 0.0429688 0.976562 0.0429688 C 1.015625 0.0429688 1.054688 0.0429688 1.097656 0.0351562 C 1.519531 0.00390625 1.703125 -0.351562 1.453125 -0.359375 C 1.21875 -0.371094 1.128906 -0.558594 1.113281 -0.664062 C 1.078125 -0.832031 1.117188 -1.015625 1.316406 -1.148438 C 1.480469 -1.265625 1.628906 -1.296875 1.699219 -1.445312 L 1.707031 -0.722656 C 1.707031 -0.375 1.753906 0.0195312 2.230469 0.0195312 C 2.367188 0.0195312 3.027344 0.015625 3.042969 -0.15625 C 3.058594 -0.347656 2.753906 -0.367188 2.753906 -0.722656 Z M 2.753906 -0.722656 "/></g></g></g><g clip-path="url(#6ecb07695a)"><g fill="#393b24" fill-opacity="1"><g transform="translate(146.904825, 54.3141)"><g><path d="M 2.660156 -2.289062 C 2.511719 -2.289062 2.140625 -2.285156 2.117188 -2.105469 C 2.089844 -1.914062 2.445312 -1.894531 2.285156 -1.519531 C 2.242188 -1.421875 2.089844 -0.964844 1.9375 -0.613281 L 1.5625 -1.519531 C 1.402344 -1.878906 1.730469 -1.945312 1.675781 -2.105469 C 1.621094 -2.292969 0.949219 -2.292969 0.777344 -2.292969 C 0.644531 -2.292969 0.0898438 -2.292969 0.0507812 -2.105469 C 0.00390625 -1.878906 0.292969 -1.863281 0.46875 -1.511719 C 0.53125 -1.371094 1.613281 0.570312 1.148438 0.683594 C 1.140625 0.691406 1.132812 0.691406 1.125 0.691406 C 0.875 0.695312 0.945312 0.0585938 0.5 0.0585938 C 0.484375 0.0585938 0.46875 0.0664062 0.449219 0.0664062 C 0.140625 0.101562 0.0585938 0.402344 0.179688 0.601562 C 0.347656 0.890625 0.664062 0.980469 0.976562 0.980469 C 1.582031 0.96875 1.878906 0.320312 2.320312 -0.753906 L 2.648438 -1.519531 C 2.800781 -1.875 3.121094 -1.90625 3.125 -2.101562 C 3.128906 -2.265625 2.769531 -2.289062 2.660156 -2.289062 Z M 2.660156 -2.289062 "/></g></g></g></g></svg>