<svg xmlns="http://www.w3.org/2000/svg" xmlns:xlink="http://www.w3.org/1999/xlink" width="202" zoomAndPan="magnify" viewBox="0 0 151.5 157.499993" height="210" preserveAspectRatio="xMidYMid meet" version="1.0"><defs><g/><clipPath id="e45a3015fb"><path d="M 14 46.027344 L 23 46.027344 L 23 65 L 14 65 Z M 14 46.027344 " clip-rule="nonzero"/></clipPath></defs><g fill="#393b24" fill-opacity="1"><g transform="translate(43.258677, 71.193051)"><g><path d="M 7.953125 -3.203125 C 7.53125 -2.503906 7.085938 -1.703125 5.816406 -1.609375 C 3.917969 -1.609375 3.035156 -3.386719 3.023438 -5.078125 C 3 -6.515625 3.613281 -7.277344 4.292969 -7.398438 C 4.402344 -7.421875 4.496094 -7.421875 4.59375 -7.421875 C 5.269531 -7.421875 5.695312 -6.953125 5.707031 -5.996094 C 5.71875 -5.101562 6.058594 -4.484375 7.023438 -4.484375 C 7.75 -4.484375 8.390625 -4.96875 8.28125 -5.898438 C 8.207031 -6.566406 7.363281 -8.148438 4.679688 -8.148438 C 4.535156 -8.148438 4.375 -8.148438 4.21875 -8.136719 C 1.984375 -8.003906 0.179688 -6.371094 0.179688 -3.976562 C 0.179688 -1.476562 2.140625 0.207031 4.472656 0.207031 C 6.46875 0.207031 8.195312 -1.027344 8.65625 -2.9375 L 8.65625 -2.949219 C 8.730469 -3.253906 8.535156 -3.433594 8.316406 -3.433594 C 8.183594 -3.433594 8.050781 -3.359375 7.953125 -3.203125 Z M 7.953125 -3.203125 "/></g></g></g><g fill="#393b24" fill-opacity="1"><g transform="translate(53.406605, 71.193051)"><g><path d="M 5.535156 -0.664062 C 5.476562 -0.652344 5.402344 -0.640625 5.34375 -0.640625 C 4.472656 -0.640625 3.746094 -1.984375 3.335938 -3.554688 C 2.914062 -5.164062 2.730469 -7.023438 3.722656 -7.3125 C 3.808594 -7.339844 3.894531 -7.351562 3.976562 -7.351562 C 4.921875 -7.351562 5.65625 -5.777344 6.007812 -4.386719 C 6.417969 -2.769531 6.503906 -0.882812 5.535156 -0.664062 Z M 4.617188 -8.183594 C 2.210938 -8.183594 0.179688 -6.492188 0.179688 -3.976562 C 0.179688 -1.460938 2.210938 0.230469 4.617188 0.230469 C 7.035156 0.230469 9.066406 -1.476562 9.066406 -3.976562 C 9.066406 -6.480469 7.035156 -8.183594 4.617188 -8.183594 Z M 4.617188 -8.183594 "/></g></g></g><g fill="#393b24" fill-opacity="1"><g transform="translate(63.953121, 71.193051)"><g><path d="M 8.476562 -2.40625 C 8.402344 -3.53125 7.207031 -4.195312 6.359375 -4.640625 C 5.632812 -5.015625 4.4375 -5.671875 4.160156 -5.851562 C 3.664062 -6.140625 3.277344 -6.445312 3.347656 -6.964844 C 3.421875 -7.472656 3.917969 -7.628906 4.363281 -7.628906 C 4.894531 -7.617188 5.308594 -7.375 5.488281 -6.84375 C 5.671875 -6.324219 5.875 -5.390625 6.722656 -5.246094 C 6.804688 -5.234375 6.890625 -5.222656 6.976562 -5.222656 C 7.6875 -5.222656 7.980469 -5.875 7.820312 -6.417969 C 7.59375 -7.21875 6.492188 -8.0625 4.617188 -8.183594 C 4.449219 -8.195312 4.28125 -8.195312 4.121094 -8.195312 C 2.03125 -8.195312 0.714844 -7.289062 0.519531 -6.140625 C 0.289062 -4.628906 1.679688 -3.855469 2.417969 -3.507812 C 2.914062 -3.265625 3.773438 -2.828125 3.988281 -2.71875 C 4.425781 -2.503906 5.707031 -2.042969 5.597656 -1.160156 C 5.550781 -0.761719 5.164062 -0.386719 4.449219 -0.386719 C 3.480469 -0.386719 2.863281 -0.847656 2.683594 -1.824219 C 2.527344 -2.660156 2.066406 -3.117188 1.378906 -3.117188 C 1.28125 -3.117188 1.183594 -3.105469 1.074219 -3.09375 C 0.363281 -2.984375 0.046875 -2.359375 0.230469 -1.691406 C 0.664062 -0.207031 3.167969 0.253906 4.507812 0.253906 C 6.867188 0.253906 8.570312 -0.652344 8.476562 -2.40625 Z M 8.476562 -2.40625 "/></g></g></g><g fill="#393b24" fill-opacity="1"><g transform="translate(73.919863, 71.193051)"><g><path d="M 0.242188 -0.421875 C 0.3125 -0.0585938 2.574219 0.0234375 3.398438 0.0351562 L 3.410156 0.0351562 C 3.445312 0.0351562 7.21875 0.0351562 7.726562 -0.167969 C 8.148438 -0.363281 8.148438 -0.992188 8.148438 -1.378906 C 8.148438 -1.753906 8.183594 -2.5625 7.664062 -2.5625 C 7.035156 -2.5625 7.191406 -0.726562 5.921875 -0.726562 L 4.546875 -0.726562 C 4.109375 -0.761719 3.855469 -1.039062 3.855469 -1.910156 L 3.855469 -3.46875 L 3.878906 -3.46875 C 5.148438 -3.46875 4.859375 -2.238281 5.488281 -2.238281 C 5.960938 -2.238281 5.875 -2.792969 5.875 -3.179688 L 5.875 -4.535156 C 5.875 -4.921875 5.960938 -5.488281 5.488281 -5.488281 C 4.859375 -5.488281 5.148438 -4.242188 3.878906 -4.242188 L 3.855469 -4.242188 L 3.855469 -6.058594 C 3.855469 -6.976562 4.148438 -7.230469 4.628906 -7.242188 L 5.5625 -7.242188 C 6.832031 -7.242188 6.671875 -5.402344 7.300781 -5.402344 C 7.832031 -5.402344 7.785156 -6.214844 7.785156 -6.589844 C 7.785156 -6.976562 7.796875 -7.605469 7.363281 -7.796875 C 6.902344 -7.992188 4.773438 -8.003906 3.6875 -8.003906 C 3.457031 -8.003906 3.277344 -8.003906 3.167969 -8.003906 L 3.15625 -7.992188 C 2.441406 -7.992188 0.3125 -7.90625 0.242188 -7.53125 C 0.167969 -7.058594 1.015625 -6.964844 1.015625 -6.058594 L 1.015625 -1.910156 C 1.015625 -1.003906 0.167969 -0.90625 0.242188 -0.421875 Z M 0.242188 -0.421875 "/></g></g></g><g fill="#393b24" fill-opacity="1"><g transform="translate(83.54841, 71.193051)"><g><path d="M 7.953125 -3.203125 C 7.53125 -2.503906 7.085938 -1.703125 5.816406 -1.609375 C 3.917969 -1.609375 3.035156 -3.386719 3.023438 -5.078125 C 3 -6.515625 3.613281 -7.277344 4.292969 -7.398438 C 4.402344 -7.421875 4.496094 -7.421875 4.59375 -7.421875 C 5.269531 -7.421875 5.695312 -6.953125 5.707031 -5.996094 C 5.71875 -5.101562 6.058594 -4.484375 7.023438 -4.484375 C 7.75 -4.484375 8.390625 -4.96875 8.28125 -5.898438 C 8.207031 -6.566406 7.363281 -8.148438 4.679688 -8.148438 C 4.535156 -8.148438 4.375 -8.148438 4.21875 -8.136719 C 1.984375 -8.003906 0.179688 -6.371094 0.179688 -3.976562 C 0.179688 -1.476562 2.140625 0.207031 4.472656 0.207031 C 6.46875 0.207031 8.195312 -1.027344 8.65625 -2.9375 L 8.65625 -2.949219 C 8.730469 -3.253906 8.535156 -3.433594 8.316406 -3.433594 C 8.183594 -3.433594 8.050781 -3.359375 7.953125 -3.203125 Z M 7.953125 -3.203125 "/></g></g></g><g fill="#393b24" fill-opacity="1"><g transform="translate(93.696337, 71.193051)"><g><path d="M 0.242188 -0.421875 C 0.3125 0 2.089844 0.0351562 2.441406 0.0351562 C 2.792969 0.0351562 4.570312 0.0234375 4.617188 -0.421875 C 4.65625 -0.917969 3.855469 -0.96875 3.855469 -1.910156 L 3.855469 -3.6875 L 6.296875 -3.6875 L 6.296875 -1.910156 C 6.296875 -1.003906 5.441406 -0.90625 5.523438 -0.421875 C 5.597656 0 7.363281 0.0351562 7.714844 0.0351562 C 8.074219 0.0351562 9.851562 0.0234375 9.890625 -0.421875 C 9.9375 -0.917969 9.140625 -0.96875 9.140625 -1.910156 L 9.140625 -6.042969 C 9.140625 -6.976562 9.9375 -7.023438 9.890625 -7.519531 C 9.851562 -7.980469 8.074219 -7.992188 7.714844 -7.992188 C 7.363281 -7.992188 5.597656 -7.941406 5.523438 -7.519531 C 5.441406 -7.046875 6.296875 -6.953125 6.296875 -6.042969 L 6.296875 -4.449219 L 3.855469 -4.449219 L 3.855469 -6.042969 C 3.855469 -6.976562 4.65625 -7.023438 4.617188 -7.519531 C 4.570312 -7.980469 2.792969 -7.992188 2.441406 -7.992188 C 2.089844 -7.992188 0.3125 -7.941406 0.242188 -7.519531 C 0.167969 -7.046875 1.015625 -6.953125 1.015625 -6.042969 L 1.015625 -1.910156 C 1.015625 -1.003906 0.167969 -0.90625 0.242188 -0.421875 Z M 0.242188 -0.421875 "/></g></g></g><g fill="#393b24" fill-opacity="1"><g transform="translate(105.136657, 71.193051)"><g><path d="M 2.746094 -2.863281 C 3.082031 -3.699219 3.578125 -4.910156 3.894531 -5.683594 L 4.039062 -5.34375 C 4.0625 -5.269531 4.097656 -5.210938 4.121094 -5.136719 L 5.125 -2.863281 Z M 8.355469 -1.984375 C 8.246094 -2.222656 6.589844 -6.175781 6.589844 -6.175781 C 6.203125 -7.121094 6.058594 -8.074219 4.519531 -8.195312 C 4.472656 -8.195312 4.402344 -8.207031 4.316406 -8.207031 C 3.867188 -8.207031 3.082031 -8.125 2.960938 -7.714844 C 2.890625 -7.433594 3.058594 -7.265625 3.300781 -6.890625 L 1.328125 -2.007812 C 0.953125 -1.0625 0.121094 -0.96875 0.121094 -0.460938 C 0.121094 -0.0742188 0.941406 0.0234375 1.292969 0.0351562 C 1.65625 0.0351562 2.816406 0.0351562 2.863281 -0.433594 C 2.925781 -0.941406 2.019531 -1.015625 2.394531 -2.007812 L 2.429688 -2.105469 L 5.464844 -2.105469 L 5.511719 -1.984375 C 5.898438 -1.039062 5.042969 -0.871094 5.164062 -0.449219 C 5.28125 0.0234375 7.023438 0.0351562 7.496094 0.0351562 C 7.90625 0.0351562 9.40625 0.0351562 9.527344 -0.449219 C 9.671875 -1.039062 8.753906 -1.003906 8.355469 -1.984375 Z M 8.355469 -1.984375 "/></g></g></g><g fill="#393b24" fill-opacity="1"><g transform="translate(117.375673, 70.986019)"><g><path d="M 3.917969 -6.75 C 3.570312 -6.789062 3.414062 -6.789062 3.050781 -6.789062 L 0.984375 -6.789062 L 0.984375 0 L 3 0 C 3.367188 0 3.523438 0 3.867188 -0.0390625 C 5.441406 -0.234375 6.601562 -1.476562 6.601562 -3.472656 C 6.601562 -5.5 5.492188 -6.554688 3.917969 -6.75 Z M 3.777344 -0.738281 C 3.5625 -0.699219 3.304688 -0.6875 2.953125 -0.6875 L 1.832031 -0.6875 L 1.832031 -6.101562 L 3 -6.101562 C 3.355469 -6.101562 3.613281 -6.089844 3.828125 -6.050781 C 4.980469 -5.863281 5.679688 -4.980469 5.679688 -3.472656 C 5.679688 -1.871094 4.929688 -0.925781 3.777344 -0.738281 Z M 3.777344 -0.738281 "/></g></g></g><g fill="#393b24" fill-opacity="1"><g transform="translate(125.238625, 70.986019)"><g><path d="M 5.5 -0.6875 L 1.832031 -0.6875 L 1.832031 -3.050781 L 5.109375 -3.050781 L 5.109375 -3.738281 L 1.832031 -3.738281 L 1.832031 -6.101562 L 5.402344 -6.101562 L 5.402344 -6.789062 L 0.984375 -6.789062 L 0.984375 0 L 5.5 0 Z M 5.5 -0.6875 "/></g></g></g><g fill="#393b24" fill-opacity="1"><g transform="translate(131.900979, 70.986019)"><g><path d="M 5.5 -0.6875 L 1.832031 -0.6875 L 1.832031 -6.789062 L 0.984375 -6.789062 L 0.984375 0 L 5.5 0 Z M 5.5 -0.6875 "/></g></g></g><g fill="#393b24" fill-opacity="1"><g transform="translate(43.258677, 84.542972)"><g><path d="M 13.527344 -2.363281 C 13.4375 -3.003906 12.957031 -6.816406 12.867188 -7.472656 C 12.734375 -8.625 13.707031 -8.683594 13.570312 -9.296875 C 13.449219 -9.863281 11.253906 -9.878906 10.820312 -9.878906 C 10.417969 -9.878906 9.324219 -9.835938 9.148438 -9.402344 L 9.132812 -9.402344 L 7.488281 -4.453125 L 5.664062 -9.445312 C 5.441406 -9.835938 4.320312 -9.863281 3.929688 -9.863281 C 3.496094 -9.863281 1.40625 -9.835938 1.242188 -9.3125 C 1.074219 -8.726562 2.183594 -8.609375 2.046875 -7.488281 L 1.390625 -2.316406 C 1.253906 -1.210938 0.269531 -1.136719 0.300781 -0.554688 C 0.328125 -0.03125 1.496094 0.03125 1.929688 0.03125 C 2.363281 0.03125 3.585938 0.03125 3.707031 -0.523438 C 3.839844 -1.136719 2.554688 -1.164062 2.707031 -2.316406 C 2.765625 -2.78125 3.035156 -4.992188 3.214844 -6.398438 L 5.171875 -1.015625 C 5.304688 -0.628906 5.679688 -0.375 6.097656 -0.375 L 6.726562 -0.375 C 7.160156 -0.375 7.53125 -0.644531 7.667969 -1.046875 L 9.476562 -6.589844 L 10.011719 -2.363281 C 10.148438 -1.242188 9.117188 -1.121094 9.296875 -0.523438 C 9.445312 0 11.644531 0.0429688 12.074219 0.0429688 C 12.507812 0.0429688 14.707031 0.03125 14.691406 -0.523438 C 14.660156 -1.136719 13.675781 -1.195312 13.527344 -2.363281 Z M 13.527344 -2.363281 "/></g></g></g><g fill="#393b24" fill-opacity="1"><g transform="translate(59.265558, 84.542972)"><g><path d="M 6.84375 -0.820312 C 6.769531 -0.808594 6.679688 -0.792969 6.605469 -0.792969 C 5.53125 -0.792969 4.632812 -2.449219 4.125 -4.394531 C 3.601562 -6.382812 3.378906 -8.683594 4.601562 -9.042969 C 4.707031 -9.070312 4.8125 -9.085938 4.917969 -9.085938 C 6.082031 -9.085938 6.996094 -7.144531 7.429688 -5.425781 C 7.9375 -3.421875 8.039062 -1.089844 6.84375 -0.820312 Z M 5.710938 -10.117188 C 2.734375 -10.117188 0.222656 -8.027344 0.222656 -4.917969 C 0.222656 -1.808594 2.734375 0.285156 5.710938 0.285156 C 8.699219 0.285156 11.210938 -1.824219 11.210938 -4.917969 C 11.210938 -8.011719 8.699219 -10.117188 5.710938 -10.117188 Z M 5.710938 -10.117188 "/></g></g></g><g fill="#393b24" fill-opacity="1"><g transform="translate(71.715372, 84.542972)"><g><path d="M 13.527344 -2.363281 C 13.4375 -3.003906 12.957031 -6.816406 12.867188 -7.472656 C 12.734375 -8.625 13.707031 -8.683594 13.570312 -9.296875 C 13.449219 -9.863281 11.253906 -9.878906 10.820312 -9.878906 C 10.417969 -9.878906 9.324219 -9.835938 9.148438 -9.402344 L 9.132812 -9.402344 L 7.488281 -4.453125 L 5.664062 -9.445312 C 5.441406 -9.835938 4.320312 -9.863281 3.929688 -9.863281 C 3.496094 -9.863281 1.40625 -9.835938 1.242188 -9.3125 C 1.074219 -8.726562 2.183594 -8.609375 2.046875 -7.488281 L 1.390625 -2.316406 C 1.253906 -1.210938 0.269531 -1.136719 0.300781 -0.554688 C 0.328125 -0.03125 1.496094 0.03125 1.929688 0.03125 C 2.363281 0.03125 3.585938 0.03125 3.707031 -0.523438 C 3.839844 -1.136719 2.554688 -1.164062 2.707031 -2.316406 C 2.765625 -2.78125 3.035156 -4.992188 3.214844 -6.398438 L 5.171875 -1.015625 C 5.304688 -0.628906 5.679688 -0.375 6.097656 -0.375 L 6.726562 -0.375 C 7.160156 -0.375 7.53125 -0.644531 7.667969 -1.046875 L 9.476562 -6.589844 L 10.011719 -2.363281 C 10.148438 -1.242188 9.117188 -1.121094 9.296875 -0.523438 C 9.445312 0 11.644531 0.0429688 12.074219 0.0429688 C 12.507812 0.0429688 14.707031 0.03125 14.691406 -0.523438 C 14.660156 -1.136719 13.675781 -1.195312 13.527344 -2.363281 Z M 13.527344 -2.363281 "/></g></g></g><g fill="#393b24" fill-opacity="1"><g transform="translate(87.722255, 84.542972)"><g><path d="M 0.300781 -0.523438 C 0.386719 -0.0742188 3.183594 0.03125 4.199219 0.0429688 L 4.214844 0.0429688 C 4.257812 0.0429688 8.921875 0.0429688 9.550781 -0.210938 C 10.074219 -0.449219 10.074219 -1.226562 10.074219 -1.703125 C 10.074219 -2.167969 10.117188 -3.167969 9.476562 -3.167969 C 8.699219 -3.167969 8.894531 -0.898438 7.324219 -0.898438 L 5.621094 -0.898438 C 5.082031 -0.941406 4.769531 -1.285156 4.769531 -2.363281 L 4.769531 -4.289062 L 4.796875 -4.289062 C 6.367188 -4.289062 6.007812 -2.765625 6.785156 -2.765625 C 7.367188 -2.765625 7.261719 -3.453125 7.261719 -3.929688 L 7.261719 -5.605469 C 7.261719 -6.082031 7.367188 -6.785156 6.785156 -6.785156 C 6.007812 -6.785156 6.367188 -5.246094 4.796875 -5.246094 L 4.769531 -5.246094 L 4.769531 -7.488281 C 4.769531 -8.625 5.125 -8.9375 5.722656 -8.953125 L 6.875 -8.953125 C 8.445312 -8.953125 8.25 -6.679688 9.027344 -6.679688 C 9.683594 -6.679688 9.625 -7.683594 9.625 -8.144531 C 9.625 -8.625 9.640625 -9.402344 9.101562 -9.640625 C 8.535156 -9.878906 5.902344 -9.894531 4.558594 -9.894531 C 4.273438 -9.894531 4.050781 -9.894531 3.914062 -9.894531 L 3.902344 -9.878906 C 3.019531 -9.878906 0.386719 -9.773438 0.300781 -9.3125 C 0.210938 -8.726562 1.253906 -8.609375 1.253906 -7.488281 L 1.253906 -2.363281 C 1.253906 -1.242188 0.210938 -1.121094 0.300781 -0.523438 Z M 0.300781 -0.523438 "/></g></g></g><g fill="#393b24" fill-opacity="1"><g transform="translate(99.036195, 84.542972)"><g><path d="M 11.042969 -9.265625 C 10.984375 -9.835938 9.773438 -9.847656 9.339844 -9.847656 C 8.90625 -9.847656 7.710938 -9.789062 7.621094 -9.265625 C 7.519531 -8.683594 8.636719 -8.59375 8.636719 -7.472656 L 8.636719 -4.617188 C 7.519531 -5.992188 5.992188 -7.773438 4.8125 -9.238281 C 4.5 -9.640625 4.003906 -9.878906 3.496094 -9.878906 C 3.289062 -9.878906 3.0625 -9.878906 2.871094 -9.878906 C 2.464844 -9.878906 2.136719 -9.878906 2.136719 -9.878906 C 1.703125 -9.878906 0.386719 -9.847656 0.300781 -9.296875 C 0.210938 -8.714844 1.332031 -8.59375 1.332031 -7.472656 L 1.332031 -2.363281 C 1.332031 -1.242188 0.210938 -1.121094 0.300781 -0.539062 C 0.386719 -0.015625 1.585938 0.0429688 2.019531 0.0429688 C 2.464844 0.0429688 3.675781 0.03125 3.722656 -0.539062 C 3.765625 -1.136719 2.71875 -1.195312 2.71875 -2.363281 C 2.71875 -2.808594 2.71875 -4.722656 2.71875 -6.097656 L 7.308594 -0.582031 C 7.636719 -0.195312 8.117188 0.03125 8.609375 0.03125 L 9.027344 0.03125 C 9.148438 0.0429688 9.265625 0.0429688 9.339844 0.0429688 C 9.773438 0.0429688 10.34375 0.03125 10.386719 -0.539062 C 10.445312 -1.136719 10.042969 -1.195312 10.042969 -2.363281 C 10.042969 -3.019531 10.042969 -6.816406 10.042969 -7.472656 C 10.042969 -8.636719 11.089844 -8.652344 11.042969 -9.265625 Z M 11.042969 -9.265625 "/></g></g></g><g fill="#393b24" fill-opacity="1"><g transform="translate(111.396331, 84.542972)"><g><path d="M 0.820312 -5.695312 C 1.824219 -5.738281 1.121094 -8.953125 2.707031 -8.953125 L 2.929688 -8.953125 C 3.542969 -8.953125 3.765625 -8.636719 3.765625 -7.472656 L 3.765625 -2.363281 C 3.765625 -1.242188 2.71875 -1.121094 2.808594 -0.523438 C 2.898438 -0.015625 5.097656 0.0429688 5.53125 0.0429688 C 5.964844 0.0429688 8.160156 0.03125 8.207031 -0.523438 C 8.265625 -1.136719 7.277344 -1.195312 7.277344 -2.363281 L 7.277344 -7.488281 C 7.277344 -8.550781 7.472656 -8.894531 7.980469 -8.953125 L 8.324219 -8.953125 C 9.894531 -8.953125 9.191406 -5.738281 10.191406 -5.695312 C 10.851562 -5.664062 10.867188 -7.351562 10.867188 -7.816406 C 10.867188 -8.292969 10.851562 -9.492188 10.3125 -9.714844 C 10 -9.847656 7.875 -9.910156 5.710938 -9.910156 C 3.421875 -9.910156 1.074219 -9.835938 0.746094 -9.699219 C 0.210938 -9.476562 0.148438 -8.292969 0.148438 -7.816406 C 0.148438 -7.351562 0.164062 -5.664062 0.820312 -5.695312 Z M 0.820312 -5.695312 "/></g></g></g><g fill="#393b24" fill-opacity="1"><g transform="translate(123.427665, 84.542972)"><g><path d="M 6.84375 -0.820312 C 6.769531 -0.808594 6.679688 -0.792969 6.605469 -0.792969 C 5.53125 -0.792969 4.632812 -2.449219 4.125 -4.394531 C 3.601562 -6.382812 3.378906 -8.683594 4.601562 -9.042969 C 4.707031 -9.070312 4.8125 -9.085938 4.917969 -9.085938 C 6.082031 -9.085938 6.996094 -7.144531 7.429688 -5.425781 C 7.9375 -3.421875 8.039062 -1.089844 6.84375 -0.820312 Z M 5.710938 -10.117188 C 2.734375 -10.117188 0.222656 -8.027344 0.222656 -4.917969 C 0.222656 -1.808594 2.734375 0.285156 5.710938 0.285156 C 8.699219 0.285156 11.210938 -1.824219 11.210938 -4.917969 C 11.210938 -8.011719 8.699219 -10.117188 5.710938 -10.117188 Z M 5.710938 -10.117188 "/></g></g></g><path fill="#d93022" d="M 8.742188 58.765625 C 13.042969 56.992188 18.164062 58.792969 22.179688 62.929688 C 26.234375 58.601562 31.484375 56.6875 35.878906 58.496094 C 42.242188 61.117188 44.394531 70.5625 40.683594 79.597656 C 37.007812 88.542969 28.960938 93.722656 22.621094 91.285156 C 22.480469 91.351562 22.335938 91.421875 22.191406 91.480469 C 15.820312 94.101562 7.652344 88.902344 3.9375 79.867188 C 0.222656 70.832031 2.375 61.382812 8.742188 58.765625 " fill-opacity="1" fill-rule="nonzero"/><path stroke-linecap="round" transform="matrix(-0.0229892, 0, 0, -0.0230017, 71.184452, 118.38256)" fill="none" stroke-linejoin="round" d="M 2716.153892 2591.849944 C 2529.075736 2668.950249 2306.315097 2590.661173 2131.640851 2410.817069 C 1955.267439 2598.982571 1726.899554 2682.196557 1535.743399 2603.567832 C 1258.949288 2489.615619 1165.325251 2078.980074 1326.746004 1686.176097 C 1486.637507 1297.278083 1836.665665 1072.090849 2112.440278 1178.061312 C 2118.557274 1175.174297 2124.844188 1172.117456 2131.131101 1169.570089 C 2408.265046 1055.617877 2763.560618 1281.654233 2925.151288 1674.45821 C 3086.741957 2067.262186 2993.11792 2478.067555 2716.153892 2591.849944 Z M 2716.153892 2591.849944 " stroke="#24578f" stroke-width="30" stroke-opacity="1" stroke-miterlimit="10"/><g clip-path="url(#e45a3015fb)"><path fill="#24578f" d="M 22.371094 63.875 C 22.371094 63.875 22.429688 63.542969 22.507812 62.960938 C 22.585938 62.378906 22.671875 61.542969 22.730469 60.539062 C 22.761719 60.035156 22.78125 59.488281 22.789062 58.910156 C 22.796875 58.332031 22.785156 57.722656 22.757812 57.085938 C 22.710938 55.824219 22.554688 54.46875 22.273438 53.125 C 22.128906 52.457031 21.9375 51.789062 21.707031 51.140625 C 21.476562 50.496094 21.1875 49.871094 20.847656 49.292969 C 20.507812 48.710938 20.089844 48.1875 19.632812 47.746094 C 19.171875 47.304688 18.660156 46.953125 18.148438 46.703125 C 17.636719 46.453125 17.132812 46.308594 16.6875 46.222656 C 16.238281 46.121094 15.839844 46.128906 15.523438 46.191406 C 15.203125 46.261719 14.964844 46.378906 14.8125 46.484375 C 14.660156 46.59375 14.585938 46.667969 14.585938 46.667969 C 14.488281 46.765625 14.492188 46.921875 14.589844 47.019531 C 14.597656 47.027344 14.609375 47.035156 14.621094 47.042969 L 14.632812 47.050781 C 14.632812 47.050781 14.722656 47.113281 14.878906 47.191406 C 15.035156 47.257812 15.253906 47.351562 15.519531 47.417969 C 15.648438 47.457031 15.792969 47.476562 15.945312 47.507812 C 16.023438 47.515625 16.101562 47.527344 16.183594 47.535156 C 16.265625 47.550781 16.351562 47.5625 16.4375 47.578125 C 16.789062 47.636719 17.167969 47.746094 17.558594 47.929688 C 17.945312 48.117188 18.335938 48.375 18.703125 48.722656 C 19.074219 49.070312 19.414062 49.496094 19.722656 49.980469 C 20.027344 50.46875 20.296875 51.011719 20.527344 51.589844 C 20.753906 52.167969 20.9375 52.78125 21.105469 53.402344 C 21.4375 54.648438 21.628906 55.945312 21.765625 57.164062 C 21.898438 58.386719 21.960938 59.539062 21.992188 60.527344 C 22.023438 61.519531 22.019531 62.34375 22.011719 62.921875 C 22.003906 63.503906 21.988281 63.832031 21.988281 63.832031 C 21.984375 63.9375 22.066406 64.027344 22.171875 64.035156 C 22.269531 64.039062 22.355469 63.96875 22.371094 63.875 " fill-opacity="1" fill-rule="nonzero"/></g><path fill="#77cb4a" d="M 32.625 49.652344 C 31.800781 48.386719 25.988281 47.898438 23.835938 48.859375 C 21.71875 49.804688 20.984375 52.179688 21.808594 53.445312 C 22.632812 54.707031 25.226562 55.125 26.820312 53.441406 C 28.796875 51.347656 33.449219 50.917969 32.625 49.652344 " fill-opacity="1" fill-rule="nonzero"/><path stroke-linecap="round" transform="matrix(-0.0229892, 0, 0, -0.0230017, 71.184452, 118.38256)" fill="none" stroke-linejoin="round" d="M 1677.283912 2988.05041 C 1713.136311 3043.073535 1965.972184 3064.301592 2059.596221 3022.524775 C 2151.691008 2981.427256 2183.635325 2878.173984 2147.782927 2823.150859 C 2111.930528 2768.297558 1999.105918 2750.126341 1929.779952 2823.320683 C 1843.802162 2914.346594 1641.431513 2933.027284 1677.283912 2988.05041 Z M 1677.283912 2988.05041 " stroke="#24578f" stroke-width="30" stroke-opacity="1" stroke-miterlimit="10"/><path stroke-linecap="round" transform="matrix(-0.0229892, 0, 0, -0.0230017, 71.184452, 118.38256)" fill="none" stroke-linejoin="round" d="M 2263.666035 2401.816373 C 2263.666035 2401.816373 2516.841742 2628.532027 2713.605143 2498.616315 C 2713.605143 2498.616315 3053.608223 2333.54694 2860.243153 1725.235723 " stroke="#ffffff" stroke-width="30" stroke-opacity="1" stroke-miterlimit="10"/><path stroke-linecap="round" transform="matrix(-0.0229892, 0, 0, -0.0230017, 71.184452, 118.38256)" fill="none" stroke-linejoin="round" d="M 2153.56009 1211.85638 C 2153.56009 1211.85638 2460.939186 1124.057134 2713.605143 1458.611321 " stroke="#ffffff" stroke-width="30" stroke-opacity="1" stroke-miterlimit="10"/><path stroke-linecap="round" transform="matrix(-0.0229892, 0, 0, -0.0230017, 71.184452, 118.38256)" fill="none" stroke-linejoin="round" d="M 1646.868844 2575.376971 C 1646.868844 2575.376971 1950.339859 2565.357328 2091.880371 2358.68096 " stroke="#ffffff" stroke-width="30" stroke-opacity="1" stroke-miterlimit="10"/><path stroke-linecap="round" transform="matrix(-0.0229892, 0, 0, -0.0230017, 71.184452, 118.38256)" fill="none" stroke-linejoin="round" d="M 2060.275887 2972.766208 C 2060.275887 2972.766208 2126.033604 2936.933247 2115.328859 2853.549437 " stroke="#ffffff" stroke-width="30" stroke-opacity="1" stroke-miterlimit="10"/><g fill="#393b24" fill-opacity="1"><g transform="translate(134.257106, 83.450472)"><g><path d="M 0.933594 -0.820312 C 0.617188 -0.820312 0.363281 -0.617188 0.363281 -0.363281 C 0.363281 -0.109375 0.617188 0.09375 0.933594 0.09375 C 1.246094 0.09375 1.5 -0.109375 1.5 -0.363281 C 1.5 -0.617188 1.246094 -0.820312 0.933594 -0.820312 Z M 0.933594 -0.820312 "/></g></g></g><g fill="#393b24" fill-opacity="1"><g transform="translate(136.2736, 83.450472)"><g><path d="M 0.0429688 -1.828125 L 0.0429688 -1.730469 C 0.0429688 -1.683594 0.0820312 -1.644531 0.128906 -1.644531 L 0.332031 -1.644531 C 0.332031 -1.429688 0.328125 -0.722656 0.332031 -0.621094 C 0.335938 -0.1875 0.621094 0.0625 1.09375 0.0625 C 1.320312 0.0625 1.566406 0.0078125 1.71875 -0.164062 C 1.773438 -0.234375 1.71875 -0.328125 1.636719 -0.328125 C 1.625 -0.328125 1.617188 -0.328125 1.605469 -0.324219 C 1.585938 -0.316406 1.566406 -0.316406 1.542969 -0.316406 C 1.296875 -0.335938 1.335938 -0.667969 1.335938 -0.953125 L 1.335938 -1.644531 L 1.683594 -1.644531 C 1.730469 -1.644531 1.769531 -1.683594 1.769531 -1.730469 L 1.769531 -1.828125 C 1.769531 -1.875 1.730469 -1.914062 1.683594 -1.914062 L 1.335938 -1.914062 L 1.335938 -2.636719 C 1.335938 -2.707031 1.28125 -2.742188 1.222656 -2.742188 C 1.1875 -2.742188 1.152344 -2.730469 1.128906 -2.695312 C 0.898438 -2.375 0.527344 -1.941406 0.128906 -1.914062 C 0.0820312 -1.914062 0.0429688 -1.875 0.0429688 -1.828125 Z M 0.0429688 -1.828125 "/></g></g></g><g fill="#393b24" fill-opacity="1"><g transform="translate(138.311365, 83.450472)"><g><path d="M 1.574219 -0.230469 C 1.558594 -0.226562 1.542969 -0.226562 1.527344 -0.226562 C 1.332031 -0.226562 1.164062 -0.539062 1.066406 -0.945312 C 0.960938 -1.375 0.902344 -1.769531 1.113281 -1.820312 C 1.132812 -1.824219 1.148438 -1.824219 1.164062 -1.824219 C 1.382812 -1.824219 1.527344 -1.460938 1.617188 -1.101562 C 1.726562 -0.683594 1.796875 -0.28125 1.574219 -0.230469 Z M 1.335938 -2.089844 C 0.640625 -2.089844 0.0625 -1.664062 0.0625 -1.023438 C 0.0625 -0.390625 0.640625 0.0390625 1.335938 0.0390625 C 2.023438 0.0390625 2.609375 -0.390625 2.609375 -1.023438 C 2.609375 -1.660156 2.023438 -2.089844 1.335938 -2.089844 Z M 1.335938 -2.089844 "/></g></g></g><g fill="#393b24" fill-opacity="1"><g transform="translate(141.208484, 83.450472)"><g><path d="M 1.488281 -0.535156 C 1.476562 -0.53125 1.46875 -0.53125 1.453125 -0.53125 C 1.304688 -0.53125 1.160156 -0.761719 1.085938 -1.066406 C 1.003906 -1.394531 1.03125 -1.683594 1.195312 -1.722656 C 1.207031 -1.726562 1.222656 -1.726562 1.234375 -1.726562 C 1.382812 -1.726562 1.519531 -1.496094 1.59375 -1.195312 C 1.679688 -0.867188 1.652344 -0.578125 1.488281 -0.535156 Z M 2.5625 -0.664062 C 2.5625 -1.152344 2.558594 -2.214844 2.5625 -2.421875 C 2.570312 -2.65625 2.597656 -2.957031 2.4375 -2.957031 C 2.398438 -2.957031 2.355469 -2.941406 2.300781 -2.910156 C 1.984375 -2.726562 1.796875 -2.679688 1.441406 -2.566406 C 1.269531 -2.511719 1.292969 -2.347656 1.449219 -2.320312 C 1.554688 -2.296875 1.597656 -2.195312 1.597656 -1.914062 L 1.597656 -1.722656 C 1.5 -1.902344 1.324219 -2.070312 1.019531 -2.089844 C 1 -2.089844 0.984375 -2.09375 0.960938 -2.09375 C 0.515625 -2.09375 0.015625 -1.726562 0.0664062 -1.019531 C 0.109375 -0.445312 0.445312 0.0429688 1.0625 0.0429688 C 1.390625 0.0195312 1.53125 -0.175781 1.617188 -0.367188 C 1.660156 -0.152344 1.769531 0.015625 2.082031 0.015625 C 2.203125 0.015625 2.8125 0.0117188 2.824219 -0.144531 C 2.835938 -0.320312 2.5625 -0.335938 2.5625 -0.664062 Z M 2.5625 -0.664062 "/></g></g></g><g fill="#393b24" fill-opacity="1"><g transform="translate(144.343836, 83.450472)"><g><path d="M 2.53125 -0.664062 C 2.5 -0.976562 2.503906 -0.976562 2.488281 -1.183594 C 2.429688 -1.945312 1.921875 -2.140625 1.378906 -2.140625 C 1.09375 -2.140625 0.625 -2.101562 0.429688 -1.867188 C 0.273438 -1.675781 0.410156 -1.425781 0.621094 -1.425781 C 0.628906 -1.425781 0.632812 -1.425781 0.636719 -1.425781 C 1.015625 -1.445312 0.949219 -1.890625 1.25 -1.894531 C 1.347656 -1.894531 1.417969 -1.859375 1.472656 -1.777344 C 1.554688 -1.621094 1.476562 -1.433594 1.132812 -1.347656 C 0.589844 -1.214844 0.0898438 -1.109375 0.0625 -0.617188 C 0.0429688 -0.207031 0.429688 0.0390625 0.898438 0.0390625 C 0.933594 0.0390625 0.96875 0.0390625 1.007812 0.0351562 C 1.394531 0.00390625 1.566406 -0.324219 1.335938 -0.332031 C 1.117188 -0.339844 1.039062 -0.515625 1.019531 -0.609375 C 0.992188 -0.765625 1.023438 -0.933594 1.207031 -1.054688 C 1.363281 -1.160156 1.496094 -1.191406 1.5625 -1.328125 L 1.570312 -0.664062 C 1.570312 -0.34375 1.613281 0.015625 2.050781 0.015625 C 2.175781 0.015625 2.78125 0.0117188 2.796875 -0.144531 C 2.808594 -0.320312 2.53125 -0.335938 2.53125 -0.664062 Z M 2.53125 -0.664062 "/></g></g></g><g fill="#393b24" fill-opacity="1"><g transform="translate(147.428139, 83.450472)"><g><path d="M 2.441406 -2.101562 C 2.304688 -2.101562 1.964844 -2.097656 1.945312 -1.9375 C 1.917969 -1.757812 2.246094 -1.738281 2.097656 -1.394531 C 2.058594 -1.304688 1.917969 -0.886719 1.777344 -0.5625 L 1.433594 -1.394531 C 1.289062 -1.726562 1.589844 -1.785156 1.539062 -1.9375 C 1.488281 -2.105469 0.871094 -2.105469 0.714844 -2.105469 C 0.589844 -2.105469 0.0820312 -2.105469 0.046875 -1.9375 C 0.00390625 -1.726562 0.269531 -1.710938 0.429688 -1.386719 C 0.488281 -1.257812 1.480469 0.523438 1.054688 0.628906 C 1.046875 0.632812 1.042969 0.632812 1.035156 0.632812 C 0.804688 0.636719 0.867188 0.0546875 0.460938 0.0546875 C 0.445312 0.0546875 0.429688 0.0585938 0.414062 0.0585938 C 0.128906 0.09375 0.0546875 0.371094 0.164062 0.554688 C 0.320312 0.816406 0.609375 0.902344 0.898438 0.902344 C 1.453125 0.890625 1.726562 0.292969 2.132812 -0.695312 L 2.433594 -1.394531 C 2.574219 -1.722656 2.867188 -1.753906 2.871094 -1.929688 C 2.875 -2.082031 2.542969 -2.101562 2.441406 -2.101562 Z M 2.441406 -2.101562 "/></g></g></g></svg>