<svg xmlns="http://www.w3.org/2000/svg" xmlns:xlink="http://www.w3.org/1999/xlink" width="202" zoomAndPan="magnify" viewBox="0 0 151.5 157.499993" height="210" preserveAspectRatio="xMidYMid meet" version="1.0"><defs><g/><clipPath id="a228944cf9"><path d="M 2.945312 5.730469 L 149.054688 5.730469 L 149.054688 152.554688 L 2.945312 152.554688 Z M 2.945312 5.730469 " clip-rule="nonzero"/></clipPath><clipPath id="dc80d4b57a"><path d="M 76 5.730469 C 35.652344 5.730469 2.945312 38.597656 2.945312 79.140625 C 2.945312 119.683594 35.652344 152.554688 76 152.554688 C 116.347656 152.554688 149.054688 119.683594 149.054688 79.140625 C 149.054688 38.597656 116.347656 5.730469 76 5.730469 Z M 76 5.730469 " clip-rule="nonzero"/></clipPath><clipPath id="7de6cc1349"><path d="M 2.230469 5.730469 L 149.054688 5.730469 L 149.054688 152.554688 L 2.230469 152.554688 Z M 2.230469 5.730469 " clip-rule="nonzero"/></clipPath><clipPath id="c8b61d8d39"><path d="M 75.644531 5.730469 C 35.097656 5.730469 2.230469 38.597656 2.230469 79.140625 C 2.230469 119.683594 35.097656 152.554688 75.644531 152.554688 C 116.1875 152.554688 149.054688 119.683594 149.054688 79.140625 C 149.054688 38.597656 116.1875 5.730469 75.644531 5.730469 Z M 75.644531 5.730469 " clip-rule="nonzero"/></clipPath><clipPath id="69dad70350"><path d="M 18.773438 60.785156 L 149.230469 60.785156 L 149.230469 152.285156 L 18.773438 152.285156 Z M 18.773438 60.785156 " clip-rule="nonzero"/></clipPath><clipPath id="4654b7c87c"><path d="M 2.230469 5.730469 L 132.730469 5.730469 L 132.730469 96.480469 L 2.230469 96.480469 Z M 2.230469 5.730469 " clip-rule="nonzero"/></clipPath><clipPath id="aaeab590b4"><path d="M 27.738281 31.234375 L 95.988281 31.234375 L 95.988281 78.484375 L 27.738281 78.484375 Z M 27.738281 31.234375 " clip-rule="nonzero"/></clipPath><clipPath id="c583de1b79"><path d="M 45.769531 75.542969 L 123.738281 75.542969 L 123.738281 127.234375 L 45.769531 127.234375 Z M 45.769531 75.542969 " clip-rule="nonzero"/></clipPath></defs><g clip-path="url(#a228944cf9)"><g clip-path="url(#dc80d4b57a)"><path fill="#ffffff" d="M 2.945312 5.730469 L 149.054688 5.730469 L 149.054688 152.554688 L 2.945312 152.554688 Z M 2.945312 5.730469 " fill-opacity="1" fill-rule="nonzero"/></g></g><g clip-path="url(#7de6cc1349)"><g clip-path="url(#c8b61d8d39)"><path fill="#f4efed" d="M 2.230469 5.730469 L 149.054688 5.730469 L 149.054688 152.554688 L 2.230469 152.554688 Z M 2.230469 5.730469 " fill-opacity="1" fill-rule="nonzero"/></g></g><path fill="#d93022" d="M 53.695312 60.574219 C 60.671875 57.703125 68.976562 60.621094 75.496094 67.324219 C 82.070312 60.3125 90.585938 57.207031 97.710938 60.136719 C 108.035156 64.382812 111.527344 79.699219 105.503906 94.34375 C 99.542969 108.839844 86.496094 117.238281 76.210938 113.285156 C 75.980469 113.398438 75.75 113.503906 75.511719 113.601562 C 65.179688 117.851562 51.929688 109.421875 45.902344 94.777344 C 39.878906 80.132812 43.367188 64.820312 53.695312 60.574219 " fill-opacity="1" fill-rule="nonzero"/><path stroke-linecap="round" transform="matrix(-0.0372886, 0, 0, -0.0372839, 154.979477, 157.209776)" fill="none" stroke-linejoin="round" d="M 2716.225682 2591.885235 C 2529.129128 2668.891522 2306.415088 2590.627989 2131.575139 2410.841881 C 1955.268588 2598.904855 1726.897654 2682.19737 1535.820322 2603.619526 C 1258.946753 2489.734037 1165.293719 2078.929067 1326.82949 1686.144615 C 1486.689144 1297.341442 1836.578556 1072.084954 2112.404552 1178.112659 C 2118.585233 1175.074316 2124.765914 1172.245513 2131.15611 1169.626252 C 2408.239193 1055.635992 2763.575986 1281.730643 2925.216514 1674.515094 C 3086.752285 2067.299546 2993.204007 2477.999746 2716.225682 2591.885235 Z M 2716.225682 2591.885235 " stroke="#24578f" stroke-width="30" stroke-opacity="1" stroke-miterlimit="10"/><path fill="#24578f" d="M 75.804688 68.855469 C 75.804688 68.855469 75.898438 68.316406 76.023438 67.375 C 76.152344 66.429688 76.292969 65.078125 76.386719 63.449219 C 76.433594 62.636719 76.46875 61.75 76.484375 60.808594 C 76.496094 59.871094 76.476562 58.882812 76.429688 57.855469 C 76.351562 55.804688 76.097656 53.613281 75.644531 51.433594 C 75.414062 50.347656 75.105469 49.265625 74.726562 48.21875 C 74.351562 47.175781 73.882812 46.160156 73.332031 45.21875 C 72.78125 44.28125 72.105469 43.429688 71.363281 42.710938 C 70.617188 41.996094 69.78125 41.429688 68.953125 41.023438 C 68.125 40.621094 67.308594 40.378906 66.585938 40.242188 C 65.859375 40.082031 65.210938 40.089844 64.695312 40.195312 C 64.179688 40.308594 63.792969 40.496094 63.542969 40.667969 C 63.292969 40.84375 63.175781 40.964844 63.175781 40.964844 C 63.019531 41.125 63.023438 41.378906 63.183594 41.535156 C 63.199219 41.546875 63.214844 41.5625 63.234375 41.574219 L 63.25 41.589844 C 63.25 41.589844 63.398438 41.6875 63.652344 41.8125 C 63.90625 41.925781 64.261719 42.074219 64.6875 42.179688 C 64.902344 42.246094 65.132812 42.273438 65.382812 42.328125 C 65.503906 42.34375 65.636719 42.359375 65.769531 42.371094 C 65.902344 42.394531 66.039062 42.417969 66.179688 42.4375 C 66.746094 42.539062 67.367188 42.714844 67.996094 43.011719 C 68.621094 43.316406 69.261719 43.734375 69.855469 44.296875 C 70.453125 44.859375 71.003906 45.550781 71.503906 46.335938 C 72 47.125 72.4375 48.003906 72.808594 48.945312 C 73.179688 49.882812 73.480469 50.875 73.753906 51.882812 C 74.285156 53.902344 74.601562 56.003906 74.824219 57.980469 C 75.035156 59.957031 75.140625 61.832031 75.1875 63.433594 C 75.238281 65.035156 75.234375 66.375 75.222656 67.316406 C 75.207031 68.253906 75.183594 68.789062 75.183594 68.789062 C 75.175781 68.957031 75.308594 69.105469 75.480469 69.117188 C 75.640625 69.121094 75.777344 69.011719 75.804688 68.855469 " fill-opacity="1" fill-rule="nonzero"/><path fill="#77cb4a" d="M 92.433594 45.800781 C 91.097656 43.75 81.671875 42.960938 78.179688 44.519531 C 74.746094 46.050781 73.554688 49.898438 74.894531 51.949219 C 76.230469 53.996094 80.4375 54.671875 83.019531 51.941406 C 86.226562 48.550781 93.769531 47.851562 92.433594 45.800781 " fill-opacity="1" fill-rule="nonzero"/><path stroke-linecap="round" transform="matrix(-0.0372886, 0, 0, -0.0372839, 154.979477, 157.209776)" fill="none" stroke-linejoin="round" d="M 1677.347446 2988.127111 C 1713.174446 3043.131602 1965.953833 3064.295235 2059.606868 3022.491822 C 2151.688543 2981.421802 2183.639522 2878.222899 2147.707765 2823.218408 C 2111.880765 2768.318688 1999.057143 2750.193398 1929.812562 2823.427949 C 1843.806811 2914.368708 1641.520447 2933.12262 1677.347446 2988.127111 Z M 1677.347446 2988.127111 " stroke="#24578f" stroke-width="30" stroke-opacity="1" stroke-miterlimit="10"/><path stroke-linecap="round" transform="matrix(-0.0372886, 0, 0, -0.0372839, 154.979477, 157.209776)" fill="none" stroke-linejoin="round" d="M 2263.569349 2401.936392 C 2263.569349 2401.936392 2516.872522 2628.554895 2713.606749 2498.639526 C 2713.606749 2498.639526 3053.648975 2333.626053 2860.266982 1725.328767 " stroke="#ffffff" stroke-width="30" stroke-opacity="1" stroke-miterlimit="10"/><path stroke-linecap="round" transform="matrix(-0.0372886, 0, 0, -0.0372839, 154.979477, 157.209776)" fill="none" stroke-linejoin="round" d="M 2153.574174 1211.848747 C 2153.574174 1211.848747 2461.036877 1124.051102 2713.606749 1458.583178 " stroke="#ffffff" stroke-width="30" stroke-opacity="1" stroke-miterlimit="10"/><path stroke-linecap="round" transform="matrix(-0.0372886, 0, 0, -0.0372839, 154.979477, 157.209776)" fill="none" stroke-linejoin="round" d="M 1646.863069 2575.331502 C 1646.863069 2575.331502 1950.344994 2565.273538 2091.872119 2358.561422 " stroke="#ffffff" stroke-width="30" stroke-opacity="1" stroke-miterlimit="10"/><path stroke-linecap="round" transform="matrix(-0.0372886, 0, 0, -0.0372839, 154.979477, 157.209776)" fill="none" stroke-linejoin="round" d="M 2060.340169 2972.830624 C 2060.340169 2972.830624 2126.023002 2936.894357 2115.337756 2853.601842 " stroke="#ffffff" stroke-width="30" stroke-opacity="1" stroke-miterlimit="10"/><g clip-path="url(#69dad70350)"><path fill="#545454" d="M 75.707031 152.730469 C 35.214844 152.730469 2.230469 119.746094 2.230469 79.203125 C 2.230469 38.660156 35.214844 5.730469 75.707031 5.730469 C 116.199219 5.730469 149.183594 38.710938 149.183594 79.203125 C 149.230469 119.746094 116.25 152.730469 75.707031 152.730469 Z M 75.707031 6.972656 C 35.859375 6.972656 3.476562 39.359375 3.476562 79.203125 C 3.476562 119.050781 35.910156 151.484375 75.707031 151.484375 C 115.503906 151.484375 147.988281 119.050781 147.988281 79.203125 C 147.988281 39.359375 115.554688 6.972656 75.707031 6.972656 Z M 75.707031 6.972656 " fill-opacity="1" fill-rule="nonzero"/></g><g clip-path="url(#4654b7c87c)"><path fill="#545454" d="M 75.707031 152.730469 C 35.214844 152.730469 2.230469 119.746094 2.230469 79.203125 C 2.230469 38.660156 35.214844 5.730469 75.707031 5.730469 C 116.199219 5.730469 149.183594 38.710938 149.183594 79.203125 C 149.230469 119.746094 116.25 152.730469 75.707031 152.730469 Z M 75.707031 6.972656 C 35.859375 6.972656 3.476562 39.359375 3.476562 79.203125 C 3.476562 119.050781 35.910156 151.484375 75.707031 151.484375 C 115.503906 151.484375 147.988281 119.050781 147.988281 79.203125 C 147.988281 39.359375 115.554688 6.972656 75.707031 6.972656 Z M 75.707031 6.972656 " fill-opacity="1" fill-rule="nonzero"/></g><g fill="#545454" fill-opacity="1"><g transform="translate(36.355403, 130.131948)"><g><path d="M 4.375 2.71875 L 6.34375 -4.734375 L 6.3125 -4.765625 C 5.582031 -3.453125 5.085938 -2.582031 4.828125 -2.15625 L 2.515625 1.5625 L 1.015625 0.625 L 5.96875 -7.34375 L 8.25 -5.921875 L 6.34375 1.34375 L 6.390625 1.375 L 12.1875 -3.46875 L 14.484375 -2.046875 L 9.53125 5.921875 L 7.953125 4.9375 L 10.296875 1.15625 C 10.410156 0.976562 10.539062 0.773438 10.6875 0.546875 C 10.84375 0.328125 11.257812 -0.269531 11.9375 -1.25 L 11.875 -1.28125 L 5.9375 3.6875 Z M 4.375 2.71875 "/></g></g></g><g fill="#545454" fill-opacity="1"><g transform="translate(50.058236, 138.05415)"><g><path d="M 10.6875 -1.34375 C 10.195312 0.125 9.453125 1.128906 8.453125 1.671875 C 7.453125 2.210938 6.269531 2.253906 4.90625 1.796875 C 3.550781 1.335938 2.640625 0.59375 2.171875 -0.4375 C 1.710938 -1.476562 1.734375 -2.738281 2.234375 -4.21875 C 2.734375 -5.695312 3.476562 -6.707031 4.46875 -7.25 C 5.46875 -7.789062 6.648438 -7.832031 8.015625 -7.375 C 9.378906 -6.90625 10.289062 -6.148438 10.75 -5.109375 C 11.207031 -4.078125 11.1875 -2.820312 10.6875 -1.34375 Z M 4.203125 -3.53125 C 3.867188 -2.539062 3.804688 -1.734375 4.015625 -1.109375 C 4.222656 -0.484375 4.703125 -0.046875 5.453125 0.203125 C 6.960938 0.710938 8.050781 -0.0234375 8.71875 -2.015625 C 9.394531 -4.023438 8.984375 -5.285156 7.484375 -5.796875 C 6.734375 -6.046875 6.082031 -5.976562 5.53125 -5.59375 C 4.988281 -5.21875 4.546875 -4.53125 4.203125 -3.53125 Z M 4.203125 -3.53125 "/></g></g></g><g fill="#545454" fill-opacity="1"><g transform="translate(63.331851, 142.233294)"><g><path d="M 5.140625 0.484375 L 3.578125 -7.0625 L 3.53125 -7.078125 C 3.46875 -5.578125 3.414062 -4.578125 3.375 -4.078125 L 2.953125 0.28125 L 1.1875 0.109375 L 2.078125 -9.234375 L 4.765625 -8.96875 L 6.28125 -1.609375 L 6.328125 -1.609375 L 9.375 -8.53125 L 12.0625 -8.28125 L 11.171875 1.0625 L 9.3125 0.890625 L 9.734375 -3.546875 C 9.753906 -3.753906 9.78125 -3.988281 9.8125 -4.25 C 9.851562 -4.519531 9.957031 -5.25 10.125 -6.4375 L 10.0625 -6.4375 L 6.953125 0.65625 Z M 5.140625 0.484375 "/></g></g></g><g fill="#545454" fill-opacity="1"><g transform="translate(78.997875, 143.125765)"><g><path d="M 6.546875 -0.71875 L 1.1875 -0.125 L 0.15625 -9.453125 L 5.515625 -10.046875 L 5.703125 -8.4375 L 2.3125 -8.0625 L 2.53125 -6.015625 L 5.703125 -6.375 L 5.890625 -4.734375 L 2.71875 -4.375 L 2.96875 -1.96875 L 6.359375 -2.34375 Z M 6.546875 -0.71875 "/></g></g></g><g fill="#545454" fill-opacity="1"><g transform="translate(89.536329, 141.811639)"><g><path d="M 9.09375 -2.8125 L 6.671875 -2.0625 L 0.65625 -7.65625 L 0.609375 -7.640625 C 1.054688 -6.453125 1.359375 -5.601562 1.515625 -5.09375 L 2.828125 -0.875 L 1.140625 -0.34375 L -1.640625 -9.3125 L 0.734375 -10.0625 L 6.71875 -4.546875 L 6.765625 -4.5625 C 6.347656 -5.707031 6.0625 -6.523438 5.90625 -7.015625 L 4.59375 -11.25 L 6.3125 -11.78125 Z M 9.09375 -2.8125 "/></g></g></g><g fill="#545454" fill-opacity="1"><g transform="translate(102.702768, 137.251868)"><g><path d="M 4.234375 -2.28125 L 2.484375 -1.328125 L -1.171875 -8.140625 L -3.421875 -6.9375 L -4.203125 -8.390625 L 2.046875 -11.75 L 2.828125 -10.296875 L 0.578125 -9.09375 Z M 4.234375 -2.28125 "/></g></g></g><g fill="#545454" fill-opacity="1"><g transform="translate(112.194621, 131.955279)"><g><path d="M 4.546875 -9.765625 C 5.523438 -8.566406 5.976562 -7.398438 5.90625 -6.265625 C 5.84375 -5.140625 5.253906 -4.125 4.140625 -3.21875 C 3.023438 -2.300781 1.90625 -1.921875 0.78125 -2.078125 C -0.34375 -2.242188 -1.398438 -2.929688 -2.390625 -4.140625 C -3.367188 -5.347656 -3.820312 -6.515625 -3.75 -7.640625 C -3.675781 -8.773438 -3.082031 -9.800781 -1.96875 -10.71875 C -0.851562 -11.625 0.257812 -11.992188 1.375 -11.828125 C 2.5 -11.671875 3.554688 -10.984375 4.546875 -9.765625 Z M -0.75 -5.453125 C -0.09375 -4.648438 0.550781 -4.164062 1.1875 -4 C 1.832031 -3.84375 2.460938 -4.015625 3.078125 -4.515625 C 4.304688 -5.515625 4.257812 -6.828125 2.9375 -8.453125 C 1.601562 -10.097656 0.320312 -10.421875 -0.90625 -9.421875 C -1.507812 -8.921875 -1.800781 -8.335938 -1.78125 -7.671875 C -1.757812 -7.015625 -1.414062 -6.273438 -0.75 -5.453125 Z M -0.75 -5.453125 "/></g></g></g><g fill="#545454" fill-opacity="1"><g transform="translate(122.365139, 123.012622)"><g><path d="M -0.1875 -1.171875 C -0.445312 -1.410156 -0.582031 -1.660156 -0.59375 -1.921875 C -0.601562 -2.191406 -0.488281 -2.46875 -0.25 -2.75 C -0.0078125 -3.019531 0.242188 -3.160156 0.515625 -3.171875 C 0.785156 -3.191406 1.050781 -3.082031 1.3125 -2.84375 C 1.570312 -2.613281 1.707031 -2.363281 1.71875 -2.09375 C 1.726562 -1.820312 1.613281 -1.554688 1.375 -1.296875 C 1.132812 -1.023438 0.878906 -0.878906 0.609375 -0.859375 C 0.335938 -0.835938 0.0703125 -0.941406 -0.1875 -1.171875 Z M -0.1875 -1.171875 "/></g></g></g><g fill="#545454" fill-opacity="1"><g transform="translate(126.83572, 117.931147)"><g><path d="M -3.671875 -8.65625 C -4.085938 -8.039062 -4.175781 -7.40625 -3.9375 -6.75 C -3.707031 -6.101562 -3.171875 -5.5 -2.328125 -4.9375 C -0.585938 -3.769531 0.71875 -3.835938 1.59375 -5.140625 C 1.945312 -5.691406 2.25 -6.453125 2.5 -7.421875 L 3.890625 -6.5 C 3.734375 -5.675781 3.394531 -4.867188 2.875 -4.078125 C 2.113281 -2.941406 1.1875 -2.300781 0.09375 -2.15625 C -1 -2.019531 -2.191406 -2.378906 -3.484375 -3.234375 C -4.285156 -3.773438 -4.890625 -4.394531 -5.296875 -5.09375 C -5.710938 -5.789062 -5.898438 -6.523438 -5.859375 -7.296875 C -5.828125 -8.078125 -5.5625 -8.835938 -5.0625 -9.578125 C -4.5625 -10.347656 -3.867188 -10.988281 -2.984375 -11.5 L -2 -10.078125 C -2.320312 -9.867188 -2.632812 -9.648438 -2.9375 -9.421875 C -3.238281 -9.203125 -3.484375 -8.945312 -3.671875 -8.65625 Z M -3.671875 -8.65625 "/></g></g></g><g fill="#545454" fill-opacity="1"><g transform="translate(133.117268, 108.104902)"><g><path d="M -0.640625 -10.765625 C 0.785156 -10.171875 1.734375 -9.359375 2.203125 -8.328125 C 2.679688 -7.296875 2.648438 -6.117188 2.109375 -4.796875 C 1.554688 -3.460938 0.75 -2.597656 -0.3125 -2.203125 C -1.375 -1.804688 -2.625 -1.90625 -4.0625 -2.5 C -5.507812 -3.09375 -6.46875 -3.90625 -6.9375 -4.9375 C -7.414062 -5.96875 -7.378906 -7.15625 -6.828125 -8.5 C -6.273438 -9.820312 -5.46875 -10.675781 -4.40625 -11.0625 C -3.34375 -11.457031 -2.085938 -11.359375 -0.640625 -10.765625 Z M -3.25 -4.4375 C -2.289062 -4.039062 -1.488281 -3.921875 -0.84375 -4.078125 C -0.207031 -4.242188 0.257812 -4.695312 0.5625 -5.4375 C 1.164062 -6.90625 0.5 -8.039062 -1.4375 -8.84375 C -3.394531 -9.644531 -4.675781 -9.316406 -5.28125 -7.859375 C -5.582031 -7.117188 -5.5625 -6.460938 -5.21875 -5.890625 C -4.882812 -5.316406 -4.226562 -4.832031 -3.25 -4.4375 Z M -3.25 -4.4375 "/></g></g></g><g fill="#545454" fill-opacity="1"><g transform="translate(138.150148, 95.130907)"><g><path d="M 0.828125 -5.09375 L -6.828125 -4.03125 L -6.828125 -3.984375 C -5.335938 -3.828125 -4.34375 -3.710938 -3.84375 -3.640625 L 0.46875 -2.9375 L 0.1875 -1.171875 L -9.078125 -2.671875 L -8.640625 -5.34375 L -1.203125 -6.375 L -1.1875 -6.421875 L -7.90625 -9.90625 L -7.484375 -12.578125 L 1.78125 -11.078125 L 1.484375 -9.234375 L -2.90625 -9.9375 C -3.113281 -9.976562 -3.347656 -10.023438 -3.609375 -10.078125 C -3.867188 -10.128906 -4.582031 -10.273438 -5.75 -10.515625 L -5.765625 -10.453125 L 1.109375 -6.890625 Z M 0.828125 -5.09375 "/></g></g></g><g fill="#545454" fill-opacity="1"><g transform="translate(21.191121, 68.078762)"><g><path d="M -6.1875 -7.109375 C -6.382812 -6.378906 -6.269531 -5.738281 -5.84375 -5.1875 C -5.414062 -4.644531 -4.71875 -4.234375 -3.75 -3.953125 C -1.726562 -3.390625 -0.503906 -3.867188 -0.078125 -5.390625 C 0.0976562 -6.015625 0.148438 -6.828125 0.078125 -7.828125 L 1.6875 -7.375 C 1.789062 -6.550781 1.71875 -5.679688 1.46875 -4.765625 C 1.101562 -3.453125 0.425781 -2.554688 -0.5625 -2.078125 C -1.5625 -1.609375 -2.8125 -1.582031 -4.3125 -2 C -5.238281 -2.257812 -6.007812 -2.660156 -6.625 -3.203125 C -7.238281 -3.742188 -7.644531 -4.382812 -7.84375 -5.125 C -8.039062 -5.875 -8.019531 -6.679688 -7.78125 -7.546875 C -7.53125 -8.429688 -7.070312 -9.253906 -6.40625 -10.015625 L -5.03125 -8.96875 C -5.28125 -8.664062 -5.507812 -8.363281 -5.71875 -8.0625 C -5.9375 -7.757812 -6.09375 -7.441406 -6.1875 -7.109375 Z M -6.1875 -7.109375 "/></g></g></g><g fill="#545454" fill-opacity="1"><g transform="translate(23.895232, 58.569128)"><g><path d="M 0.203125 -10.78125 C 1.578125 -10.082031 2.460938 -9.195312 2.859375 -8.125 C 3.253906 -7.0625 3.128906 -5.890625 2.484375 -4.609375 C 1.828125 -3.328125 0.953125 -2.53125 -0.140625 -2.21875 C -1.234375 -1.914062 -2.472656 -2.117188 -3.859375 -2.828125 C -5.253906 -3.535156 -6.144531 -4.421875 -6.53125 -5.484375 C -6.925781 -6.546875 -6.796875 -7.722656 -6.140625 -9.015625 C -5.484375 -10.296875 -4.609375 -11.085938 -3.515625 -11.390625 C -2.429688 -11.691406 -1.191406 -11.488281 0.203125 -10.78125 Z M -2.890625 -4.671875 C -1.960938 -4.203125 -1.171875 -4.023438 -0.515625 -4.140625 C 0.128906 -4.253906 0.632812 -4.664062 1 -5.375 C 1.71875 -6.789062 1.140625 -7.972656 -0.734375 -8.921875 C -2.617188 -9.878906 -3.921875 -9.65625 -4.640625 -8.25 C -4.992188 -7.539062 -5.023438 -6.882812 -4.734375 -6.28125 C -4.441406 -5.6875 -3.828125 -5.148438 -2.890625 -4.671875 Z M -2.890625 -4.671875 "/></g></g></g><g fill="#545454" fill-opacity="1"><g transform="translate(29.583595, 48.012801)"><g><path d="M 2.046875 -6.90625 C 2.710938 -6.394531 3.050781 -5.75 3.0625 -4.96875 C 3.070312 -4.1875 2.75 -3.363281 2.09375 -2.5 C 1.476562 -1.707031 0.789062 -1.125 0.03125 -0.75 L -1.4375 -1.875 C -0.832031 -2.195312 -0.351562 -2.5 0 -2.78125 C 0.363281 -3.0625 0.660156 -3.34375 0.890625 -3.625 C 1.148438 -3.976562 1.285156 -4.296875 1.296875 -4.578125 C 1.304688 -4.859375 1.179688 -5.097656 0.921875 -5.296875 C 0.773438 -5.410156 0.613281 -5.472656 0.4375 -5.484375 C 0.269531 -5.492188 0.078125 -5.457031 -0.140625 -5.375 C -0.367188 -5.300781 -0.789062 -5.113281 -1.40625 -4.8125 C -1.96875 -4.519531 -2.4375 -4.335938 -2.8125 -4.265625 C -3.1875 -4.191406 -3.550781 -4.1875 -3.90625 -4.25 C -4.269531 -4.3125 -4.632812 -4.476562 -5 -4.75 C -5.644531 -5.25 -5.984375 -5.867188 -6.015625 -6.609375 C -6.054688 -7.359375 -5.773438 -8.125 -5.171875 -8.90625 C -4.867188 -9.289062 -4.535156 -9.625 -4.171875 -9.90625 C -3.804688 -10.1875 -3.394531 -10.453125 -2.9375 -10.703125 L -2.09375 -9.25 C -2.570312 -8.976562 -2.941406 -8.738281 -3.203125 -8.53125 C -3.472656 -8.320312 -3.703125 -8.09375 -3.890625 -7.84375 C -4.117188 -7.539062 -4.222656 -7.253906 -4.203125 -6.984375 C -4.191406 -6.722656 -4.078125 -6.507812 -3.859375 -6.34375 C -3.710938 -6.226562 -3.5625 -6.160156 -3.40625 -6.140625 C -3.25 -6.128906 -3.066406 -6.15625 -2.859375 -6.21875 C -2.660156 -6.28125 -2.234375 -6.484375 -1.578125 -6.828125 C -0.710938 -7.265625 -0.015625 -7.476562 0.515625 -7.46875 C 1.046875 -7.46875 1.554688 -7.28125 2.046875 -6.90625 Z M 2.046875 -6.90625 "/></g></g></g><g fill="#545454" fill-opacity="1"><g transform="translate(35.115498, 41.055296)"><g><path d="M 4.8125 -4.5 L 0.875 -0.8125 L -5.53125 -7.671875 L -1.59375 -11.359375 L -0.484375 -10.171875 L -2.984375 -7.84375 L -1.578125 -6.34375 L 0.75 -8.515625 L 1.859375 -7.3125 L -0.46875 -5.140625 L 1.1875 -3.375 L 3.6875 -5.703125 Z M 4.8125 -4.5 "/></g></g></g><g fill="#545454" fill-opacity="1"><g transform="translate(41.73346, 34.99509)"><g><path d="M 0.015625 -9.421875 C -0.609375 -9.003906 -0.941406 -8.445312 -0.984375 -7.75 C -1.023438 -7.0625 -0.769531 -6.296875 -0.21875 -5.453125 C 0.925781 -3.703125 2.160156 -3.257812 3.484375 -4.125 C 4.023438 -4.476562 4.601562 -5.054688 5.21875 -5.859375 L 6.125 -4.453125 C 5.65625 -3.753906 5.023438 -3.144531 4.234375 -2.625 C 3.085938 -1.875 1.984375 -1.644531 0.921875 -1.9375 C -0.128906 -2.238281 -1.082031 -3.039062 -1.9375 -4.34375 C -2.46875 -5.15625 -2.785156 -5.960938 -2.890625 -6.765625 C -2.992188 -7.566406 -2.875 -8.316406 -2.53125 -9.015625 C -2.195312 -9.710938 -1.65625 -10.3125 -0.90625 -10.8125 C -0.144531 -11.3125 0.742188 -11.625 1.765625 -11.75 L 2.109375 -10.0625 C 1.722656 -10 1.347656 -9.921875 0.984375 -9.828125 C 0.617188 -9.742188 0.296875 -9.609375 0.015625 -9.421875 Z M 0.015625 -9.421875 "/></g></g></g><g fill="#545454" fill-opacity="1"><g transform="translate(50.044516, 29.619861)"><g><path d="M 8.21875 -3.34375 L 6.375 -2.59375 L 4.84375 -6.34375 L 1.40625 -4.953125 L 2.9375 -1.203125 L 1.09375 -0.453125 L -2.453125 -9.15625 L -0.609375 -9.90625 L 0.78125 -6.484375 L 4.21875 -7.875 L 2.828125 -11.296875 L 4.671875 -12.046875 Z M 8.21875 -3.34375 "/></g></g></g><g fill="#545454" fill-opacity="1"><g transform="translate(60.808927, 25.446244)"><g><path d="M 6.8125 -1.296875 L 5.71875 -3.359375 L 2.359375 -2.71875 L 2.109375 -0.40625 L 0 0 L 1.484375 -9.890625 L 3.890625 -10.34375 L 8.921875 -1.6875 Z M 4.953125 -4.921875 C 3.953125 -6.785156 3.390625 -7.835938 3.265625 -8.078125 C 3.140625 -8.328125 3.046875 -8.523438 2.984375 -8.671875 C 2.941406 -8.117188 2.789062 -6.71875 2.53125 -4.46875 Z M 4.953125 -4.921875 "/></g></g></g><g fill="#545454" fill-opacity="1"><g transform="translate(71.460558, 23.758894)"><g/></g></g><g fill="#545454" fill-opacity="1"><g transform="translate(76.580941, 23.425572)"><g><path d="M 9.421875 -3.796875 C 9.265625 -2.265625 8.703125 -1.132812 7.734375 -0.40625 C 6.773438 0.3125 5.472656 0.582031 3.828125 0.40625 L 1.1875 0.125 L 2.1875 -9.21875 L 5.109375 -8.90625 C 6.640625 -8.738281 7.78125 -8.207031 8.53125 -7.3125 C 9.28125 -6.414062 9.578125 -5.242188 9.421875 -3.796875 Z M 7.375 -3.96875 C 7.59375 -5.976562 6.8125 -7.078125 5.03125 -7.265625 L 3.984375 -7.390625 L 3.328125 -1.296875 L 4.1875 -1.203125 C 6.09375 -0.992188 7.15625 -1.914062 7.375 -3.96875 Z M 7.375 -3.96875 "/></g></g></g><g fill="#545454" fill-opacity="1"><g transform="translate(87.772692, 24.867152)"><g><path d="M 6.328125 1.875 L 1.140625 0.34375 L 3.8125 -8.65625 L 9 -7.125 L 8.53125 -5.5625 L 5.25 -6.53125 L 4.671875 -4.5625 L 7.71875 -3.65625 L 7.25 -2.078125 L 4.203125 -2.984375 L 3.515625 -0.671875 L 6.796875 0.296875 Z M 6.328125 1.875 "/></g></g></g><g fill="#545454" fill-opacity="1"><g transform="translate(96.366613, 27.556148)"><g><path d="M 1.0625 0.515625 L 5.15625 -7.9375 L 6.953125 -7.0625 L 3.578125 -0.078125 L 7 1.578125 L 6.28125 3.046875 Z M 1.0625 0.515625 "/></g></g></g><g clip-path="url(#aaeab590b4)"><path fill="#a4862b" d="M 75.722656 127.234375 C 49.277344 127.234375 27.738281 105.695312 27.738281 79.21875 C 27.738281 52.742188 49.277344 31.234375 75.722656 31.234375 C 102.167969 31.234375 123.707031 52.773438 123.707031 79.21875 C 123.738281 105.695312 102.199219 127.234375 75.722656 127.234375 Z M 75.722656 32.046875 C 49.699219 32.046875 28.550781 53.199219 28.550781 79.21875 C 28.550781 105.242188 49.730469 126.421875 75.722656 126.421875 C 101.710938 126.421875 122.925781 105.242188 122.925781 79.21875 C 122.925781 53.199219 101.746094 32.046875 75.722656 32.046875 Z M 75.722656 32.046875 " fill-opacity="1" fill-rule="nonzero"/></g><g clip-path="url(#c583de1b79)"><path fill="#a4862b" d="M 75.722656 127.234375 C 49.277344 127.234375 27.738281 105.695312 27.738281 79.21875 C 27.738281 52.742188 49.277344 31.234375 75.722656 31.234375 C 102.167969 31.234375 123.707031 52.773438 123.707031 79.21875 C 123.738281 105.695312 102.199219 127.234375 75.722656 127.234375 Z M 75.722656 32.046875 C 49.699219 32.046875 28.550781 53.199219 28.550781 79.21875 C 28.550781 105.242188 49.730469 126.421875 75.722656 126.421875 C 101.710938 126.421875 122.925781 105.242188 122.925781 79.21875 C 122.925781 53.199219 101.746094 32.046875 75.722656 32.046875 Z M 75.722656 32.046875 " fill-opacity="1" fill-rule="nonzero"/></g></svg>