<svg xmlns="http://www.w3.org/2000/svg" xmlns:xlink="http://www.w3.org/1999/xlink" width="202" zoomAndPan="magnify" viewBox="0 0 151.5 157.499993" height="210" preserveAspectRatio="xMidYMid meet" version="1.0"><defs><g/><clipPath id="4f7eb44167"><path d="M 2.933594 5.710938 L 148.566406 5.710938 L 148.566406 152.050781 L 2.933594 152.050781 Z M 2.933594 5.710938 " clip-rule="nonzero"/></clipPath><clipPath id="cc76e52226"><path d="M 75.75 5.710938 C 35.535156 5.710938 2.933594 38.46875 2.933594 78.882812 C 2.933594 119.292969 35.535156 152.050781 75.75 152.050781 C 115.964844 152.050781 148.566406 119.292969 148.566406 78.882812 C 148.566406 38.46875 115.964844 5.710938 75.75 5.710938 Z M 75.75 5.710938 " clip-rule="nonzero"/></clipPath><clipPath id="a5a3fb7e47"><path d="M 2.222656 5.710938 L 148.566406 5.710938 L 148.566406 152.050781 L 2.222656 152.050781 Z M 2.222656 5.710938 " clip-rule="nonzero"/></clipPath><clipPath id="c11158efdc"><path d="M 75.394531 5.710938 C 34.984375 5.710938 2.222656 38.46875 2.222656 78.882812 C 2.222656 119.292969 34.984375 152.050781 75.394531 152.050781 C 115.804688 152.050781 148.566406 119.292969 148.566406 78.882812 C 148.566406 38.46875 115.804688 5.710938 75.394531 5.710938 Z M 75.394531 5.710938 " clip-rule="nonzero"/></clipPath><clipPath id="b35565df6d"><path d="M 2.222656 5.5 L 148.742188 5.5 L 148.742188 152.015625 L 2.222656 152.015625 Z M 2.222656 5.5 " clip-rule="nonzero"/></clipPath><clipPath id="f7672e68d0"><path d="M 62 39.796875 L 77 39.796875 L 77 69 L 62 69 Z M 62 39.796875 " clip-rule="nonzero"/></clipPath><clipPath id="a58ef7d27e"><path d="M 18.714844 60.585938 L 148.742188 60.585938 L 148.742188 151.785156 L 18.714844 151.785156 Z M 18.714844 60.585938 " clip-rule="nonzero"/></clipPath><clipPath id="f4b524966b"><path d="M 2.222656 5.710938 L 132.296875 5.710938 L 132.296875 96.164062 L 2.222656 96.164062 Z M 2.222656 5.710938 " clip-rule="nonzero"/></clipPath><clipPath id="8a43d28ddc"><path d="M 28.394531 31.46875 L 96.421875 31.46875 L 96.421875 78.566406 L 28.394531 78.566406 Z M 28.394531 31.46875 " clip-rule="nonzero"/></clipPath><clipPath id="3c52c43431"><path d="M 46.136719 78.5 L 123.847656 78.5 L 123.847656 130 L 46.136719 130 Z M 46.136719 78.5 " clip-rule="nonzero"/></clipPath></defs><g clip-path="url(#4f7eb44167)"><g clip-path="url(#cc76e52226)"><path fill="#ffffff" d="M 2.933594 5.710938 L 148.566406 5.710938 L 148.566406 152.050781 L 2.933594 152.050781 Z M 2.933594 5.710938 " fill-opacity="1" fill-rule="nonzero"/></g></g><g clip-path="url(#a5a3fb7e47)"><g clip-path="url(#c11158efdc)"><path fill="#f4efed" d="M 2.222656 5.710938 L 148.566406 5.710938 L 148.566406 152.050781 L 2.222656 152.050781 Z M 2.222656 5.710938 " fill-opacity="1" fill-rule="nonzero"/></g></g><g clip-path="url(#b35565df6d)"><path fill="#de5947" d="M 75.484375 152.015625 C 35.089844 152.015625 2.222656 119.152344 2.222656 78.757812 C 2.222656 38.363281 35.089844 5.5 75.484375 5.5 C 115.878906 5.5 148.742188 38.363281 148.742188 78.757812 C 148.742188 119.152344 115.878906 152.015625 75.484375 152.015625 Z M 75.484375 6.796875 C 35.804688 6.796875 3.523438 39.078125 3.523438 78.757812 C 3.523438 118.4375 35.804688 150.714844 75.484375 150.714844 C 115.160156 150.714844 147.441406 118.4375 147.441406 78.757812 C 147.441406 39.078125 115.160156 6.796875 75.484375 6.796875 Z M 75.484375 6.796875 " fill-opacity="1" fill-rule="nonzero"/></g><path fill="#d93022" d="M 53.519531 60.375 C 60.472656 57.511719 68.75 60.421875 75.246094 67.105469 C 81.800781 60.113281 90.289062 57.019531 97.390625 59.941406 C 107.679688 64.171875 111.160156 79.4375 105.15625 94.035156 C 99.214844 108.484375 86.210938 116.851562 75.960938 112.914062 C 75.730469 113.023438 75.5 113.132812 75.261719 113.230469 C 64.964844 117.464844 51.757812 109.0625 45.75 94.464844 C 39.75 79.871094 43.226562 64.605469 53.519531 60.375 " fill-opacity="1" fill-rule="nonzero"/><path stroke-linecap="round" transform="matrix(-0.0371659, 0, 0, -0.0371612, 154.469665, 156.692677)" fill="none" stroke-linejoin="round" d="M 2716.202459 2591.885219 C 2529.119049 2668.93542 2306.405708 2590.623825 2131.619354 2410.769945 C 1955.256453 2598.928007 1726.867549 2682.180066 1535.790223 2603.553121 C 1258.948817 2489.712238 1165.302009 2078.917989 1326.84538 1686.098616 C 1486.707103 1297.27366 1836.595122 1072.114683 2112.385497 1178.071849 C 2118.586577 1175.128594 2124.787656 1172.18534 2131.198941 1169.557434 C 2408.250553 1055.611434 2763.60393 1281.716457 2925.252404 1674.53583 C 3086.690673 2067.250087 2993.148968 2478.044336 2716.202459 2591.885219 Z M 2716.202459 2591.885219 " stroke="#24578f" stroke-width="30" stroke-opacity="1" stroke-miterlimit="10"/><g clip-path="url(#f7672e68d0)"><path fill="#24578f" d="M 75.554688 68.628906 C 75.554688 68.628906 75.648438 68.09375 75.773438 67.152344 C 75.902344 66.210938 76.042969 64.863281 76.136719 63.238281 C 76.183594 62.429688 76.21875 61.546875 76.230469 60.609375 C 76.242188 59.675781 76.222656 58.691406 76.179688 57.664062 C 76.101562 55.621094 75.847656 53.4375 75.394531 51.265625 C 75.164062 50.179688 74.855469 49.101562 74.480469 48.058594 C 74.105469 47.019531 73.640625 46.007812 73.089844 45.070312 C 72.542969 44.136719 71.867188 43.289062 71.128906 42.570312 C 70.386719 41.855469 69.554688 41.292969 68.726562 40.886719 C 67.902344 40.484375 67.089844 40.246094 66.367188 40.109375 C 65.644531 39.949219 64.996094 39.957031 64.484375 40.0625 C 63.96875 40.175781 63.585938 40.363281 63.335938 40.535156 C 63.085938 40.707031 62.96875 40.832031 62.96875 40.832031 C 62.8125 40.992188 62.816406 41.242188 62.976562 41.398438 C 62.988281 41.410156 63.007812 41.425781 63.027344 41.4375 L 63.042969 41.453125 C 63.042969 41.453125 63.191406 41.550781 63.441406 41.675781 C 63.695312 41.785156 64.046875 41.933594 64.476562 42.042969 C 64.6875 42.105469 64.917969 42.136719 65.167969 42.1875 C 65.289062 42.203125 65.421875 42.222656 65.554688 42.230469 C 65.683594 42.253906 65.820312 42.277344 65.960938 42.300781 C 66.527344 42.398438 67.144531 42.574219 67.773438 42.871094 C 68.398438 43.171875 69.03125 43.59375 69.628906 44.148438 C 70.222656 44.710938 70.773438 45.402344 71.269531 46.183594 C 71.765625 46.96875 72.199219 47.847656 72.570312 48.785156 C 72.9375 49.71875 73.238281 50.707031 73.511719 51.710938 C 74.042969 53.726562 74.355469 55.820312 74.578125 57.789062 C 74.789062 59.761719 74.894531 61.625 74.941406 63.226562 C 74.992188 64.824219 74.988281 66.15625 74.976562 67.09375 C 74.960938 68.03125 74.933594 68.5625 74.933594 68.5625 C 74.925781 68.730469 75.0625 68.875 75.230469 68.886719 C 75.390625 68.894531 75.527344 68.785156 75.554688 68.628906 " fill-opacity="1" fill-rule="nonzero"/></g><path fill="#77cb4a" d="M 92.132812 45.652344 C 90.796875 43.605469 81.402344 42.820312 77.921875 44.371094 C 74.5 45.898438 73.3125 49.734375 74.648438 51.777344 C 75.980469 53.820312 80.171875 54.492188 82.746094 51.773438 C 85.941406 48.390625 93.460938 47.695312 92.132812 45.652344 " fill-opacity="1" fill-rule="nonzero"/><path stroke-linecap="round" transform="matrix(-0.0371659, 0, 0, -0.0371612, 154.469665, 156.692677)" fill="none" stroke-linejoin="round" d="M 1677.258914 2988.068312 C 1713.204154 3043.149219 1965.976963 3064.277583 2059.623772 3022.546437 C 2151.694034 2981.445989 2183.645358 2878.221845 2147.700119 2823.246054 C 2111.859982 2768.270263 1999.084421 2750.19027 1929.821518 2823.35117 C 1843.847232 2914.381831 1641.523881 2933.09252 1677.258914 2988.068312 Z M 1677.258914 2988.068312 " stroke="#24578f" stroke-width="30" stroke-opacity="1" stroke-miterlimit="10"/><path stroke-linecap="round" transform="matrix(-0.0371659, 0, 0, -0.0371612, 154.469665, 156.692677)" fill="none" stroke-linejoin="round" d="M 2263.628771 2401.940181 C 2263.628771 2401.940181 2516.927096 2628.570786 2713.574883 2498.647118 C 2713.574883 2498.647118 3053.583216 2333.614628 2860.298726 1725.306972 " stroke="#ffffff" stroke-width="30" stroke-opacity="1" stroke-miterlimit="10"/><path stroke-linecap="round" transform="matrix(-0.0371659, 0, 0, -0.0371612, 154.469665, 156.692677)" fill="none" stroke-linejoin="round" d="M 2153.585889 1211.919277 C 2153.585889 1211.919277 2461.012279 1124.14722 2713.574883 1458.627082 " stroke="#ffffff" stroke-width="30" stroke-opacity="1" stroke-miterlimit="10"/><path stroke-linecap="round" transform="matrix(-0.0371659, 0, 0, -0.0371612, 154.469665, 156.692677)" fill="none" stroke-linejoin="round" d="M 1646.884136 2575.276854 C 1646.884136 2575.276854 1950.316611 2565.290812 2091.890405 2358.632292 " stroke="#ffffff" stroke-width="30" stroke-opacity="1" stroke-miterlimit="10"/><path stroke-linecap="round" transform="matrix(-0.0371659, 0, 0, -0.0371612, 154.469665, 156.692677)" fill="none" stroke-linejoin="round" d="M 2060.25439 2972.826458 C 2060.25439 2972.826458 2126.048892 2936.876705 2115.328382 2853.624646 " stroke="#ffffff" stroke-width="30" stroke-opacity="1" stroke-miterlimit="10"/><g clip-path="url(#a58ef7d27e)"><path fill="#545454" d="M 75.363281 152.039062 C 35.054688 152.039062 2.222656 119.210938 2.222656 78.851562 C 2.222656 38.492188 35.054688 5.710938 75.363281 5.710938 C 115.671875 5.710938 148.503906 38.542969 148.503906 78.851562 C 148.554688 119.210938 115.722656 152.039062 75.363281 152.039062 Z M 75.363281 6.949219 C 35.699219 6.949219 3.460938 39.1875 3.460938 78.851562 C 3.460938 118.515625 35.75 150.800781 75.363281 150.800781 C 114.980469 150.800781 147.316406 118.515625 147.316406 78.851562 C 147.316406 39.1875 115.03125 6.949219 75.363281 6.949219 Z M 75.363281 6.949219 " fill-opacity="1" fill-rule="nonzero"/></g><g clip-path="url(#f4b524966b)"><path fill="#545454" d="M 75.363281 152.039062 C 35.054688 152.039062 2.222656 119.210938 2.222656 78.851562 C 2.222656 38.492188 35.054688 5.710938 75.363281 5.710938 C 115.671875 5.710938 148.503906 38.542969 148.503906 78.851562 C 148.554688 119.210938 115.722656 152.039062 75.363281 152.039062 Z M 75.363281 6.949219 C 35.699219 6.949219 3.460938 39.1875 3.460938 78.851562 C 3.460938 118.515625 35.75 150.800781 75.363281 150.800781 C 114.980469 150.800781 147.316406 118.515625 147.316406 78.851562 C 147.316406 39.1875 115.03125 6.949219 75.363281 6.949219 Z M 75.363281 6.949219 " fill-opacity="1" fill-rule="nonzero"/></g><g fill="#545454" fill-opacity="1"><g transform="translate(25.333256, 119.388098)"><g><path d="M 9.792969 7.003906 C 10.136719 6.550781 12.226562 3.910156 12.582031 3.449219 C 13.21875 2.660156 13.855469 3.230469 14.15625 2.769531 C 14.4375 2.34375 13.09375 0.960938 12.828125 0.691406 C 12.582031 0.4375 11.882812 -0.214844 11.5 -0.0625 L 11.492188 -0.0703125 L 7.386719 1.941406 L 9.386719 -2.265625 C 9.492188 -2.644531 8.820312 -3.363281 8.582031 -3.605469 C 8.316406 -3.878906 7.011719 -5.167969 6.582031 -4.949219 C 6.117188 -4.691406 6.722656 -3.929688 5.941406 -3.324219 L 2.300781 -0.554688 C 1.527344 0.0390625 0.875 -0.53125 0.53125 -0.152344 C 0.222656 0.1875 0.898438 0.953125 1.167969 1.222656 C 1.433594 1.496094 2.1875 2.261719 2.605469 1.996094 C 3.070312 1.703125 2.300781 0.882812 3.109375 0.265625 C 3.4375 0.0195312 4.984375 -1.171875 5.972656 -1.925781 L 3.816406 2.609375 C 3.652344 2.929688 3.726562 3.320312 3.984375 3.582031 L 4.367188 3.976562 C 4.636719 4.246094 5.03125 4.3125 5.367188 4.148438 L 9.945312 1.871094 L 7.632812 4.808594 C 7.015625 5.582031 6.304688 5.011719 6.042969 5.488281 C 5.808594 5.90625 7.128906 7.304688 7.394531 7.578125 C 7.664062 7.847656 9.023438 9.210938 9.359375 8.863281 C 9.722656 8.46875 9.15625 7.8125 9.792969 7.003906 Z M 9.792969 7.003906 "/></g></g></g><g fill="#545454" fill-opacity="1"><g transform="translate(37.276341, 130.718336)"><g><path d="M 5.46875 2.578125 C 5.40625 2.554688 5.332031 2.523438 5.277344 2.488281 C 4.476562 1.988281 4.582031 0.335938 5.109375 -1.34375 C 5.648438 -3.0625 6.554688 -4.878906 7.632812 -4.574219 C 7.722656 -4.546875 7.808594 -4.507812 7.886719 -4.460938 C 8.75 -3.917969 8.523438 -2.050781 8.042969 -0.570312 C 7.488281 1.152344 6.480469 2.933594 5.46875 2.578125 Z M 8.953125 -4.855469 C 6.746094 -6.242188 3.90625 -5.859375 2.457031 -3.546875 C 1.007812 -1.238281 1.898438 1.484375 4.109375 2.871094 C 6.328125 4.261719 9.175781 3.867188 10.617188 1.570312 C 12.058594 -0.730469 11.175781 -3.464844 8.953125 -4.855469 Z M 8.953125 -4.855469 "/></g></g></g><g fill="#545454" fill-opacity="1"><g transform="translate(48.722435, 137.645492)"><g><path d="M 11.898438 1.839844 C 12.003906 1.28125 12.675781 -2.015625 12.789062 -2.589844 C 13 -3.582031 13.824219 -3.359375 13.882812 -3.90625 C 13.945312 -4.410156 12.125 -5.042969 11.765625 -5.164062 C 11.429688 -5.277344 10.511719 -5.546875 10.238281 -5.234375 L 10.226562 -5.242188 L 7.46875 -1.59375 L 7.359375 -6.253906 C 7.28125 -6.636719 6.359375 -6.976562 6.039062 -7.085938 C 5.675781 -7.210938 3.929688 -7.773438 3.648438 -7.382812 C 3.347656 -6.945312 4.230469 -6.535156 3.804688 -5.644531 L 1.804688 -1.535156 C 1.382812 -0.652344 0.542969 -0.867188 0.402344 -0.375 C 0.28125 0.0664062 1.234375 0.445312 1.59375 0.566406 C 1.953125 0.6875 2.96875 1.03125 3.226562 0.609375 C 3.507812 0.136719 2.449219 -0.25 2.898438 -1.164062 C 3.078125 -1.53125 3.921875 -3.292969 4.46875 -4.410156 L 4.582031 0.609375 C 4.582031 0.96875 4.820312 1.285156 5.167969 1.402344 L 5.691406 1.582031 C 6.050781 1.703125 6.4375 1.582031 6.660156 1.285156 L 9.722656 -2.808594 L 8.980469 0.855469 C 8.777344 1.824219 7.886719 1.632812 7.867188 2.179688 C 7.84375 2.65625 9.65625 3.308594 10.015625 3.433594 C 10.375 3.554688 12.207031 4.160156 12.347656 3.695312 C 12.496094 3.179688 11.695312 2.851562 11.898438 1.839844 Z M 11.898438 1.839844 "/></g></g></g><g fill="#545454" fill-opacity="1"><g transform="translate(64.45882, 142.335811)"><g><path d="M 0.308594 -0.429688 C 0.34375 -0.03125 2.773438 0.308594 3.660156 0.410156 L 3.671875 0.410156 C 3.710938 0.414062 7.78125 0.828125 8.347656 0.660156 C 8.828125 0.5 8.894531 -0.179688 8.9375 -0.59375 C 8.980469 -1 9.105469 -1.871094 8.546875 -1.925781 C 7.867188 -1.996094 7.835938 0.00390625 6.46875 -0.132812 L 4.980469 -0.285156 C 4.515625 -0.371094 4.273438 -0.699219 4.367188 -1.636719 L 4.539062 -3.320312 L 4.5625 -3.316406 C 5.933594 -3.179688 5.484375 -1.878906 6.164062 -1.8125 C 6.671875 -1.761719 6.640625 -2.371094 6.683594 -2.785156 L 6.832031 -4.246094 C 6.875 -4.664062 7.027344 -5.265625 6.519531 -5.320312 C 5.839844 -5.386719 6.019531 -4.011719 4.648438 -4.152344 L 4.621094 -4.15625 L 4.820312 -6.109375 C 4.921875 -7.101562 5.261719 -7.34375 5.785156 -7.304688 L 6.789062 -7.203125 C 8.15625 -7.0625 7.789062 -5.097656 8.464844 -5.03125 C 9.039062 -4.972656 9.074219 -5.851562 9.117188 -6.253906 C 9.160156 -6.671875 9.242188 -7.347656 8.792969 -7.605469 C 8.316406 -7.863281 6.023438 -8.109375 4.851562 -8.226562 C 4.605469 -8.253906 4.40625 -8.273438 4.289062 -8.285156 L 4.277344 -8.273438 C 3.507812 -8.351562 1.203125 -8.492188 1.085938 -8.097656 C 0.953125 -7.59375 1.855469 -7.398438 1.757812 -6.421875 L 1.304688 -1.949219 C 1.203125 -0.972656 0.28125 -0.960938 0.308594 -0.429688 Z M 0.308594 -0.429688 "/></g></g></g><g fill="#545454" fill-opacity="1"><g transform="translate(76.634213, 143.298324)"><g><path d="M 8.847656 -9.027344 C 8.746094 -9.519531 7.6875 -9.429688 7.308594 -9.390625 C 6.933594 -9.355469 5.894531 -9.199219 5.859375 -8.738281 C 5.820312 -8.21875 6.804688 -8.238281 6.898438 -7.257812 L 7.144531 -4.765625 C 6.046875 -5.871094 4.566406 -7.292969 3.410156 -8.472656 C 3.101562 -8.796875 2.652344 -8.960938 2.207031 -8.917969 C 2.027344 -8.902344 1.832031 -8.882812 1.660156 -8.867188 C 1.308594 -8.832031 1.023438 -8.804688 1.023438 -8.804688 C 0.644531 -8.765625 -0.5 -8.628906 -0.53125 -8.136719 C -0.5625 -7.621094 0.425781 -7.613281 0.523438 -6.632812 L 0.960938 -2.175781 C 1.054688 -1.195312 0.0859375 -0.996094 0.214844 -0.496094 C 0.335938 -0.046875 1.386719 -0.0976562 1.765625 -0.132812 C 2.15625 -0.171875 3.210938 -0.289062 3.203125 -0.789062 C 3.191406 -1.3125 2.273438 -1.277344 2.171875 -2.292969 C 2.132812 -2.683594 1.96875 -4.351562 1.851562 -5.554688 L 6.328125 -1.132812 C 6.648438 -0.820312 7.085938 -0.667969 7.515625 -0.707031 L 7.878906 -0.746094 C 7.984375 -0.742188 8.089844 -0.753906 8.15625 -0.757812 C 8.535156 -0.796875 9.027344 -0.855469 9.019531 -1.355469 C 9.019531 -1.882812 8.664062 -1.902344 8.5625 -2.917969 C 8.507812 -3.492188 8.183594 -6.804688 8.125 -7.378906 C 8.027344 -8.394531 8.9375 -8.5 8.847656 -9.027344 Z M 8.847656 -9.027344 "/></g></g></g><g fill="#545454" fill-opacity="1"><g transform="translate(89.681875, 141.677293)"><g><path d="M -0.792969 -4.980469 C 0.03125 -5.28125 -1.390625 -7.789062 -0.0664062 -8.199219 L 0.121094 -8.257812 C 0.636719 -8.417969 0.90625 -8.214844 1.207031 -7.238281 L 2.539062 -2.957031 C 2.832031 -2.019531 1.984375 -1.644531 2.214844 -1.167969 C 2.421875 -0.765625 4.277344 -1.289062 4.640625 -1.402344 C 5.003906 -1.515625 6.839844 -2.097656 6.734375 -2.574219 C 6.625 -3.101562 5.78125 -2.894531 5.480469 -3.871094 L 4.144531 -8.164062 C 3.871094 -9.050781 3.941406 -9.390625 4.351562 -9.574219 L 4.640625 -9.664062 C 5.953125 -10.070312 6.203125 -7.199219 7.050781 -7.421875 C 7.609375 -7.566406 7.183594 -8.984375 7.0625 -9.371094 C 6.9375 -9.773438 6.613281 -10.769531 6.105469 -10.816406 C 5.808594 -10.847656 4.015625 -10.347656 2.203125 -9.78125 C 0.285156 -9.1875 -1.660156 -8.515625 -1.898438 -8.316406 C -2.289062 -7.988281 -2.035156 -6.984375 -1.910156 -6.582031 C -1.789062 -6.195312 -1.335938 -4.785156 -0.792969 -4.980469 Z M -0.792969 -4.980469 "/></g></g></g><g fill="#545454" fill-opacity="1"><g transform="translate(101.872205, 137.563756)"><g><path d="M 4.902344 -3.539062 C 4.851562 -3.496094 4.789062 -3.445312 4.730469 -3.414062 C 3.90625 -2.957031 2.511719 -3.847656 1.296875 -5.121094 C 0.0507812 -6.425781 -1.097656 -8.09375 -0.3125 -8.890625 C -0.242188 -8.957031 -0.167969 -9.015625 -0.0898438 -9.058594 C 0.804688 -9.554688 2.328125 -8.449219 3.390625 -7.316406 C 4.632812 -5.996094 5.703125 -4.253906 4.902344 -3.539062 Z M 0.0820312 -10.1875 C -2.199219 -8.921875 -3.238281 -6.25 -1.917969 -3.867188 C -0.597656 -1.480469 2.21875 -0.945312 4.5 -2.207031 C 6.792969 -3.476562 7.824219 -6.160156 6.507812 -8.535156 C 5.195312 -10.90625 2.371094 -11.457031 0.0820312 -10.1875 Z M 0.0820312 -10.1875 "/></g></g></g><g fill="#545454" fill-opacity="1"><g transform="translate(113.078484, 130.841229)"><g><path d="M 0.65625 -3.769531 C -0.0976562 -3.160156 -0.320312 -2.179688 0.171875 -1.566406 C 0.65625 -0.960938 1.664062 -0.964844 2.417969 -1.570312 C 3.175781 -2.175781 3.398438 -3.160156 2.914062 -3.761719 C 2.421875 -4.375 1.414062 -4.375 0.65625 -3.769531 Z M 0.65625 -3.769531 "/></g></g></g><g fill="#545454" fill-opacity="1"><g transform="translate(119.717797, 125.416321)"><g><path d="M -3.246094 -3.863281 C -2.691406 -4.542969 -5.203125 -5.957031 -4.277344 -6.996094 L -4.148438 -7.140625 C -3.789062 -7.542969 -3.453125 -7.507812 -2.691406 -6.824219 L 0.652344 -3.84375 C 1.386719 -3.1875 0.855469 -2.433594 1.296875 -2.144531 C 1.683594 -1.90625 3.003906 -3.308594 3.257812 -3.59375 C 3.511719 -3.875 4.78125 -5.320312 4.445312 -5.671875 C 4.082031 -6.070312 3.464844 -5.460938 2.703125 -6.140625 L -0.652344 -9.132812 C -1.34375 -9.753906 -1.457031 -10.078125 -1.199219 -10.445312 L -1 -10.671875 C -0.0820312 -11.699219 1.609375 -9.363281 2.222656 -9.992188 C 2.628906 -10.40625 1.53125 -11.402344 1.226562 -11.671875 C 0.914062 -11.949219 0.125 -12.640625 -0.335938 -12.417969 C -0.609375 -12.289062 -1.886719 -10.9375 -3.152344 -9.519531 C -4.484375 -8.023438 -5.804688 -6.445312 -5.910156 -6.152344 C -6.078125 -5.667969 -5.339844 -4.941406 -5.027344 -4.660156 C -4.722656 -4.390625 -3.609375 -3.414062 -3.246094 -3.863281 Z M -3.246094 -3.863281 "/></g></g></g><g fill="#545454" fill-opacity="1"><g transform="translate(128.04815, 115.611453)"><g><path d="M 2.378906 -5.558594 C 2.355469 -5.492188 2.328125 -5.417969 2.296875 -5.363281 C 1.824219 -4.546875 0.171875 -4.59375 -1.527344 -5.058594 C -3.265625 -5.535156 -5.109375 -6.375 -4.84375 -7.460938 C -4.820312 -7.554688 -4.789062 -7.640625 -4.742188 -7.71875 C -4.230469 -8.605469 -2.355469 -8.445312 -0.859375 -8.019531 C 0.882812 -7.527344 2.699219 -6.582031 2.378906 -5.558594 Z M -5.175781 -8.773438 C -6.480469 -6.515625 -5.996094 -3.691406 -3.632812 -2.328125 C -1.273438 -0.964844 1.414062 -1.953125 2.71875 -4.210938 C 4.03125 -6.480469 3.53125 -9.308594 1.183594 -10.667969 C -1.164062 -12.023438 -3.867188 -11.042969 -5.175781 -8.773438 Z M -5.175781 -8.773438 "/></g></g></g><g fill="#545454" fill-opacity="1"><g transform="translate(134.376854, 103.981864)"><g><path d="M -2.058594 -7.546875 C 0.0703125 -6.847656 1.078125 -5.796875 0.78125 -4.902344 C 0.609375 -4.378906 0.308594 -4.296875 -0.664062 -4.617188 C -0.886719 -4.691406 -4.695312 -5.941406 -4.933594 -6.019531 C -5.90625 -6.339844 -6.101562 -6.582031 -5.929688 -7.105469 C -5.609375 -7.992188 -4.1875 -8.246094 -2.074219 -7.550781 Z M -6.882812 -6.796875 C -6.9375 -6.636719 -7.105469 -6.167969 -7.109375 -6.15625 C -7.226562 -5.792969 -8.085938 -3.015625 -7.675781 -2.796875 C -7.214844 -2.5625 -6.828125 -3.402344 -5.894531 -3.09375 L -1.625 -1.691406 C -0.691406 -1.386719 -0.875 -0.480469 -0.355469 -0.390625 C 0.105469 -0.324219 1.328125 -3.921875 1.382812 -4.082031 C 2.355469 -7.089844 1.476562 -9.707031 -1.011719 -10.566406 L -1.125 -10.605469 C -3.640625 -11.386719 -5.898438 -9.800781 -6.882812 -6.796875 Z M -6.882812 -6.796875 "/></g></g></g><g fill="#545454" fill-opacity="1"><g transform="translate(138.182582, 91.389531)"><g><path d="M -2.769531 -3.289062 C -3.628906 -3.75 -4.875 -4.425781 -5.671875 -4.851562 L -5.292969 -4.96875 C -5.210938 -4.988281 -5.140625 -5.019531 -5.0625 -5.039062 L -2.496094 -5.855469 Z M -1.171875 -9.234375 C -1.445312 -9.144531 -5.894531 -7.816406 -5.894531 -7.816406 C -6.957031 -7.507812 -8.003906 -7.460938 -8.3125 -5.820312 C -8.316406 -5.769531 -8.339844 -5.691406 -8.347656 -5.601562 C -8.398438 -5.117188 -8.398438 -4.261719 -7.96875 -4.085938 C -7.679688 -3.972656 -7.476562 -4.136719 -7.046875 -4.355469 L -2.007812 -1.664062 C -1.035156 -1.152344 -1.027344 -0.242188 -0.480469 -0.183594 C -0.0625 -0.140625 0.136719 -1.011719 0.1875 -1.390625 C 0.230469 -1.78125 0.363281 -3.03125 -0.136719 -3.136719 C -0.679688 -3.261719 -0.859375 -2.292969 -1.886719 -2.8125 L -1.984375 -2.863281 L -1.636719 -6.132812 L -1.5 -6.171875 C -0.4375 -6.480469 -0.355469 -5.535156 0.113281 -5.617188 C 0.636719 -5.691406 0.851562 -7.566406 0.90625 -8.074219 C 0.953125 -8.515625 1.125 -10.132812 0.621094 -10.320312 C -0.00390625 -10.542969 -0.0703125 -9.550781 -1.171875 -9.234375 Z M -1.171875 -9.234375 "/></g></g></g><g fill="#545454" fill-opacity="1"><g transform="translate(139.281082, 77.733348)"><g><path d="M -9.503906 -7.625 C -9.464844 -7.246094 -9.332031 -5.984375 -8.960938 -5.96875 C -8.566406 -5.957031 -8.59375 -6.96875 -7.792969 -6.617188 C -7.503906 -6.488281 -6.148438 -5.90625 -5.210938 -5.492188 L -7.503906 -3.734375 C -8.191406 -3.242188 -8.429688 -4.152344 -8.742188 -3.988281 C -9.105469 -3.804688 -8.894531 -1.761719 -8.851562 -1.382812 C -8.8125 -0.992188 -8.644531 0.625 -8.253906 0.714844 C -7.769531 0.8125 -7.894531 -0.164062 -7.183594 -0.671875 C -6.988281 -0.8125 -5.191406 -2.144531 -3.90625 -3.082031 L -2.417969 -3.238281 C -1.441406 -3.339844 -1.242188 -2.425781 -0.730469 -2.570312 C -0.28125 -2.699219 -0.441406 -4.605469 -0.480469 -4.984375 C -0.519531 -5.359375 -0.734375 -7.289062 -1.21875 -7.277344 C -1.757812 -7.261719 -1.722656 -6.40625 -2.738281 -6.300781 C -2.949219 -6.28125 -3.507812 -6.222656 -4.171875 -6.152344 L -7.910156 -7.75 C -8.683594 -8.09375 -8.855469 -8.972656 -9.257812 -8.929688 C -9.558594 -8.910156 -9.542969 -8.003906 -9.503906 -7.625 Z M -9.503906 -7.625 "/></g></g></g><g fill="#545454" fill-opacity="1"><g transform="translate(19.808026, 72.659493)"><g><path d="M -1.734375 -9.132812 C -1.078125 -8.535156 -0.324219 -7.890625 -0.488281 -6.519531 C -0.886719 -4.503906 -2.960938 -3.9375 -4.765625 -4.28125 C -6.300781 -4.558594 -6.980469 -5.371094 -6.964844 -6.117188 C -6.96875 -6.238281 -6.949219 -6.339844 -6.929688 -6.445312 C -6.785156 -7.164062 -6.195312 -7.515625 -5.175781 -7.328125 C -4.222656 -7.152344 -3.496094 -7.382812 -3.292969 -8.410156 C -3.140625 -9.183594 -3.519531 -9.964844 -4.535156 -10.046875 C -5.257812 -10.109375 -7.117188 -9.539062 -7.683594 -6.6875 C -7.710938 -6.53125 -7.746094 -6.367188 -7.765625 -6.195312 C -8.09375 -3.789062 -6.738281 -1.53125 -4.191406 -1.027344 C -1.53125 -0.503906 0.667969 -2.230469 1.160156 -4.714844 C 1.578125 -6.835938 0.628906 -8.933594 -1.304688 -9.820312 L -1.320312 -9.824219 C -1.625 -9.964844 -1.859375 -9.796875 -1.902344 -9.566406 C -1.933594 -9.425781 -1.882812 -9.269531 -1.734375 -9.132812 Z M -1.734375 -9.132812 "/></g></g></g><g fill="#545454" fill-opacity="1"><g transform="translate(22.09919, 61.763199)"><g><path d="M 1.667969 -5.808594 C 1.652344 -5.746094 1.636719 -5.667969 1.609375 -5.605469 C 1.242188 -4.738281 -0.402344 -4.578125 -2.144531 -4.828125 C -3.929688 -5.082031 -5.863281 -5.6875 -5.738281 -6.800781 C -5.726562 -6.894531 -5.703125 -6.984375 -5.667969 -7.066406 C -5.269531 -8.007812 -3.390625 -8.085938 -1.851562 -7.847656 C -0.0625 -7.578125 1.855469 -6.867188 1.667969 -5.808594 Z M -6.230469 -8.058594 C -7.242188 -5.65625 -6.40625 -2.914062 -3.894531 -1.855469 C -1.382812 -0.796875 1.160156 -2.113281 2.175781 -4.515625 C 3.191406 -6.929688 2.34375 -9.675781 -0.15625 -10.730469 C -2.652344 -11.785156 -5.210938 -10.472656 -6.230469 -8.058594 Z M -6.230469 -8.058594 "/></g></g></g><g fill="#545454" fill-opacity="1"><g transform="translate(26.765927, 51.178075)"><g><path d="M 3.046875 -9.050781 C 1.996094 -9.675781 0.667969 -9.011719 -0.25 -8.53125 C -1.03125 -8.113281 -2.347656 -7.441406 -2.679688 -7.304688 C -3.242188 -7.039062 -3.75 -6.878906 -4.171875 -7.261719 C -4.582031 -7.640625 -4.417969 -8.179688 -4.140625 -8.578125 C -3.804688 -9.046875 -3.335938 -9.265625 -2.75 -9.101562 C -2.175781 -8.945312 -1.21875 -8.558594 -0.566406 -9.226562 C -0.503906 -9.292969 -0.441406 -9.363281 -0.390625 -9.4375 C 0.046875 -10.074219 -0.359375 -10.734375 -0.941406 -10.929688 C -1.796875 -11.210938 -3.226562 -10.746094 -4.484375 -9.144531 C -4.597656 -9.003906 -4.703125 -8.851562 -4.796875 -8.710938 C -6.082031 -6.839844 -6.078125 -5.109375 -5.171875 -4.230469 C -3.960938 -3.097656 -2.417969 -3.867188 -1.652344 -4.3125 C -1.132812 -4.605469 -0.214844 -5.105469 0.015625 -5.234375 C 0.476562 -5.488281 1.671875 -6.351562 2.394531 -5.714844 C 2.722656 -5.425781 2.820312 -4.851562 2.382812 -4.214844 C 1.789062 -3.347656 1 -3.078125 0.015625 -3.519531 C -0.828125 -3.890625 -1.519531 -3.761719 -1.941406 -3.144531 C -2.003906 -3.058594 -2.050781 -2.964844 -2.105469 -2.859375 C -2.445312 -2.15625 -2.078125 -1.488281 -1.371094 -1.242188 C 0.222656 -0.71875 2.167969 -2.675781 2.992188 -3.875 C 4.4375 -5.980469 4.671875 -8.0625 3.046875 -9.050781 Z M 3.046875 -9.050781 "/></g></g></g><g fill="#545454" fill-opacity="1"><g transform="translate(33.113339, 42.229607)"><g><path d="M -0.132812 -0.511719 C 0.199219 -0.285156 2.011719 -1.933594 2.65625 -2.550781 L 2.667969 -2.558594 C 2.695312 -2.585938 5.613281 -5.449219 5.851562 -5.992188 C 6.03125 -6.464844 5.554688 -6.949219 5.261719 -7.25 C 4.976562 -7.539062 4.390625 -8.195312 3.988281 -7.800781 C 3.5 -7.324219 5.015625 -6.019531 4.035156 -5.058594 L 2.96875 -4.011719 C 2.601562 -3.707031 2.195312 -3.730469 1.535156 -4.40625 L 0.351562 -5.613281 L 0.371094 -5.628906 C 1.351562 -6.59375 2.0625 -5.417969 2.550781 -5.894531 C 2.914062 -6.253906 2.429688 -6.621094 2.132812 -6.917969 L 1.105469 -7.96875 C 0.8125 -8.265625 0.449219 -8.769531 0.0820312 -8.414062 C -0.402344 -7.9375 0.765625 -7.191406 -0.21875 -6.230469 L -0.234375 -6.210938 L -1.613281 -7.613281 C -2.308594 -8.324219 -2.277344 -8.742188 -1.914062 -9.117188 L -1.191406 -9.824219 C -0.210938 -10.789062 1.0625 -9.246094 1.550781 -9.722656 C 1.960938 -10.128906 1.308594 -10.71875 1.023438 -11.007812 C 0.730469 -11.308594 0.265625 -11.804688 -0.21875 -11.621094 C -0.722656 -11.421875 -2.378906 -9.816406 -3.21875 -8.992188 C -3.398438 -8.816406 -3.539062 -8.679688 -3.621094 -8.597656 L -3.621094 -8.578125 C -4.175781 -8.039062 -5.757812 -6.359375 -5.527344 -6.011719 C -5.226562 -5.59375 -4.5 -6.160156 -3.8125 -5.457031 L -0.664062 -2.25 C 0.0234375 -1.546875 -0.558594 -0.832031 -0.132812 -0.511719 Z M -0.132812 -0.511719 "/></g></g></g><g fill="#545454" fill-opacity="1"><g transform="translate(40.771725, 34.897248)"><g><path d="M 5.308594 -7.628906 C 5.34375 -6.742188 5.410156 -5.753906 4.316406 -4.910156 C 2.597656 -3.785156 0.742188 -4.871094 -0.277344 -6.398438 C -1.152344 -7.6875 -1.046875 -8.746094 -0.503906 -9.257812 C -0.417969 -9.34375 -0.332031 -9.402344 -0.242188 -9.460938 C 0.371094 -9.859375 1.035156 -9.683594 1.613281 -8.828125 C 2.152344 -8.023438 2.828125 -7.664062 3.703125 -8.238281 C 4.363281 -8.667969 4.65625 -9.488281 4.003906 -10.269531 C 3.542969 -10.828125 1.835938 -11.761719 -0.597656 -10.167969 C -0.730469 -10.082031 -0.871094 -9.988281 -1.007812 -9.882812 C -2.957031 -8.433594 -3.621094 -5.882812 -2.199219 -3.714844 C -0.710938 -1.445312 2.0625 -1.085938 4.179688 -2.472656 C 5.988281 -3.65625 6.820312 -5.800781 6.101562 -7.804688 L 6.097656 -7.816406 C 5.980469 -8.132812 5.699219 -8.183594 5.5 -8.054688 C 5.382812 -7.976562 5.304688 -7.828125 5.308594 -7.628906 Z M 5.308594 -7.628906 "/></g></g></g><g fill="#545454" fill-opacity="1"><g transform="translate(50.112647, 28.881731)"><g><path d="M 0.078125 -0.523438 C 0.316406 -0.121094 2.128906 -0.777344 2.484375 -0.914062 C 2.839844 -1.050781 4.632812 -1.757812 4.503906 -2.226562 C 4.347656 -2.742188 3.523438 -2.480469 3.15625 -3.433594 L 2.460938 -5.234375 L 4.933594 -6.183594 L 5.625 -4.386719 C 5.980469 -3.46875 5.148438 -3.039062 5.421875 -2.582031 C 5.660156 -2.183594 7.460938 -2.832031 7.816406 -2.96875 C 8.183594 -3.113281 9.972656 -3.816406 9.835938 -4.285156 C 9.691406 -4.804688 8.867188 -4.542969 8.5 -5.496094 L 6.886719 -9.675781 C 6.523438 -10.617188 7.3125 -10.976562 7.070312 -11.460938 C 6.855469 -11.910156 5.050781 -11.230469 4.683594 -11.089844 C 4.332031 -10.953125 2.5625 -10.214844 2.65625 -9.757812 C 2.753906 -9.25 3.660156 -9.488281 4.011719 -8.570312 L 4.636719 -6.957031 L 2.164062 -6.003906 L 1.542969 -7.617188 C 1.179688 -8.558594 1.96875 -8.917969 1.738281 -9.40625 C 1.511719 -9.851562 -0.292969 -9.171875 -0.644531 -9.035156 C -1 -8.898438 -2.777344 -8.15625 -2.6875 -7.699219 C -2.578125 -7.195312 -1.683594 -7.425781 -1.328125 -6.507812 L 0.28125 -2.328125 C 0.636719 -1.410156 -0.183594 -0.984375 0.078125 -0.523438 Z M 0.078125 -0.523438 "/></g></g></g><g fill="#545454" fill-opacity="1"><g transform="translate(61.820725, 24.574587)"><g><path d="M 2.480469 -3.511719 C 2.710938 -4.460938 3.050781 -5.835938 3.261719 -6.714844 L 3.472656 -6.375 C 3.507812 -6.300781 3.558594 -6.242188 3.59375 -6.167969 L 5.035156 -3.894531 Z M 8.636719 -3.464844 C 8.480469 -3.707031 6.074219 -7.679688 6.074219 -7.679688 C 5.507812 -8.628906 5.199219 -9.628906 3.53125 -9.511719 C 3.480469 -9.503906 3.402344 -9.503906 3.308594 -9.492188 C 2.832031 -9.421875 2 -9.203125 1.9375 -8.742188 C 1.90625 -8.433594 2.113281 -8.28125 2.433594 -7.917969 L 1.105469 -2.363281 C 0.851562 -1.292969 -0.0273438 -1.054688 0.0546875 -0.511719 C 0.117188 -0.0976562 1.015625 -0.125 1.390625 -0.167969 C 1.78125 -0.226562 3.027344 -0.414062 3 -0.925781 C 2.984375 -1.480469 2 -1.414062 2.246094 -2.535156 L 2.265625 -2.644531 L 5.519531 -3.132812 L 5.589844 -3.007812 C 6.15625 -2.0625 5.265625 -1.742188 5.460938 -1.308594 C 5.667969 -0.820312 7.535156 -1.085938 8.039062 -1.164062 C 8.480469 -1.230469 10.089844 -1.46875 10.140625 -2.007812 C 10.203125 -2.664062 9.222656 -2.480469 8.636719 -3.464844 Z M 8.636719 -3.464844 "/></g></g></g><g fill="#545454" fill-opacity="1"><g transform="translate(73.933094, 23.184944)"><g/></g></g><g fill="#545454" fill-opacity="1"><g transform="translate(78.608554, 23.071314)"><g><path d="M 7.097656 -3.289062 C 6.761719 -1.070312 5.894531 0.0976562 4.964844 -0.046875 C 4.417969 -0.128906 4.289062 -0.410156 4.441406 -1.421875 C 4.476562 -1.65625 5.078125 -5.621094 5.113281 -5.867188 C 5.265625 -6.878906 5.476562 -7.109375 6.019531 -7.027344 C 6.949219 -6.863281 7.433594 -5.503906 7.097656 -3.300781 Z M 5.558594 -7.921875 C 5.390625 -7.945312 4.898438 -8.035156 4.886719 -8.035156 C 4.507812 -8.09375 1.625 -8.476562 1.480469 -8.03125 C 1.324219 -7.539062 2.214844 -7.296875 2.070312 -6.328125 L 1.398438 -1.882812 C 1.25 -0.910156 0.328125 -0.945312 0.328125 -0.414062 C 0.335938 0.0507812 4.089844 0.65625 4.257812 0.683594 C 7.382812 1.140625 9.816406 -0.160156 10.25 -2.757812 L 10.269531 -2.875 C 10.621094 -5.484375 8.679688 -7.449219 5.558594 -7.921875 Z M 5.558594 -7.921875 "/></g></g></g><g fill="#545454" fill-opacity="1"><g transform="translate(89.924842, 24.982164)"><g><path d="M 0.402344 -0.339844 C 0.34375 0.0546875 2.613281 0.976562 3.449219 1.292969 L 3.460938 1.296875 C 3.496094 1.3125 7.339844 2.707031 7.933594 2.6875 C 8.4375 2.644531 8.667969 2.003906 8.8125 1.609375 C 8.949219 1.230469 9.285156 0.417969 8.757812 0.222656 C 8.117188 -0.0078125 7.597656 1.921875 6.304688 1.453125 L 4.898438 0.941406 C 4.46875 0.746094 4.3125 0.367188 4.636719 -0.519531 L 5.214844 -2.109375 L 5.238281 -2.097656 C 6.53125 -1.628906 5.777344 -0.480469 6.417969 -0.246094 C 6.898438 -0.0742188 7.019531 -0.671875 7.164062 -1.066406 L 7.664062 -2.445312 C 7.808594 -2.839844 8.101562 -3.386719 7.621094 -3.5625 C 6.980469 -3.792969 6.816406 -2.417969 5.523438 -2.886719 L 5.5 -2.898438 L 6.171875 -4.742188 C 6.511719 -5.679688 6.898438 -5.832031 7.398438 -5.664062 L 8.34375 -5.320312 C 9.636719 -4.851562 8.796875 -3.035156 9.4375 -2.804688 C 9.980469 -2.605469 10.230469 -3.449219 10.371094 -3.832031 C 10.511719 -4.226562 10.757812 -4.863281 10.386719 -5.21875 C 9.988281 -5.585938 7.828125 -6.386719 6.71875 -6.789062 C 6.484375 -6.875 6.300781 -6.941406 6.1875 -6.980469 L 6.171875 -6.972656 C 5.445312 -7.238281 3.246094 -7.9375 3.03125 -7.585938 C 2.785156 -7.128906 3.609375 -6.71875 3.277344 -5.796875 L 1.742188 -1.570312 C 1.40625 -0.648438 0.507812 -0.859375 0.402344 -0.339844 Z M 0.402344 -0.339844 "/></g></g></g><g fill="#545454" fill-opacity="1"><g transform="translate(99.860672, 28.78561)"><g><path d="M 8.273438 0.648438 C 7.6875 0.300781 6.394531 2.855469 5.195312 2.152344 L 4.644531 1.824219 C 4.257812 1.550781 4.171875 1.152344 4.652344 0.339844 C 4.9375 -0.144531 6.636719 -3.023438 6.929688 -3.523438 C 7.441406 -4.390625 8.210938 -3.996094 8.453125 -4.480469 C 8.660156 -4.933594 7.007812 -5.925781 6.679688 -6.117188 C 6.351562 -6.3125 4.664062 -7.242188 4.363281 -6.890625 C 4.039062 -6.488281 4.773438 -5.933594 4.273438 -5.085938 L 2 -1.226562 C 1.5 -0.378906 0.65625 -0.753906 0.457031 -0.261719 C 0.292969 0.203125 3.003906 1.816406 3.523438 2.125 C 4.417969 2.648438 6.039062 3.589844 6.574219 3.660156 C 7.085938 3.71875 7.625 2.910156 7.835938 2.550781 C 8.042969 2.199219 8.769531 0.941406 8.273438 0.648438 Z M 8.273438 0.648438 "/></g></g></g><g clip-path="url(#8a43d28ddc)"><path fill="#a4862b" d="M 76.121094 126.957031 C 49.816406 126.957031 28.394531 105.53125 28.394531 79.195312 C 28.394531 52.863281 49.816406 31.46875 76.121094 31.46875 C 102.425781 31.46875 123.847656 52.894531 123.847656 79.195312 C 123.878906 105.53125 102.457031 126.957031 76.121094 126.957031 Z M 76.121094 32.277344 C 50.238281 32.277344 29.203125 53.3125 29.203125 79.195312 C 29.203125 105.082031 50.269531 126.148438 76.121094 126.148438 C 101.972656 126.148438 123.074219 105.082031 123.074219 79.195312 C 123.074219 53.3125 102.003906 32.277344 76.121094 32.277344 Z M 76.121094 32.277344 " fill-opacity="1" fill-rule="nonzero"/></g><g clip-path="url(#3c52c43431)"><path fill="#a4862b" d="M 75.890625 129.824219 C 49.585938 129.824219 28.164062 108.402344 28.164062 82.066406 C 28.164062 55.730469 49.585938 34.339844 75.890625 34.339844 C 102.195312 34.339844 123.617188 55.765625 123.617188 82.066406 C 123.648438 108.402344 102.226562 129.824219 75.890625 129.824219 Z M 75.890625 35.148438 C 50.007812 35.148438 28.972656 56.183594 28.972656 82.066406 C 28.972656 107.949219 50.039062 129.019531 75.890625 129.019531 C 101.742188 129.019531 122.839844 107.949219 122.839844 82.066406 C 122.839844 56.183594 101.773438 35.148438 75.890625 35.148438 Z M 75.890625 35.148438 " fill-opacity="1" fill-rule="nonzero"/></g></svg>