<svg xmlns="http://www.w3.org/2000/svg" xmlns:xlink="http://www.w3.org/1999/xlink" width="202" zoomAndPan="magnify" viewBox="0 0 151.5 157.499993" height="210" preserveAspectRatio="xMidYMid meet" version="1.0"><defs><clipPath id="8d85272f4a"><path d="M 60 30.417969 L 77 30.417969 L 77 67 L 60 67 Z M 60 30.417969 " clip-rule="nonzero"/></clipPath></defs><path fill="#d93022" d="M 48.75 55.78125 C 57.308594 52.253906 67.496094 55.839844 75.492188 64.078125 C 83.558594 55.460938 94.003906 51.644531 102.746094 55.246094 C 115.414062 60.460938 119.695312 79.277344 112.308594 97.269531 C 104.992188 115.078125 88.988281 125.394531 76.371094 120.539062 C 76.085938 120.675781 75.804688 120.808594 75.511719 120.925781 C 62.839844 126.148438 46.582031 115.792969 39.1875 97.800781 C 31.800781 79.808594 36.078125 61 48.75 55.78125 " fill-opacity="1" fill-rule="nonzero"/><path stroke-linecap="round" transform="matrix(-0.0457458, 0, 0, -0.0458031, 173.0041, 174.498429)" fill="none" stroke-linejoin="round" d="M 2716.187887 2591.90357 C 2529.097492 2668.914622 2306.399294 2590.624317 2131.605118 2410.761295 C 1955.273914 2598.896822 1726.939949 2682.218857 1535.836204 2603.587417 C 1258.915094 2489.733868 1165.3272 2078.922974 1326.800472 1686.106909 C 1486.736716 1297.299172 1836.58124 1072.065298 2112.392275 1178.072759 C 2118.625775 1175.087835 2124.773885 1172.188194 2131.178166 1169.629687 C 2408.184667 1055.605571 2763.579567 1281.692281 2925.223619 1674.508345 C 3086.696891 2067.32441 2993.194388 2477.964738 2716.187887 2591.90357 Z M 2716.187887 2591.90357 " stroke="#24578f" stroke-width="30" stroke-opacity="1" stroke-miterlimit="10"/><g clip-path="url(#8d85272f4a)"><path fill="#24578f" d="M 75.871094 65.953125 C 75.871094 65.953125 75.988281 65.292969 76.140625 64.136719 C 76.296875 62.976562 76.472656 61.3125 76.585938 59.3125 C 76.644531 58.3125 76.6875 57.222656 76.703125 56.070312 C 76.71875 54.921875 76.695312 53.707031 76.640625 52.441406 C 76.542969 49.921875 76.234375 47.230469 75.675781 44.554688 C 75.390625 43.21875 75.011719 41.890625 74.550781 40.601562 C 74.089844 39.320312 73.515625 38.074219 72.839844 36.917969 C 72.164062 35.765625 71.335938 34.722656 70.421875 33.835938 C 69.507812 32.957031 68.484375 32.261719 67.46875 31.761719 C 66.453125 31.269531 65.453125 30.972656 64.5625 30.804688 C 63.671875 30.609375 62.875 30.617188 62.246094 30.746094 C 61.609375 30.886719 61.136719 31.117188 60.832031 31.328125 C 60.523438 31.542969 60.378906 31.695312 60.378906 31.695312 C 60.1875 31.890625 60.191406 32.203125 60.386719 32.394531 C 60.40625 32.40625 60.429688 32.425781 60.453125 32.441406 L 60.46875 32.457031 C 60.46875 32.457031 60.652344 32.582031 60.964844 32.734375 C 61.273438 32.871094 61.710938 33.054688 62.234375 33.1875 C 62.496094 33.265625 62.78125 33.300781 63.085938 33.367188 C 63.238281 33.382812 63.398438 33.40625 63.5625 33.421875 C 63.722656 33.449219 63.890625 33.476562 64.066406 33.503906 C 64.761719 33.625 65.519531 33.839844 66.292969 34.207031 C 67.0625 34.578125 67.84375 35.097656 68.574219 35.785156 C 69.308594 36.476562 69.984375 37.328125 70.597656 38.289062 C 71.207031 39.261719 71.742188 40.339844 72.199219 41.496094 C 72.652344 42.648438 73.023438 43.867188 73.355469 45.105469 C 74.011719 47.585938 74.394531 50.164062 74.667969 52.59375 C 74.929688 55.027344 75.058594 57.324219 75.117188 59.292969 C 75.175781 61.265625 75.171875 62.910156 75.160156 64.0625 C 75.140625 65.21875 75.109375 65.871094 75.109375 65.871094 C 75.097656 66.082031 75.261719 66.261719 75.472656 66.273438 C 75.671875 66.285156 75.839844 66.148438 75.871094 65.953125 " fill-opacity="1" fill-rule="nonzero"/></g><path fill="#77cb4a" d="M 96.273438 37.632812 C 94.632812 35.113281 83.066406 34.144531 78.785156 36.058594 C 74.574219 37.941406 73.113281 42.667969 74.757812 45.1875 C 76.394531 47.703125 81.554688 48.53125 84.722656 45.179688 C 88.65625 41.011719 97.914062 40.152344 96.273438 37.632812 " fill-opacity="1" fill-rule="nonzero"/><path stroke-linecap="round" transform="matrix(-0.0457458, 0, 0, -0.0458031, 173.0041, 174.498429)" fill="none" stroke-linejoin="round" d="M 1677.328119 2988.130977 C 1713.192092 3043.138871 1966.033106 3064.289193 2059.620999 3022.50025 C 2151.671865 2981.393576 2183.60788 2878.200471 2147.658515 2823.192577 C 2111.879932 2768.269966 1999.079196 2750.189852 1929.827571 2823.363144 C 1843.839425 2914.3607 1641.464145 2933.123082 1677.328119 2988.130977 Z M 1677.328119 2988.130977 " stroke="#24578f" stroke-width="30" stroke-opacity="1" stroke-miterlimit="10"/><path stroke-linecap="round" transform="matrix(-0.0457458, 0, 0, -0.0458031, 173.0041, 174.498429)" fill="none" stroke-linejoin="round" d="M 2263.618697 2401.891805 C 2263.618697 2401.891805 2516.886663 2628.5755 2713.626175 2498.603358 C 2713.626175 2498.603358 3053.565411 2333.579675 2860.326905 1725.337346 " stroke="#ffffff" stroke-width="30" stroke-opacity="1" stroke-miterlimit="10"/><path stroke-linecap="round" transform="matrix(-0.0457458, 0, 0, -0.0458031, 173.0041, 174.498429)" fill="none" stroke-linejoin="round" d="M 2153.635844 1211.930331 C 2153.635844 1211.930331 2461.041332 1124.088268 2713.626175 1458.570379 " stroke="#ffffff" stroke-width="30" stroke-opacity="1" stroke-miterlimit="10"/><path stroke-linecap="round" transform="matrix(-0.0457458, 0, 0, -0.0458031, 173.0041, 174.498429)" fill="none" stroke-linejoin="round" d="M 1646.929132 2575.273276 C 1646.929132 2575.273276 1950.32127 2565.2951 2091.898576 2358.567758 " stroke="#ffffff" stroke-width="30" stroke-opacity="1" stroke-miterlimit="10"/><path stroke-linecap="round" transform="matrix(-0.0457458, 0, 0, -0.0458031, 173.0041, 174.498429)" fill="none" stroke-linejoin="round" d="M 2060.304123 2972.779936 C 2060.304123 2972.779936 2125.969351 2936.875559 2115.295549 2853.638807 " stroke="#ffffff" stroke-width="30" stroke-opacity="1" stroke-miterlimit="10"/></svg>